{
.appVersion = "3109";
classes = (
{
code = "uni07CC uni07CC.fina uni07CC.medi uni07CE uni07CE.fina uni07CE.medi uni07CF uni07CF.fina uni07CF.medi uni07D1 uni07D5 uni07D5.fina uni07D5.medi uni07D6 uni07D6.fina uni07DC.fina uni07DE uni07DE.fina uni07DE.medi uni07DF uni07DF.fina uni07DF.medi uni07E0 uni07E2 uni07E2.fina uni07E2.medi uni07E3 uni07E3.fina uni07E3.medi uni07E4 uni07E4.fina uni07E4.medi uni07E5 uni07E5.fina uni07E5.medi uni07E6 uni07E6.fina uni07E6.medi uni07E7 uni07E7.fina uni07E7.medi uni07E8 uni07E8.fina uni07E8.medi uni07E9 uni07E9.fina uni07E9.medi uni25CC";
name = class1;
},
{
code = "uni07CB uni07CB.fina uni07CB.medi uni07D0 uni07D0.fina uni07D0.medi uni07D2 uni07D2.fina uni07D2.medi uni07DA uni07DA.fina uni07DA.medi uni07DB.fina uni07DB.medi uni07DC uni07DC.medi uni07E1 uni07E1.fina";
name = class2;
},
{
code = "uni07D8 uni07D8.fina uni07D8.medi uni07DB uni07DD uni07DD.fina uni07DD.medi";
name = class3;
},
{
code = "uni07FD uni07FD.narrow uni07FD.wide uni07FD.wideopen uni07FD.wider uni07FD.widest";
name = markFilteringSet1;
}
);
copyright = "Copyright 2017-2022 Google Inc. All Rights Reserved.";
customParameters = (
{
name = glyphOrder;
value = (
.notdef,
NULL,
CR,
space,
uni060C,
uni061B,
uni061F,
uni066A,
uni07C0,
uni07C1,
uni07C2,
uni07C3,
uni07C4,
uni07C5,
uni07C6,
uni07C7,
uni07C8,
uni07C9,
uni07CA,
uni07CB,
uni07CC,
uni07CD,
uni07CE,
uni07CF,
uni07D0,
uni07D1,
uni07D2,
uni07D3,
uni07D4,
uni07D5,
uni07D6,
uni07D7,
uni07D8,
uni07D9,
uni07DA,
uni07DB,
uni07DC,
uni07DD,
uni07DE,
uni07DF,
uni07E0,
uni07E1,
uni07E2,
uni07E3,
uni07E4,
uni07E5,
uni07E6,
uni07E7,
uni07E8,
uni07E9,
uni07EA,
uni07EB,
uni07EC,
uni07ED,
uni07EE,
uni07EF,
uni07F0,
uni07F1,
uni07F2,
uni07F3,
uni07F4,
uni07F5,
uni07F6,
uni07F7,
uni07F8,
uni07F9,
uni07FA,
uni07CA.fina,
uni07CA.medi,
uni07CA.init,
uni07CB.fina,
uni07CB.medi,
uni07CB.init,
uni07CC.fina,
uni07CC.medi,
uni07CC.init,
uni07CD.fina,
uni07CD.medi,
uni07CD.init,
uni07CE.fina,
uni07CE.medi,
uni07CE.init,

glyphs = (
{
glyphname = .notdef;
production = .notdef;
lastChange = "2019-09-06 15:18:40 +0000";
layers = (
{
layerId = UUID0;
paths = (
{
closed = 1;
nodes = (
"505 0 LINE",
"505 714 LINE",
"94 714 LINE",
"94 0 LINE"
);
},
{
closed = 1;
nodes = (
"145 663 LINE",
"454 663 LINE",
"454 51 LINE",
"145 51 LINE"
);
}
);
width = 600;
}
);
script = "";
category = Letter;
subCategory = Other;
},
{
glyphname = uni060C;
production = uni060C;
lastChange = "2019-09-06 16:30:37 +0000";
layers = (
{
layerId = UUID0;
paths = (
{
closed = 1;
nodes = (
"135 75 OFFCURVE",
"163 103 OFFCURVE",
"169 142 CURVE",
"134 153 OFFCURVE",
"113 163 OFFCURVE",
"113 181 CURVE SMOOTH",
"113 216 OFFCURVE",
"137 282 OFFCURVE",
"169 317 CURVE",
"142 339 LINE",
"85 279 OFFCURVE",
"40 191 OFFCURVE",
"40 141 CURVE SMOOTH",
"40 108 OFFCURVE",
"63 75 OFFCURVE",
"102 75 CURVE SMOOTH"
);
}
);
width = 212;
}
);
note = afii57388;
unicode = 060C;
script = arabic;
category = Punctuation;
subCategory = Other;
},
{
glyphname = uni061B;
production = uni061B;
lastChange = "2019-09-06 16:30:55 +0000";
layers = (
{
layerId = UUID0;
paths = (
{
closed = 1;
nodes = (
"140 311 OFFCURVE",
"167 338 OFFCURVE",
"173 377 CURVE",
"139 389 OFFCURVE",
"118 398 OFFCURVE",
"118 417 CURVE SMOOTH",
"118 452 OFFCURVE",
"142 517 OFFCURVE",
"173 552 CURVE",
"146 575 LINE",
"89 514 OFFCURVE",
"44 427 OFFCURVE",
"44 376 CURVE SMOOTH",
"44 345 OFFCURVE",
"68 311 OFFCURVE",
"106 311 CURVE SMOOTH"
);
},
{
closed = 1;
nodes = (
"153 108 OFFCURVE",
"167 132 OFFCURVE",
"167 140 CURVE SMOOTH",
"167 149 OFFCURVE",
"141 169 OFFCURVE",
"90 199 CURVE",
"76 178 OFFCURVE",
"68 162 OFFCURVE",
"46 121 CURVE",
"66 109 OFFCURVE",
"93 91 OFFCURVE",
"125 69 CURVE"
);
}
);
width = 212;
}
);
note = afii57403;
unicode = 061B;
script = arabic;
category = Punctuation;
subCategory = Other;
},
{
glyphname = uni061F;
production = uni061F;
lastChange = "2019-09-06 16:31:08 +0000";
layers = (
{
layerId = UUID0;
paths = (
{
closed = 1;
nodes = (
"262 278 OFFCURVE",
"273 315 OFFCURVE",
"273 343 CURVE SMOOTH",
"273 369 OFFCURVE",
"263 392 OFFCURVE",
"243 413 CURVE SMOOTH",
"223 433 OFFCURVE",
"186 456 OFFCURVE",
"124 484 CURVE SMOOTH",
"110 490 OFFCURVE",
"100 495 OFFCURVE",
"91 501 CURVE",
"113 567 OFFCURVE",
"171 611 OFFCURVE",
"232 611 CURVE SMOOTH",
"278 611 OFFCURVE",
"303 600 OFFCURVE",
"343 563 CURVE",
"363 580 OFFCURVE",
"373 599 OFFCURVE",
"373 618 CURVE SMOOTH",
"373 633 OFFCURVE",
"368 640 OFFCURVE",
"359 650 CURVE SMOOTH",
"331 681 OFFCURVE",
"292 696 OFFCURVE",
"243 696 CURVE SMOOTH",
"131 696 OFFCURVE",
"55 583 OFFCURVE",
"55 498 CURVE SMOOTH",
"55 450 OFFCURVE",
"81 415 OFFCURVE",
"132 387 CURVE SMOOTH",
"162 370 OFFCURVE",
"182 356 OFFCURVE",
"192 346 CURVE SMOOTH",
"203 336 OFFCURVE",
"208 324 OFFCURVE",
"208 311 CURVE SMOOTH",
"208 302 OFFCURVE",
"206 284 OFFCURVE",
"201 256 CURVE",
"239 232 LINE"
);
},
{
closed = 1;
nodes = (
"245 104 OFFCURVE",
"258 128 OFFCURVE",
"258 135 CURVE SMOOTH",
"258 149 OFFCURVE",
"211 177 OFFCURVE",
"182 194 CURVE",
"166 170 OFFCURVE",
"151 136 OFFCURVE",
"138 116 CURVE",
"164 101 OFFCURVE",
"183 89 OFFCURVE",
"217 64 CURVE"
);
}
);
width = 425;
}
);
note = afii57407;
unicode = 061F;
script = arabic;
category = Punctuation;
subCategory = Other;
},
{
glyphname = uni066A;
production = uni066A;
lastChange = "2019-09-06 16:31:24 +0000";
layers = (
{
layerId = UUID0;
paths = (
{
closed = 1;
nodes = (
"137 176 OFFCURVE",
"255 411 OFFCURVE",
"341 572 CURVE SMOOTH",
"343 576 OFFCURVE",
"344 582 OFFCURVE",
"344 588 CURVE",
"344 608 OFFCURVE",
"332 629 OFFCURVE",
"316 641 CURVE",
"230 482 OFFCURVE",
"105 234 OFFCURVE",
"53 124 CURVE",
"61 104 OFFCURVE",
"73 87 OFFCURVE",
"88 75 CURVE"
);
},
{
closed = 1;
nodes = (
"351 169 OFFCURVE",
"367 198 OFFCURVE",
"367 207 CURVE SMOOTH",
"367 223 OFFCURVE",
"313 259 OFFCURVE",
"275 280 CURVE",
"265 265 OFFCURVE",
"230 200 OFFCURVE",
"221 185 CURVE",
"252 167 OFFCURVE",
"284 146 OFFCURVE",
"317 121 CURVE"
);
},
{
closed = 1;
nodes = (
"164 496 OFFCURVE",
"180 525 OFFCURVE",
"180 534 CURVE SMOOTH",
"180 551 OFFCURVE",
"128 584 OFFCURVE",
"88 607 CURVE",
"77 591 OFFCURVE",
"43 528 OFFCURVE",
"34 512 CURVE",
"60 498 OFFCURVE",
"92 477 OFFCURVE",
"130 449 CURVE"
);
}
);
width = 401;
}
);
note = afii57381;
unicode = 066A;
script = arabic;
category = Symbol;
subCategory = Math;
},
{
glyphname = uni07C0;
production = uni07C0;
lastChange = "2019-09-06 15:22:37 +0000";
layers = (
{
anchors = (
{
name = Anchor4;
position = "{270, -49}";
}
);
layerId = UUID0;
paths = (
{
closed = 1;
nodes = (
"425 -10 OFFCURVE",
"486 140 OFFCURVE",
"486 352 CURVE SMOOTH",
"486 581 OFFCURVE",
"415 714 OFFCURVE",
"269 714 CURVE SMOOTH",
"118 714 OFFCURVE",
"54 584 OFFCURVE",
"54 352 CURVE SMOOTH",
"54 125 OFFCURVE",
"122 -10 OFFCURVE",
"277 -10 CURVE SMOOTH"
);
},
{
closed = 1;
nodes = (
"178 68 OFFCURVE",
"142 162 OFFCURVE",
"142 350 CURVE SMOOTH",
"142 541 OFFCURVE",
"176 636 OFFCURVE",
"269 636 CURVE SMOOTH",
"361 636 OFFCURVE",
"397 541 OFFCURVE",
"397 350 CURVE SMOOTH",
"397 168 OFFCURVE",
"361 68 OFFCURVE",
"273 68 CURVE SMOOTH"
);
}
);
width = 540;
}
);
unicode = 07C0;
script = nko;
category = Letter;
subCategory = "Decimal Digit";
},
{
glyphname = uni07C1;
production = uni07C1;
lastChange = "2019-09-06 15:22:42 +0000";
layers = (
{
anchors = (
{
name = Anchor2;
position = "{297, 796}";
}
);
layerId = UUID0;
paths = (
{
closed = 1;
nodes = (
"481 0 LINE",
"481 78 LINE",
"320 78 LINE",
"320 529 LINE SMOOTH",
"320 569 OFFCURVE",
"319 604 OFFCURVE",
"318 638 CURVE",
"326 618 OFFCURVE",
"343 580 OFFCURVE",
"355 557 CURVE SMOOTH",
"427 421 LINE",
"497 459 LINE",
"362 714 LINE",
"231 714 LINE",
"231 78 LINE",
"90 78 LINE",
"90 0 LINE"
);
}
);
width = 542;
}
);
unicode = 07C1;
script = nko;
category = Letter;
subCategory = "Decimal Digit";
},
{
glyphname = uni07C2;
production = uni07C2;
lastChange = "2019-09-06 15:22:37 +0000";
layers = (
{
anchors = (
{
name = Anchor4;
position = "{162, -49}";
}
);
layerId = UUID0;
paths = (
{
closed = 1;
nodes = (
"206 0 LINE",
"206 714 LINE",
"117 714 LINE",
"117 0 LINE"
);
},
{
closed = 1;
nodes = (
"474 373 LINE",
"474 451 LINE",
"117 451 LINE",
"117 373 LINE"
);
},
{
closed = 1;
nodes = (
"474 373 LINE",
"474 714 LINE",
"385 714 LINE",
"385 373 LINE"
);
}
);
width = 545;
}
);
unicode = 07C2;
script = nko;
category = Letter;
subCategory = "Decimal Digit";
},
{
glyphname = uni07C3;
production = uni07C3;
lastChange = "2019-09-06 15:22:37 +0000";
layers = (
{
anchors = (
{
name = Anchor4;
position = "{281, -49}";
}
);
layerId = UUID0;
paths = (
{
closed = 1;
nodes = (
"415 0 LINE",
"415 714 LINE",
"326 714 LINE",
"326 0 LINE"
);
},
{
closed = 1;
nodes = (
"415 0 LINE",
"415 78 LINE",
"148 78 LINE",
"148 0 LINE"
);
},
{
closed = 1;
nodes = (
"415 282 LINE",
"415 360 LINE",
"148 360 LINE",
"148 282 LINE"
);
}
);
width = 514;
}
);
unicode = 07C3;
script = nko;
category = Letter;
subCategory = "Decimal Digit";
},
{
glyphname = uni07C4;
production = uni07C4;
lastChange = "2019-09-06 15:22:37 +0000";
layers = (
{
anchors = (
{
name = Anchor4;
position = "{247, -49}";
}
);
layerId = UUID0;
paths = (
{
closed = 1;
nodes = (
"188 0 LINE",
"188 412 LINE",
"99 412 LINE",
"99 0 LINE"
);
},
{
closed = 1;
nodes = (
"396 0 LINE",
"396 78 LINE",
"129 78 LINE",
"129 0 LINE"
);
},
{
closed = 1;
nodes = (
"396 334 LINE",
"396 412 LINE",
"129 412 LINE",
"129 334 LINE"
);
},
{
closed = 1;
nodes = (
"396 334 LINE",
"396 714 LINE",
"307 714 LINE",
"307 334 LINE"
);
}
);
width = 539;
}
);
unicode = 07C4;
script = nko;
category = Letter;
subCategory = "Decimal Digit";
},
{
glyphname = uni07C5;
production = uni07C5;
lastChange = "2019-09-06 15:22:37 +0000";
layers = (
{
anchors = (
{
name = Anchor4;
position = "{188, -49}";
}
);
layerId = UUID0;
paths = (
{
closed = 1;
nodes = (
"232 0 LINE",
"232 714 LINE",
"143 714 LINE",
"143 0 LINE"
);
},
{
closed = 1;
nodes = (
"426 334 LINE",
"426 412 LINE",
"143 412 LINE",
"143 334 LINE"
);
}
);
width = 539;
}
);
unicode = 07C5;
script = nko;
category = Letter;
subCategory = "Decimal Digit";
},
{
glyphname = uni07C6;
production = uni07C6;
lastChange = "2019-09-06 15:22:37 +0000";
layers = (
{
anchors = (
{
name = Anchor4;
position = "{382, -49}";
}
);
layerId = UUID0;
paths = (
{
closed = 1;
nodes = (
"426 0 LINE",
"426 412 LINE",
"337 412 LINE",
"337 0 LINE"
);
},
{
closed = 1;
nodes = (
"396 334 LINE",
"396 412 LINE",
"99 412 LINE",
"99 334 LINE"
);
},
{
closed = 1;
nodes = (
"188 334 LINE",
"188 714 LINE",
"99 714 LINE",
"99 334 LINE"
);
}
);
width = 525;
}
);
unicode = 07C6;
script = nko;
category = Letter;
subCategory = "Decimal Digit";
},
{
glyphname = uni07C7;
production = uni07C7;
lastChange = "2019-09-06 15:22:37 +0000";
layers = (
{
anchors = (
{
name = Anchor4;
position = "{158, -49}";
}
);
layerId = UUID0;
paths = (
{
closed = 1;
nodes = (
"213 0 LINE",
"495 495 LINE",
"425 533 LINE",
"229 189 LINE SMOOTH",
"216 167 OFFCURVE",
"198 129 OFFCURVE",
"190 109 CURVE",
"191 143 OFFCURVE",
"192 178 OFFCURVE",
"192 218 CURVE SMOOTH",
"192 714 LINE",
"103 714 LINE",
"103 0 LINE"
);
}
);
width = 542;
}
);
unicode = 07C7;
script = nko;
category = Letter;
subCategory = "Decimal Digit";
},
{
glyphname = uni07C8;
production = uni07C8;
lastChange = "2019-09-06 15:22:37 +0000";
layers = (
{
anchors = (
{
name = Anchor4;
position = "{158, -49}";
}
);
layerId = UUID0;
paths = (
{
closed = 1;
nodes = (
"213 0 LINE",
"486 478 LINE",
"416 516 LINE",
"229 189 LINE SMOOTH",
"216 167 OFFCURVE",
"198 129 OFFCURVE",
"190 109 CURVE",
"191 143 OFFCURVE",
"192 178 OFFCURVE",
"192 218 CURVE SMOOTH",
"192 714 LINE",
"103 714 LINE",
"103 0 LINE"
);
},
{
closed = 1;
nodes = (
"383 444 LINE",
"486 478 LINE",
"486 522 LINE",
"112 522 LINE",
"112 477 LINE",
"173 444 LINE"
);
}
);
width = 542;
}
);
unicode = 07C8;
script = nko;
category = Letter;
subCategory = "Decimal Digit";
},
{
glyphname = uni07C9;
production = uni07C9;
lastChange = "2019-09-06 15:22:37 +0000";
layers = (
{
anchors = (
{
name = Anchor4;
position = "{277, -49}";
}
);
layerId = UUID0;
paths = (
{
closed = 1;
nodes = (
"399 389 OFFCURVE",
"459 461 OFFCURVE",
"459 550 CURVE SMOOTH",
"459 642 OFFCURVE",
"399 714 OFFCURVE",
"276 714 CURVE SMOOTH",
"159 714 OFFCURVE",
"95 642 OFFCURVE",
"95 552 CURVE SMOOTH",
"95 459 OFFCURVE",
"159 389 OFFCURVE",
"276 389 CURVE SMOOTH"
);
},
{
closed = 1;
nodes = (
"321 -11 LINE",
"321 435 LINE",
"232 435 LINE",
"232 -11 LINE"
);
},
{
closed = 1;
nodes = (
"210 462 OFFCURVE",
"185 507 OFFCURVE",
"185 555 CURVE SMOOTH",
"185 596 OFFCURVE",
"212 641 OFFCURVE",
"277 641 CURVE SMOOTH",
"342 641 OFFCURVE",
"369 596 OFFCURVE",
"369 551 CURVE SMOOTH",
"369 509 OFFCURVE",
"344 462 OFFCURVE",
"277 462 CURVE SMOOTH"
);
}
);
width = 554;
}
);
unicode = 07C9;
script = nko;
category = Letter;
subCategory = "Decimal Digit";
},
{
glyphname = uni07CA;
production = uni07CA;
lastChange = "2019-09-06 15:22:42 +0000";
layers = (
{
anchors = (
{
name = Anchor2;
position = "{136, 795}";
},
{
name = Anchor4;
position = "{136, -49}";
},
{
name = Anchor6;
position = "{132, -49}";
}
);
layerId = UUID0;
paths = (
{
closed = 1;
nodes = (
"177 0 LINE",
"177 714 LINE",
"88 714 LINE",
"88 0 LINE"
);
}
);
width = 265;
}
);
unicode = 07CA;
script = nko;
category = Letter;
subCategory = Other;
},
{
glyphname = uni07CB;
production = uni07CB;
lastChange = "2019-09-06 15:22:42 +0000";
layers = (
{
anchors = (
{
name = Anchor2;
position = "{332, 649}";
},
{
name = Anchor4;
position = "{332, -49}";
},
{
name = Anchor6;
position = "{330, -49}";
}
);
layerId = UUID0;
paths = (
{
closed = 1;
nodes = (
"481 -10 OFFCURVE",
"591 106 OFFCURVE",
"591 271 CURVE SMOOTH",
"591 418 OFFCURVE",
"492 534 OFFCURVE",
"332 534 CURVE SMOOTH",
"186 534 OFFCURVE",
"69 423 OFFCURVE",
"69 264 CURVE SMOOTH",
"69 96 OFFCURVE",
"175 -10 OFFCURVE",
"329 -10 CURVE SMOOTH"
);
},
{
closed = 1;
nodes = (
"209 68 OFFCURVE",
"160 166 OFFCURVE",
"160 257 CURVE SMOOTH",
"160 376 OFFCURVE",
"231 456 OFFCURVE",
"330 456 CURVE SMOOTH",
"438 456 OFFCURVE",
"500 376 OFFCURVE",
"500 264 CURVE SMOOTH",
"500 155 OFFCURVE",
"436 68 OFFCURVE",
"331 68 CURVE SMOOTH"
);
}
);
width = 660;
}
);
unicode = 07CB;
script = nko;
category = Letter;
subCategory = Other;
},
{
glyphname = uni07CC;
production = uni07CC;
lastChange = "2019-09-06 15:22:42 +0000";
layers = (
{
anchors = (
{
name = Anchor2;
position = "{214, 795}";
},
{
name = Anchor4;
position = "{219, -49}";
},
{
name = Anchor6;
position = "{218, -49}";
}
);
layerId = UUID0;
paths = (
{
closed = 1;
nodes = (
"263 350 LINE",
"433 714 LINE",
"345 714 LINE",
"257 524 LINE SMOOTH",
"244 496 OFFCURVE",
"229 461 OFFCURVE",
"218 431 CURVE",
"207 461 OFFCURVE",
"191 498 OFFCURVE",
"178 527 CURVE SMOOTH",
"92 714 LINE",
"4 714 LINE",
"174 350 LINE"
);
},
{
closed = 1;
nodes = (
"263 0 LINE",
"263 414 LINE",
"174 414 LINE",
"174 0 LINE"
);
}
);
width = 437;
}
);
unicode = 07CC;
script = nko;
category = Letter;
subCategory = Other;
},
{
glyphname = uni07CD;
production = uni07CD;
lastChange = "2019-09-06 15:22:42 +0000";
layers = (
{
anchors = (
{
name = Anchor2;
position = "{312, 649}";
},
{
name = Anchor4;
position = "{312, -49}";
},
{
name = Anchor6;
position = "{309, -49}";
}
);
layerId = UUID0;
paths = (
{
closed = 1;
nodes = (
"127 0 LINE",
"245 263 LINE SMOOTH",
"269 316 OFFCURVE",
"289 366 OFFCURVE",
"309 423 CURVE",
"328 369 OFFCURVE",
"347 320 OFFCURVE",
"370 269 CURVE SMOOTH",
"492 0 LINE",
"588 0 LINE",
"354 513 LINE",
"265 513 LINE",
"31 0 LINE"
);
}
);
width = 619;
}
);
unicode = 07CD;
script = nko;
category = Letter;
subCategory = Other;
},
{
glyphname = uni07CE;
production = uni07CE;
lastChange = "2019-09-06 15:22:42 +0000";
layers = (
{
anchors = (
{
name = Anchor2;
position = "{292, 649}";
},
{
name = Anchor4;
position = "{292, -49}";
},
{
name = Anchor6;
position = "{296, -49}";
}
);
layerId = UUID0;
paths = (
{
closed = 1;
nodes = (
"505 0 LINE",
"505 513 LINE",
"416 513 LINE",
"416 0 LINE"
);
},
{
closed = 1;
nodes = (
"505 0 LINE",
"505 78 LINE",
"142 78 LINE",
"142 0 LINE"
);
},
{
closed = 1;
nodes = (
"177 0 LINE",
"177 513 LINE",
"88 513 LINE",
"88 0 LINE"
);
}
);
width = 593;
}
);
unicode = 07CE;
script = nko;
category = Letter;
subCategory = Other;
},
{
glyphname = uni07CF;
production = uni07CF;
lastChange = "2019-09-06 15:22:42 +0000";
layers = (
{
anchors = (
{
name = Anchor2;
position = "{244, 649}";
},
{
name = Anchor4;
position = "{244, -49}";
},
{
name = Anchor6;
position = "{256, -49}";
}
);
layerId = UUID0;
paths = (
{
closed = 1;
nodes = (
"463 0 LINE",
"463 500 LINE",
"374 500 LINE",
"374 0 LINE"
);
},
{
closed = 1;
nodes = (
"463 0 LINE",
"463 78 LINE",
"49 78 LINE",
"49 0 LINE"
);
},
{
closed = 1;
nodes = (
"463 435 LINE",
"463 513 LINE",
"49 513 LINE",
"49 435 LINE"
);
}
);
width = 551;
}
);
unicode = 07CF;
script = nko;
category = Letter;
subCategory = Other;
},
{
glyphname = uni07D0;
production = uni07D0;
lastChange = "2019-09-06 15:22:42 +0000";
layers = (
{
anchors = (
{
name = Anchor2;
position = "{322, 795}";
},
{
name = Anchor4;
position = "{322, -49}";
},
{
name = Anchor6;
position = "{322, -49}";
}
);
layerId = UUID0;
paths = (
{
closed = 1;
nodes = (
"500 303 OFFCURVE",
"583 394 OFFCURVE",
"583 507 CURVE SMOOTH",
"583 623 OFFCURVE",
"502 714 OFFCURVE",
"324 714 CURVE SMOOTH",
"147 714 OFFCURVE",
"62 623 OFFCURVE",
"62 507 CURVE SMOOTH",
"62 391 OFFCURVE",
"147 303 OFFCURVE",
"327 303 CURVE SMOOTH"
);
},
{
closed = 1;
nodes = (
"533 0 LINE",
"533 78 LINE",
"111 78 LINE",
"111 0 LINE"
);
},
{
closed = 1;
nodes = (
"367 0 LINE",
"367 362 LINE",
"278 362 LINE",
"278 0 LINE"
);
},
{
closed = 1;
nodes = (
"201 381 OFFCURVE",
"151 441 OFFCURVE",
"151 508 CURVE SMOOTH",
"151 586 OFFCURVE",
"217 636 OFFCURVE",
"323 636 CURVE SMOOTH",
"429 636 OFFCURVE",
"494 586 OFFCURVE",
"494 507 CURVE SMOOTH",
"494 433 OFFCURVE",
"429 381 OFFCURVE",
"327 381 CURVE SMOOTH"
);
}
);
width = 645;
}
);
unicode = 07D0;
script = nko;
category = Letter;
subCategory = Other;
},
{
glyphname = uni07D1;
production = uni07D1;
lastChange = "2019-09-06 15:22:42 +0000";
layers = (
{
anchors = (
{
name = Anchor2;
position = "{253, 795}";
},
{
name = Anchor4;
position = "{253, -49}";
},
{
name = Anchor6;
position = "{261, -49}";
}
);
layerId = UUID0;
paths = (
{
closed = 1;
nodes = (
"304 366 LINE",
"314 453 OFFCURVE",
"335 576 OFFCURVE",
"354 669 CURVE",
"289 669 LINE",
"257 580 OFFCURVE",
"221 464 OFFCURVE",
"203 377 CURVE",
"210 366 LINE"
);
},
{
closed = 1;
nodes = (
"472 0 LINE",
"472 78 LINE",
"50 78 LINE",
"50 0 LINE"
);
}
);
width = 522;
}
);
unicode = 07D1;
script = nko;
category = Letter;
subCategory = Other;
},
{
glyphname = uni07D2;
production = uni07D2;
lastChange = "2019-09-06 15:22:42 +0000";
layers = (
{
anchors = (
{
name = Anchor2;
position = "{224, 795}";
},
{
name = Anchor4;
position = "{556, -49}";
},
{
name = Anchor6;
position = "{341, -49}";
}
);
layerId = UUID0;
paths = (
{
closed = 1;
nodes = (
"388 244 LINE",
"388 535 LINE SMOOTH",
"388 647 OFFCURVE",
"326 714 OFFCURVE",
"220 714 CURVE SMOOTH",
"109 714 OFFCURVE",
"46 642 OFFCURVE",
"46 550 CURVE SMOOTH",
"46 435 OFFCURVE",
"122 377 OFFCURVE",
"235 377 CURVE SMOOTH",
"590 377 LINE",
"590 455 LINE",
"241 455 LINE SMOOTH",
"172 455 OFFCURVE",
"135 491 OFFCURVE",
"135 548 CURVE SMOOTH",
"135 593 OFFCURVE",
"158 636 OFFCURVE",
"217 636 CURVE SMOOTH",
"278 636 OFFCURVE",
"299 591 OFFCURVE",
"299 544 CURVE SMOOTH",
"299 244 LINE"
);
},
{
closed = 1;
nodes = (
"597 0 LINE",
"597 455 LINE",
"508 455 LINE",
"508 0 LINE"
);
}
);
width = 685;
}
);
unicode = 07D2;
script = nko;
category = Letter;
subCategory = Other;
},
{
glyphname = uni07D3;
production = uni07D3;
lastChange = "2019-09-06 15:22:42 +0000";
layers = (
{
anchors = (
{
name = Anchor2;
position = "{219, 795}";
},
{
name = Anchor4;
position = "{136, -49}";
},
{
name = Anchor6;
position = "{219, -49}";
}
);
layerId = UUID0;
paths = (
{
closed = 1;
nodes = (
"177 0 LINE",
"177 714 LINE",
"88 714 LINE",
"88 0 LINE"
);
},
{
closed = 1;
nodes = (
"351 352 LINE",
"351 430 LINE",
"104 430 LINE",
"104 352 LINE"
);
},
{
closed = 1;
nodes = (
"351 636 LINE",
"351 714 LINE",
"104 714 LINE",
"104 636 LINE"
);
}
);
width = 419;
}
);
unicode = 07D3;
script = nko;
category = Letter;
subCategory = Other;
},
{
glyphname = uni07D4;
production = uni07D4;
lastChange = "2019-09-06 15:22:42 +0000";
layers = (
{
anchors = (
{
name = Anchor2;
position = "{195, 795}";
},
{
name = Anchor4;
position = "{283, -49}";
},
{
name = Anchor6;
position = "{199, -49}";
}
);
layerId = UUID0;
paths = (
{
closed = 1;
nodes = (
"331 0 LINE",
"331 714 LINE",
"242 714 LINE",
"242 0 LINE"
);
},
{
closed = 1;
nodes = (
"315 352 LINE",
"315 430 LINE",
"68 430 LINE",
"68 352 LINE"
);
},
{
closed = 1;
nodes = (
"315 636 LINE",
"315 714 LINE",
"68 714 LINE",
"68 636 LINE"
);
}
);
width = 419;
}
);
unicode = 07D4;
script = nko;
category = Letter;
subCategory = Other;
},
{
glyphname = uni07D5;
production = uni07D5;
lastChange = "2019-09-06 15:22:42 +0000";
layers = (
{
anchors = (
{
name = Anchor2;
position = "{136, 795}";
},
{
name = Anchor4;
position = "{263, -49}";
},
{
name = Anchor6;
position = "{290, -49}";
}
);
layerId = UUID0;
paths = (
{
closed = 1;
nodes = (
"270 0 LINE SMOOTH",
"422 0 OFFCURVE",
"493 109 OFFCURVE",
"493 215 CURVE SMOOTH",
"493 347 OFFCURVE",
"422 431 OFFCURVE",
"267 431 CURVE SMOOTH",
"88 431 LINE",
"88 353 LINE",
"266 353 LINE SMOOTH",
"354 353 OFFCURVE",
"402 301 OFFCURVE",
"402 215 CURVE SMOOTH",
"402 150 OFFCURVE",
"371 78 OFFCURVE",
"273 78 CURVE SMOOTH",
"88 78 LINE",
"88 0 LINE"
);
},
{
closed = 1;
nodes = (
"177 0 LINE",
"177 714 LINE",
"88 714 LINE",
"88 0 LINE"
);
}
);
width = 564;
}
);
unicode = 07D5;
script = nko;
category = Letter;
subCategory = Other;
},
{
glyphname = uni07D6;
production = uni07D6;
lastChange = "2019-09-06 15:22:42 +0000";
layers = (
{
anchors = (
{
name = Anchor2;
position = "{234, 795}";
},
{
name = Anchor4;
position = "{336, -49}";
},
{
name = Anchor6;
position = "{238, -49}";
}
);
layerId = UUID0;
paths = (
{
closed = 1;
nodes = (
"378 0 LINE",
"378 124 LINE SMOOTH",
"378 332 OFFCURVE",
"300 500 OFFCURVE",
"146 636 CURVE",
"437 636 LINE",
"437 714 LINE",
"39 714 LINE",
"39 636 LINE",
"223 471 OFFCURVE",
"289 354 OFFCURVE",
"289 124 CURVE SMOOTH",
"289 0 LINE"
);
}
);
width = 487;
}
);
unicode = 07D6;
script = nko;
category = Letter;
subCategory = Other;
},
{
glyphname = uni07D7;
production = uni07D7;
lastChange = "2019-09-06 15:22:42 +0000";
layers = (
{
anchors = (
{
name = Anchor2;
position = "{244, 795}";
},
{
name = Anchor4;
position = "{244, -49}";
},
{
name = Anchor6;
position = "{202, -49}";
}
);
layerId = UUID0;
paths = (
{
closed = 1;
nodes = (
"289 0 LINE",
"289 714 LINE",
"179 714 LINE",
"35 460 LINE",
"105 422 LINE",
"163 525 LINE SMOOTH",
"176 547 OFFCURVE",
"194 585 OFFCURVE",
"202 605 CURVE",
"201 571 OFFCURVE",
"200 536 OFFCURVE",
"200 496 CURVE",
"200 0 LINE"
);
}
);
width = 377;
}
);
unicode = 07D7;
script = nko;
category = Letter;
subCategory = Other;
},
{
glyphname = uni07D8;
production = uni07D8;
lastChange = "2019-09-06 15:22:42 +0000";
layers = (
{
anchors = (
{
name = Anchor2;
position = "{371, 649}";
},
{
name = Anchor4;
position = "{375, -49}";
},
{
name = Anchor6;
position = "{396, -49}";
}
);
layerId = UUID0;
paths = (
{
closed = 1;
nodes = (
"704 0 LINE",
"704 297 LINE SMOOTH",
"704 449 OFFCURVE",
"635 520 OFFCURVE",
"520 520 CURVE SMOOTH",
"440 520 OFFCURVE",
"385 473 OFFCURVE",
"364 406 CURVE",
"345 440 OFFCURVE",
"302 465 OFFCURVE",
"247 465 CURVE SMOOTH",
"147 465 OFFCURVE",
"88 393 OFFCURVE",
"88 239 CURVE SMOOTH",
"88 0 LINE"
);
},
{
closed = 1;
nodes = (
"177 245 LINE SMOOTH",
"177 326 OFFCURVE",
"190 387 OFFCURVE",
"254 387 CURVE SMOOTH",
"313 387 OFFCURVE",
"331 335 OFFCURVE",
"331 252 CURVE SMOOTH",
"331 78 LINE",
"177 78 LINE"
);
},
{
closed = 1;
nodes = (
"420 301 LINE SMOOTH",
"420 386 OFFCURVE",
"451 442 OFFCURVE",
"519 442 CURVE SMOOTH",
"587 442 OFFCURVE",
"615 392 OFFCURVE",
"615 308 CURVE SMOOTH",
"615 78 LINE",
"420 78 LINE"
);
}
);
width = 792;
}
);
unicode = 07D8;
script = nko;
category = Letter;
subCategory = Other;
},
{
glyphname = uni07D9;
production = uni07D9;
lastChange = "2019-09-06 15:22:42 +0000";
layers = (
{
anchors = (
{
name = Anchor2;
position = "{195, 795}";
},
{
name = Anchor4;
position = "{195, -49}";
},
{
name = Anchor6;
position = "{195, -49}";
}
);
layerId = UUID0;
paths = (
{
closed = 1;
nodes = (
"240 0 LINE",
"240 714 LINE",
"151 714 LINE",
"151 0 LINE"
);
},
{
closed = 1;
nodes = (
"352 435 LINE",
"352 513 LINE",
"39 513 LINE",
"39 435 LINE"
);
}
);
width = 391;
}
);
unicode = 07D9;
script = nko;
category = Letter;
subCategory = Other;
},
{
glyphname = uni07DA;
production = uni07DA;
lastChange = "2019-09-06 15:22:42 +0000";
layers = (
{
anchors = (
{
name = Anchor2;
position = "{322, 795}";
},
{
name = Anchor4;
position = "{341, -49}";
},
{
name = Anchor6;
position = "{325, -49}";
}
);
layerId = UUID0;
paths = (
{
closed = 1;
nodes = (
"499 0 LINE",
"499 714 LINE",
"410 714 LINE",
"410 0 LINE"
);
},
{
closed = 1;
nodes = (
"472 0 LINE",
"472 78 LINE",
"186 78 LINE",
"186 0 LINE"
);
},
{
closed = 1;
nodes = (
"240 0 LINE",
"240 714 LINE",
"151 714 LINE",
"151 0 LINE"
);
},
{
closed = 1;
nodes = (
"362 435 LINE",
"362 513 LINE",
"39 513 LINE",
"39 435 LINE"
);
},
{
closed = 1;
nodes = (
"611 435 LINE",
"611 513 LINE",
"308 513 LINE",
"308 435 LINE"
);
}
);
width = 650;
}
);
unicode = 07DA;
script = nko;
category = Letter;
subCategory = Other;
},
{
glyphname = uni07DB;
production = uni07DB;
lastChange = "2019-09-06 15:22:42 +0000";
layers = (
{
anchors = (
{
name = Anchor2;
position = "{351, 649}";
},
{
name = Anchor4;
position = "{351, -49}";
},
{
name = Anchor6;
position = "{354, -49}";
}
);
layerId = UUID0;
paths = (
{
closed = 1;
nodes = (
"177 0 LINE",
"177 354 LINE SMOOTH",
"177 404 OFFCURVE",
"193 435 OFFCURVE",
"242 435 CURVE SMOOTH",
"365 435 LINE",
"365 513 LINE",
"249 513 LINE SMOOTH",
"140 513 OFFCURVE",
"88 463 OFFCURVE",
"88 361 CURVE SMOOTH",
"88 0 LINE"
);
},
{
closed = 1;
nodes = (
"620 0 LINE",
"620 78 LINE",
"170 78 LINE",
"170 0 LINE"
);
},
{
closed = 1;
nodes = (
"620 0 LINE",
"620 500 LINE",
"531 500 LINE",
"531 0 LINE"
);
},
{
closed = 1;
nodes = (
"620 435 LINE",
"620 513 LINE",
"273 513 LINE",
"273 435 LINE"
);
}
);
width = 708;
}
);
unicode = 07DB;
script = nko;
category = Letter;
subCategory = Other;
},
{
glyphname = uni07DC;
production = uni07DC;
lastChange = "2019-09-06 15:22:42 +0000";
layers = (
{
anchors = (
{
name = Anchor2;
position = "{292, 795}";
},
{
name = Anchor4;
position = "{292, -49}";
},
{
name = Anchor6;
position = "{288, -49}";
}
);
layerId = UUID0;
paths = (
{
closed = 1;
nodes = (
"333 0 LINE",
"537 670 LINE",
"446 670 LINE",
"322 257 LINE SMOOTH",
"306 205 OFFCURVE",
"299 169 OFFCURVE",
"290 123 CURVE",
"282 169 OFFCURVE",
"273 199 OFFCURVE",
"255 259 CURVE SMOOTH",
"132 670 LINE",
"39 670 LINE",
"244 0 LINE"
);
},
{
closed = 1;
nodes = (
"481 636 LINE",
"537 670 LINE",
"537 714 LINE",
"39 714 LINE",
"39 670 LINE",
"100 636 LINE"
);
}
);
width = 576;
}
);
unicode = 07DC;
script = nko;
category = Letter;
subCategory = Other;
},
{
glyphname = uni07DD;
production = uni07DD;
lastChange = "2019-09-06 15:22:42 +0000";
layers = (
{
anchors = (
{
name = Anchor2;
position = "{371, 795}";
},
{
name = Anchor4;
position = "{244, -49}";
},
{
name = Anchor6;
position = "{366, -49}";
}
);
layerId = UUID0;
paths = (
{
closed = 1;
nodes = (
"450 156 LINE",
"450 545 LINE SMOOTH",
"450 605 OFFCURVE",
"475 636 OFFCURVE",
"522 636 CURVE SMOOTH",
"568 636 OFFCURVE",
"595 604 OFFCURVE",
"595 552 CURVE SMOOTH",
"595 500 OFFCURVE",
"573 455 OFFCURVE",
"490 455 CURVE SMOOTH",
"330 455 LINE",
"330 377 LINE",
"487 377 LINE SMOOTH",
"622 377 OFFCURVE",
"684 452 OFFCURVE",
"684 550 CURVE SMOOTH",
"684 642 OFFCURVE",
"624 714 OFFCURVE",
"527 714 CURVE SMOOTH",
"420 714 OFFCURVE",
"361 646 OFFCURVE",
"361 537 CURVE SMOOTH",
"361 134 LINE"
);
},
{
closed = 1;
nodes = (
"177 0 LINE",
"177 296 LINE SMOOTH",
"177 346 OFFCURVE",
"193 377 OFFCURVE",
"242 377 CURVE SMOOTH",
"365 377 LINE",
"365 455 LINE",
"249 455 LINE SMOOTH",
"140 455 OFFCURVE",
"88 405 OFFCURVE",
"88 303 CURVE SMOOTH",
"88 0 LINE"
);
},
{
closed = 1;
nodes = (
"289 0 LINE",
"398 0 OFFCURVE",
"450 50 OFFCURVE",
"450 152 CURVE SMOOTH",
"450 513 LINE",
"361 513 LINE",
"361 159 LINE SMOOTH",
"361 109 OFFCURVE",
"345 78 OFFCURVE",
"296 78 CURVE SMOOTH",
"173 78 LINE",
"173 0 LINE"
);
}
);
width = 733;
}
);
unicode = 07DD;
script = nko;
category = Letter;
subCategory = Other;
},
{
glyphname = uni07DE;
production = uni07DE;
lastChange = "2019-09-06 15:22:42 +0000";
layers = (
{
anchors = (
{
name = Anchor2;
position = "{263, 795}";
},
{
name = Anchor4;
position = "{410, -49}";
},
{
name = Anchor6;
position = "{267, -49}";
}
);
layerId = UUID0;
paths = (
{
closed = 1;
nodes = (
"456 0 LINE",
"456 714 LINE",
"367 714 LINE",
"367 0 LINE"
);
},
{
closed = 1;
nodes = (
"167 286 LINE",
"167 643 LINE",
"78 643 LINE",
"78 286 LINE"
);
},
{
closed = 1;
nodes = (
"425 435 LINE",
"425 513 LINE",
"122 513 LINE",
"122 435 LINE"
);
}
);
width = 544;
}
);
unicode = 07DE;
script = nko;
category = Letter;
subCategory = Other;
},
{
glyphname = uni07DF;
production = uni07DF;
lastChange = "2019-09-06 15:22:42 +0000";
layers = (
{
anchors = (
{
name = Anchor2;
position = "{214, 795}";
},
{
name = Anchor4;
position = "{341, -49}";
},
{
name = Anchor6;
position = "{292, -49}";
}
);
layerId = UUID0;
paths = (
{
closed = 1;
nodes = (
"388 0 LINE",
"388 536 LINE SMOOTH",
"388 640 OFFCURVE",
"332 714 OFFCURVE",
"222 714 CURVE SMOOTH",
"122 714 OFFCURVE",
"46 649 OFFCURVE",
"46 537 CURVE SMOOTH",
"46 430 OFFCURVE",
"115 353 OFFCURVE",
"258 353 CURVE SMOOTH",
"539 353 LINE",
"539 431 LINE",
"261 431 LINE SMOOTH",
"173 431 OFFCURVE",
"135 474 OFFCURVE",
"135 541 CURVE SMOOTH",
"135 600 OFFCURVE",
"170 636 OFFCURVE",
"221 636 CURVE SMOOTH",
"273 636 OFFCURVE",
"299 602 OFFCURVE",
"299 543 CURVE SMOOTH",
"299 0 LINE"
);
}
);
width = 578;
}
);
unicode = 07DF;
script = nko;
category = Letter;
subCategory = Other;
},
{
glyphname = uni07E0;
production = uni07E0;
lastChange = "2019-09-06 15:22:42 +0000";
layers = (
{
anchors = (
{
name = Anchor2;
position = "{263, 795}";
},
{
name = Anchor4;
position = "{258, -49}";
},
{
name = Anchor6;
position = "{260, -49}";
}
);
layerId = UUID0;
paths = (
{
closed = 1;
nodes = (
"305 0 LINE",
"305 714 LINE",
"216 714 LINE",
"216 0 LINE"
);
},
{
closed = 1;
nodes = (
"471 636 LINE",
"471 714 LINE",
"50 714 LINE",
"50 636 LINE"
);
}
);
width = 521;
}
);
unicode = 07E0;
script = nko;
category = Letter;
subCategory = Other;
},
{
glyphname = uni07E1;
production = uni07E1;
lastChange = "2019-09-06 15:22:42 +0000";
layers = (
{
anchors = (
{
name = Anchor2;
position = "{283, 795}";
},
{
name = Anchor4;
position = "{283, -49}";
},
{
name = Anchor6;
position = "{288, -49}";
}
);
layerId = UUID0;
paths = (
{
closed = 1;
nodes = (
"130 44 LINE",
"254 457 LINE SMOOTH",
"270 509 OFFCURVE",
"277 545 OFFCURVE",
"286 591 CURVE",
"294 545 OFFCURVE",
"303 515 OFFCURVE",
"321 455 CURVE SMOOTH",
"444 44 LINE",
"537 44 LINE",
"332 714 LINE",
"243 714 LINE",
"39 44 LINE"
);
},
{
closed = 1;
nodes = (
"537 0 LINE",
"537 44 LINE",
"476 78 LINE",
"95 78 LINE",
"39 44 LINE",
"39 0 LINE"
);
}
);
width = 576;
}
);
unicode = 07E1;
script = nko;
category = Letter;
subCategory = Other;
},
{
glyphname = uni07E2;
production = uni07E2;
lastChange = "2019-09-06 15:22:42 +0000";
layers = (
{
anchors = (
{
name = Anchor2;
position = "{253, 795}";
},
{
name = Anchor4;
position = "{278, -49}";
},
{
name = Anchor6;
position = "{260, -49}";
}
);
layerId = UUID0;
paths = (
{
closed = 1;
nodes = (
"412 200 OFFCURVE",
"472 272 OFFCURVE",
"472 363 CURVE SMOOTH",
"472 458 OFFCURVE",
"412 526 OFFCURVE",
"279 526 CURVE SMOOTH",
"151 526 OFFCURVE",
"87 459 OFFCURVE",
"87 364 CURVE SMOOTH",
"87 271 OFFCURVE",
"146 200 OFFCURVE",
"283 200 CURVE SMOOTH"
);
},
{
closed = 1;
nodes = (
"324 0 LINE",
"324 252 LINE",
"235 252 LINE",
"235 0 LINE"
);
},
{
closed = 1;
nodes = (
"210 278 OFFCURVE",
"177 313 OFFCURVE",
"177 363 CURVE SMOOTH",
"177 413 OFFCURVE",
"211 448 OFFCURVE",
"279 448 CURVE SMOOTH",
"345 448 OFFCURVE",
"382 416 OFFCURVE",
"382 363 CURVE SMOOTH",
"382 310 OFFCURVE",
"346 278 OFFCURVE",
"281 278 CURVE SMOOTH"
);
},
{
closed = 1;
nodes = (
"284 636 LINE",
"284 714 LINE",
"49 714 LINE",
"49 636 LINE"
);
},
{
closed = 1;
nodes = (
"324 468 LINE",
"324 714 LINE",
"235 714 LINE",
"235 468 LINE"
);
}
);
width = 541;
}
);
unicode = 07E2;
script = nko;
category = Letter;
subCategory = Other;
},
{
glyphname = uni07E3;
production = uni07E3;
lastChange = "2019-09-06 15:22:42 +0000";
layers = (
{
anchors = (
{
name = Anchor2;
position = "{263, 795}";
},
{
name = Anchor4;
position = "{410, -49}";
},
{
name = Anchor6;
position = "{267, -49}";
}
);
layerId = UUID0;
paths = (
{
closed = 1;
nodes = (
"167 405 LINE",
"167 555 LINE SMOOTH",
"167 605 OFFCURVE",
"183 636 OFFCURVE",
"232 636 CURVE SMOOTH",
"385 636 LINE",
"385 714 LINE",
"239 714 LINE SMOOTH",
"130 714 OFFCURVE",
"78 664 OFFCURVE",
"78 562 CURVE SMOOTH",
"78 405 LINE"
);
},
{
closed = 1;
nodes = (
"456 0 LINE",
"456 714 LINE",
"367 714 LINE",
"367 0 LINE"
);
}
);
width = 544;
}
);
unicode = 07E3;
script = nko;
category = Letter;
subCategory = Other;
},
{
glyphname = uni07E4;
production = uni07E4;
lastChange = "2019-09-06 15:22:42 +0000";
layers = (
{
anchors = (
{
name = Anchor2;
position = "{263, 795}";
},
{
name = Anchor4;
position = "{410, -49}";
},
{
name = Anchor6;
position = "{267, -49}";
}
);
layerId = UUID0;
paths = (
{
closed = 1;
nodes = (
"456 0 LINE",
"456 559 LINE",
"367 559 LINE",
"367 0 LINE"
);
},
{
closed = 1;
nodes = (
"167 329 LINE",
"167 714 LINE",
"78 714 LINE",
"78 329 LINE"
);
},
{
closed = 1;
nodes = (
"426 481 LINE",
"426 559 LINE",
"109 559 LINE",
"109 481 LINE"
);
}
);
width = 544;
}
);
unicode = 07E4;
script = nko;
category = Letter;
subCategory = Other;
},
{
glyphname = uni07E5;
production = uni07E5;
lastChange = "2019-09-06 15:22:42 +0000";
layers = (
{
anchors = (
{
name = Anchor2;
position = "{263, 795}";
},
{
name = Anchor4;
position = "{268, -49}";
},
{
name = Anchor6;
position = "{262, -49}";
}
);
layerId = UUID0;
paths = (
{
closed = 1;
nodes = (
"177 0 LINE",
"177 272 LINE SMOOTH",
"177 322 OFFCURVE",
"193 353 OFFCURVE",
"242 353 CURVE SMOOTH",
"365 353 LINE",
"365 431 LINE",
"249 431 LINE SMOOTH",
"140 431 OFFCURVE",
"88 381 OFFCURVE",
"88 279 CURVE SMOOTH",
"88 0 LINE"
);
},
{
closed = 1;
nodes = (
"437 0 LINE",
"437 78 LINE",
"152 78 LINE",
"152 0 LINE"
);
},
{
closed = 1;
nodes = (
"437 0 LINE",
"437 714 LINE",
"348 714 LINE",
"348 0 LINE"
);
},
{
closed = 1;
nodes = (
"365 636 LINE",
"365 714 LINE",
"98 714 LINE",
"98 636 LINE"
);
}
);
width = 525;
}
);
unicode = 07E5;
script = nko;
category = Letter;
subCategory = Other;
},
{
glyphname = uni07E6;
production = uni07E6;
lastChange = "2019-09-06 15:22:42 +0000";
layers = (
{
anchors = (
{
name = Anchor2;
position = "{263, 795}";
},
{
name = Anchor4;
position = "{253, -49}";
},
{
name = Anchor6;
position = "{260, -49}";
}
);
layerId = UUID0;
paths = (
{
closed = 1;
nodes = (
"393 200 OFFCURVE",
"453 272 OFFCURVE",
"453 363 CURVE SMOOTH",
"453 458 OFFCURVE",
"393 526 OFFCURVE",
"260 526 CURVE SMOOTH",
"132 526 OFFCURVE",
"68 459 OFFCURVE",
"68 364 CURVE SMOOTH",
"68 271 OFFCURVE",
"127 200 OFFCURVE",
"264 200 CURVE SMOOTH"
);
},
{
closed = 1;
nodes = (
"305 0 LINE",
"305 252 LINE",
"216 252 LINE",
"216 0 LINE"
);
},
{
closed = 1;
nodes = (
"191 278 OFFCURVE",
"158 313 OFFCURVE",
"158 363 CURVE SMOOTH",
"158 413 OFFCURVE",
"192 448 OFFCURVE",
"260 448 CURVE SMOOTH",
"326 448 OFFCURVE",
"363 416 OFFCURVE",
"363 363 CURVE SMOOTH",
"363 310 OFFCURVE",
"327 278 OFFCURVE",
"262 278 CURVE SMOOTH"
);
},
{
closed = 1;
nodes = (
"305 468 LINE",
"305 714 LINE",
"216 714 LINE",
"216 468 LINE"
);
}
);
width = 521;
}
);
unicode = 07E6;
script = nko;
category = Letter;
subCategory = Other;
},
{
glyphname = uni07E7;
production = uni07E7;
lastChange = "2019-09-06 15:22:42 +0000";
layers = (
{
anchors = (
{
name = Anchor2;
position = "{263, 795}";
},
{
name = Anchor4;
position = "{263, -49}";
},
{
name = Anchor6;
position = "{264, -49}";
}
);
layerId = UUID0;
paths = (
{
closed = 1;
nodes = (
"397 200 OFFCURVE",
"457 272 OFFCURVE",
"457 363 CURVE SMOOTH",
"457 458 OFFCURVE",
"397 526 OFFCURVE",
"264 526 CURVE SMOOTH",
"136 526 OFFCURVE",
"72 459 OFFCURVE",
"72 364 CURVE SMOOTH",
"72 271 OFFCURVE",
"131 200 OFFCURVE",
"268 200 CURVE SMOOTH"
);
},
{
closed = 1;
nodes = (
"309 0 LINE",
"309 252 LINE",
"220 252 LINE",
"220 0 LINE"
);
},
{
closed = 1;
nodes = (
"195 278 OFFCURVE",
"162 313 OFFCURVE",
"162 363 CURVE SMOOTH",
"162 413 OFFCURVE",
"196 448 OFFCURVE",
"264 448 CURVE SMOOTH",
"330 448 OFFCURVE",
"367 416 OFFCURVE",
"367 363 CURVE SMOOTH",
"367 310 OFFCURVE",
"331 278 OFFCURVE",
"266 278 CURVE SMOOTH"
);
},
{
closed = 1;
nodes = (
"309 468 LINE",
"309 714 LINE",
"220 714 LINE",
"220 468 LINE"
);
},
{
closed = 1;
nodes = (
"480 636 LINE",
"480 714 LINE",
"49 714 LINE",
"49 636 LINE"
);
}
);
width = 529;
}
);
unicode = 07E7;
script = nko;
category = Letter;
subCategory = Other;
},
{
glyphname = uni07E8;
production = uni07E8;
lastChange = "2019-09-06 15:22:42 +0000";
layers = (
{
anchors = (
{
name = Anchor2;
position = "{292, 454}";
},
{
name = Anchor4;
position = "{214, -303}";
},
{
name = Anchor6;
position = "{280, -49}";
}
);
layerId = UUID0;
paths = (
{
closed = 1;
nodes = (
"305 -272 OFFCURVE",
"396 -197 OFFCURVE",
"432 -44 CURVE",
"366 -44 LINE",
"346 -110 OFFCURVE",
"284 -195 OFFCURVE",
"210 -195 CURVE SMOOTH",
"200 -195 OFFCURVE",
"193 -194 OFFCURVE",
"187 -192 CURVE",
"218 -132 OFFCURVE",
"268 -44 OFFCURVE",
"283 -13 CURVE SMOOTH",
"342 109 OFFCURVE",
"387 192 OFFCURVE",
"422 280 CURVE",
"330 280 LINE",
"298 204 OFFCURVE",
"241 87 OFFCURVE",
"194 -5 CURVE SMOOTH",
"158 -76 OFFCURVE",
"86 -195 OFFCURVE",
"86 -212 CURVE SMOOTH",
"86 -242 OFFCURVE",
"122 -272 OFFCURVE",
"189 -272 CURVE SMOOTH"
);
},
{
closed = 1;
nodes = (
"273 0 LINE",
"273 78 LINE",
"49 78 LINE",
"49 0 LINE"
);
}
);
width = 453;
}
);
unicode = 07E8;
script = nko;
category = Letter;
subCategory = Other;
},
{
glyphname = uni07E9;
production = uni07E9;
lastChange = "2019-09-06 15:22:42 +0000";
layers = (
{
anchors = (
{
name = Anchor2;
position = "{292, 454}";
},
{
name = Anchor4;
position = "{214, -303}";
},
{
name = Anchor6;
position = "{275, -49}";
}
);
layerId = UUID0;
paths = (
{
closed = 1;
nodes = (
"321 -272 OFFCURVE",
"415 -175 OFFCURVE",
"415 -103 CURVE SMOOTH",
"415 -32 OFFCURVE",
"350 -14 OFFCURVE",
"300 -14 CURVE SMOOTH",
"282 -14 LINE",
"334 88 OFFCURVE",
"387 192 OFFCURVE",
"422 280 CURVE",
"330 280 LINE",
"318 244 OFFCURVE",
"254 109 OFFCURVE",
"194 -5 CURVE SMOOTH",
"139 -110 OFFCURVE",
"86 -194 OFFCURVE",
"86 -212 CURVE SMOOTH",
"86 -247 OFFCURVE",
"129 -272 OFFCURVE",
"195 -272 CURVE SMOOTH"
);
},
{
closed = 1;
nodes = (
"203 -195 OFFCURVE",
"193 -194 OFFCURVE",
"187 -192 CURVE",
"207 -155 OFFCURVE",
"228 -118 OFFCURVE",
"247 -81 CURVE",
"273 -81 LINE SMOOTH",
"306 -81 OFFCURVE",
"326 -85 OFFCURVE",
"326 -112 CURVE SMOOTH",
"326 -156 OFFCURVE",
"262 -195 OFFCURVE",
"210 -195 CURVE SMOOTH"
);
},
{
closed = 1;
nodes = (
"273 0 LINE",
"273 78 LINE",
"49 78 LINE",
"49 0 LINE"
);
}
);
width = 453;
}
);
unicode = 07E9;
script = nko;
category = Letter;
subCategory = Other;
},
{
glyphname = uni07EA;
production = uni07EA;
lastChange = "2019-09-06 15:22:42 +0000";
layers = (
{
anchors = (
{
name = Anchor2;
position = "{195, 454}";
},
{
name = Anchor4;
position = "{195, -303}";
},
{
name = Anchor6;
position = "{195, -49}";
}
);
layerId = UUID0;
paths = (
{
closed = 1;
nodes = (
"240 -272 LINE",
"240 324 LINE",
"151 324 LINE",
"151 -272 LINE"
);
},
{
closed = 1;
nodes = (
"352 0 LINE",
"352 78 LINE",
"39 78 LINE",
"39 0 LINE"
);
}
);
width = 391;
}
);
unicode = 07EA;
script = nko;
category = Letter;
subCategory = Other;
},
{
glyphname = uni07EB;
production = uni07EB;
lastChange = "2019-09-06 15:22:35 +0000";
layers = (
{
anchors = (
{
name = _Anchor2;
position = "{0, 795}";
}
);
layerId = UUID0;
paths = (
{
closed = 1;
nodes = (
"191 812 LINE",
"191 883 LINE",
"-191 883 LINE",
"-191 812 LINE"
);
}
);
width = 0;
}
);
unicode = 07EB;
script = nko;
category = Mark;
subCategory = Nonspacing;
},
{
glyphname = uni07EC;
production = uni07EC;
lastChange = "2019-09-06 15:22:35 +0000";
layers = (
{
anchors = (
{
name = _Anchor2;
position = "{0, 795}";
}
);
layerId = UUID0;
paths = (
{
closed = 1;
nodes = (
"-118 862 OFFCURVE",
"-94 884 OFFCURVE",
"-77 884 CURVE SMOOTH",
"-63 884 OFFCURVE",
"-54 877 OFFCURVE",
"-45 870 CURVE SMOOTH",
"6 829 LINE SMOOTH",
"32 808 OFFCURVE",
"46 801 OFFCURVE",
"76 801 CURVE SMOOTH",
"118 801 OFFCURVE",
"151 831 OFFCURVE",
"186 867 CURVE SMOOTH",
"199 880 OFFCURVE",
"214 895 OFFCURVE",
"227 908 CURVE",
"176 958 LINE",
"118 896 OFFCURVE",
"94 874 OFFCURVE",
"77 874 CURVE SMOOTH",
"64 874 OFFCURVE",
"55 881 OFFCURVE",
"46 888 CURVE SMOOTH",
"-5 929 LINE SMOOTH",
"-31 950 OFFCURVE",
"-45 957 OFFCURVE",
"-75 957 CURVE SMOOTH",
"-114 957 OFFCURVE",
"-147 930 OFFCURVE",
"-177 899 CURVE SMOOTH",
"-194 882 OFFCURVE",
"-211 865 OFFCURVE",
"-227 850 CURVE",
"-176 800 LINE"
);
}
);
width = 0;
}
);
unicode = 07EC;
script = nko;
category = Mark;
subCategory = Nonspacing;
},
{
glyphname = uni07ED;
production = uni07ED;
lastChange = "2019-09-06 15:22:35 +0000";
layers = (
{
anchors = (
{
name = _Anchor2;
position = "{0, 795}";
}
);
layerId = UUID0;
paths = (
{
closed = 1;
nodes = (
"30 804 OFFCURVE",
"56 822 OFFCURVE",
"56 864 CURVE SMOOTH",
"56 906 OFFCURVE",
"30 924 OFFCURVE",
"0 924 CURVE SMOOTH",
"-31 924 OFFCURVE",
"-56 906 OFFCURVE",
"-56 864 CURVE SMOOTH",
"-56 822 OFFCURVE",
"-31 804 OFFCURVE",
"0 804 CURVE SMOOTH"
);
}
);
width = 0;
}
);
unicode = 07ED;
script = nko;
category = Mark;
subCategory = Nonspacing;
},
{
glyphname = uni07EE;
production = uni07EE;
lastChange = "2019-09-06 15:22:35 +0000";
layers = (
{
anchors = (
{
name = _Anchor2;
position = "{0, 795}";
}
);
layerId = UUID0;
paths = (
{
closed = 1;
nodes = (
"-109 800 LINE",
"-74 833 OFFCURVE",
"-37 884 OFFCURVE",
"-2 946 CURVE",
"37 884 OFFCURVE",
"73 831 OFFCURVE",
"107 800 CURVE",
"169 800 LINE",
"169 811 LINE",
"130 873 OFFCURVE",
"69 972 OFFCURVE",
"44 1039 CURVE",
"-46 1039 LINE",
"-74 972 OFFCURVE",
"-127 874 OFFCURVE",
"-169 811 CURVE",
"-169 800 LINE"
);
}
);
width = 0;
}
);
unicode = 07EE;
script = nko;
category = Mark;
subCategory = Nonspacing;
},
{
glyphname = uni07EF;
production = uni07EF;
lastChange = "2019-09-06 15:22:35 +0000";
layers = (
{
anchors = (
{
name = _Anchor2;
position = "{0, 795}";
}
);
layerId = UUID0;
paths = (
{
closed = 1;
nodes = (
"191 806 LINE",
"215 864 LINE",
"58 1059 LINE",
"5 1014 LINE",
"62 943 LINE SMOOTH",
"78 923 OFFCURVE",
"102 895 OFFCURVE",
"119 877 CURVE",
"-191 877 LINE",
"-191 806 LINE"
);
}
);
width = 0;
}
);
unicode = 07EF;
script = nko;
category = Mark;
subCategory = Nonspacing;
},
{
glyphname = uni07F0;
production = uni07F0;
lastChange = "2019-09-06 15:22:35 +0000";
layers = (
{
anchors = (
{
name = _Anchor2;
position = "{0, 795}";
}
);
layerId = UUID0;
paths = (
{
closed = 1;
nodes = (
"227 850 LINE",
"176 897 OFFCURVE",
"135 957 OFFCURVE",
"75 957 CURVE SMOOTH",
"45 957 OFFCURVE",
"31 950 OFFCURVE",
"5 929 CURVE SMOOTH",
"-46 888 LINE SMOOTH",
"-55 881 OFFCURVE",
"-64 874 OFFCURVE",
"-77 874 CURVE SMOOTH",
"-94 874 OFFCURVE",
"-118 896 OFFCURVE",
"-176 958 CURVE",
"-227 908 LINE",
"-176 861 OFFCURVE",
"-135 801 OFFCURVE",
"-76 801 CURVE SMOOTH",
"-46 801 OFFCURVE",
"-32 808 OFFCURVE",
"-6 829 CURVE SMOOTH",
"45 870 LINE SMOOTH",
"54 877 OFFCURVE",
"63 884 OFFCURVE",
"77 884 CURVE SMOOTH",
"94 884 OFFCURVE",
"118 862 OFFCURVE",
"176 800 CURVE"
);
}
);
width = 0;
}
);
unicode = 07F0;
script = nko;
category = Mark;
subCategory = Nonspacing;
},
{
glyphname = uni07F1;
production = uni07F1;
lastChange = "2019-09-06 15:22:35 +0000";
layers = (
{
anchors = (
{
name = _Anchor2;
position = "{0, 795}";
}
);
layerId = UUID0;
paths = (
{
closed = 1;
nodes = (
"191 806 LINE",
"191 877 LINE",
"-119 877 LINE",
"-102 895 OFFCURVE",
"-78 923 OFFCURVE",
"-62 943 CURVE SMOOTH",
"-5 1014 LINE",
"-58 1059 LINE",
"-215 864 LINE",
"-191 806 LINE"
);
}
);
width = 0;
}
);
unicode = 07F1;
script = nko;
category = Mark;
subCategory = Nonspacing;
},
{
glyphname = uni07F2;
production = uni07F2;
lastChange = "2019-09-06 15:22:29 +0000";
layers = (
{
anchors = (
{
name = _Anchor4;
position = "{0, -49}";
}
);
layerId = UUID0;
paths = (
{
closed = 1;
nodes = (
"30 -184 OFFCURVE",
"56 -166 OFFCURVE",
"56 -124 CURVE SMOOTH",
"56 -82 OFFCURVE",
"30 -64 OFFCURVE",
"0 -64 CURVE SMOOTH",
"-31 -64 OFFCURVE",
"-56 -82 OFFCURVE",
"-56 -124 CURVE SMOOTH",
"-56 -166 OFFCURVE",
"-31 -184 OFFCURVE",
"0 -184 CURVE SMOOTH"
);
}
);
width = 0;
}
);
unicode = 07F2;
script = nko;
category = Mark;
subCategory = Nonspacing;
},
{
glyphname = uni07F3;
production = uni07F3;
lastChange = "2019-09-06 15:22:35 +0000";
layers = (
{
anchors = (
{
name = _Anchor2;
position = "{0, 795}";
}
);
layerId = UUID0;
paths = (
{
closed = 1;
nodes = (
"154 804 OFFCURVE",
"180 822 OFFCURVE",
"180 864 CURVE SMOOTH",
"180 906 OFFCURVE",
"154 924 OFFCURVE",
"124 924 CURVE SMOOTH",
"93 924 OFFCURVE",
"68 906 OFFCURVE",
"68 864 CURVE SMOOTH",
"68 822 OFFCURVE",
"93 804 OFFCURVE",
"124 804 CURVE SMOOTH"
);
},
{
closed = 1;
nodes = (
"-93 804 OFFCURVE",
"-67 822 OFFCURVE",
"-67 864 CURVE SMOOTH",
"-67 906 OFFCURVE",
"-93 924 OFFCURVE",
"-123 924 CURVE SMOOTH",
"-154 924 OFFCURVE",
"-179 906 OFFCURVE",
"-179 864 CURVE SMOOTH",
"-179 822 OFFCURVE",
"-154 804 OFFCURVE",
"-123 804 CURVE SMOOTH"
);
}
);
width = 0;
}
);
unicode = 07F3;
script = nko;
category = Mark;
subCategory = Nonspacing;
},
{
glyphname = uni07F4;
production = uni07F4;
lastChange = "2019-09-06 15:18:40 +0000";
layers = (
{
layerId = UUID0;
paths = (
{
closed = 1;
nodes = (
"134 669 LINE",
"122 568 OFFCURVE",
"110 467 OFFCURVE",
"98 366 CURVE",
"133 366 LINE",
"170 461 OFFCURVE",
"205 555 OFFCURVE",
"241 648 CURVE",
"231 661 OFFCURVE",
"213 669 OFFCURVE",
"193 669 CURVE SMOOTH"
);
}
);
width = 338;
}
);
unicode = 07F4;
script = nko;
category = Letter;
subCategory = Modifier;
},
{
glyphname = uni07F5;
production = uni07F5;
lastChange = "2019-09-06 15:18:40 +0000";
layers = (
{
layerId = UUID0;
paths = (
{
closed = 1;
nodes = (
"205 366 LINE",
"217 467 OFFCURVE",
"229 568 OFFCURVE",
"241 669 CURVE",
"206 669 LINE",
"169 574 OFFCURVE",
"133 480 OFFCURVE",
"98 387 CURVE",
"108 374 OFFCURVE",
"126 366 OFFCURVE",
"146 366 CURVE SMOOTH"
);
}
);
width = 338;
}
);
unicode = 07F5;
script = nko;
category = Letter;
subCategory = Modifier;
},
{
glyphname = uni07F6;
production = uni07F6;
lastChange = "2019-09-06 15:18:40 +0000";
layers = (
{
layerId = UUID0;
paths = (
{
closed = 1;
nodes = (
"504 0 LINE",
"504 78 LINE",
"200 78 LINE",
"271 140 OFFCURVE",
"342 202 OFFCURVE",
"402 280 CURVE SMOOTH",
"460 355 OFFCURVE",
"504 438 OFFCURVE",
"504 531 CURVE SMOOTH",
"504 639 OFFCURVE",
"442 714 OFFCURVE",
"307 714 CURVE SMOOTH",
"177 714 OFFCURVE",
"97 640 OFFCURVE",
"97 538 CURVE SMOOTH",
"97 424 OFFCURVE",
"180 362 OFFCURVE",
"305 362 CURVE SMOOTH",
"322 362 OFFCURVE",
"344 366 OFFCURVE",
"356 370 CURVE",
"287 255 OFFCURVE",
"167 144 OFFCURVE",
"39 44 CURVE",
"39 0 LINE"
);
},
{
closed = 1;
nodes = (
"221 438 OFFCURVE",
"187 484 OFFCURVE",
"187 538 CURVE SMOOTH",
"187 591 OFFCURVE",
"226 636 OFFCURVE",
"300 636 CURVE SMOOTH",
"375 636 OFFCURVE",
"414 595 OFFCURVE",
"414 542 CURVE SMOOTH",
"414 486 OFFCURVE",
"384 438 OFFCURVE",
"303 438 CURVE SMOOTH"
);
}
);
width = 554;
}
);
unicode = 07F6;
script = nko;
category = Letter;
subCategory = Other;
},
{
glyphname = uni07F7;
production = uni07F7;
lastChange = "2019-09-06 15:18:40 +0000";
layers = (
{
layerId = UUID0;
paths = (
{
closed = 1;
nodes = (
"361 -42 OFFCURVE",
"431 -16 OFFCURVE",
"473 41 CURVE",
"513 -16 OFFCURVE",
"581 -42 OFFCURVE",
"669 -42 CURVE SMOOTH",
"816 -42 OFFCURVE",
"900 48 OFFCURVE",
"900 183 CURVE SMOOTH",
"900 335 OFFCURVE",
"787 400 OFFCURVE",
"670 400 CURVE",
"692 425 OFFCURVE",
"710 468 OFFCURVE",
"710 519 CURVE SMOOTH",
"710 653 OFFCURVE",
"623 735 OFFCURVE",
"470 735 CURVE SMOOTH",
"354 735 OFFCURVE",
"236 666 OFFCURVE",
"236 525 CURVE SMOOTH",
"236 459 OFFCURVE",
"258 422 OFFCURVE",
"278 400 CURVE",
"150 400 OFFCURVE",
"50 317 OFFCURVE",
"50 183 CURVE SMOOTH",
"50 24 OFFCURVE",
"158 -42 OFFCURVE",
"284 -42 CURVE SMOOTH"
);
},
{
closed = 1;
nodes = (
"320 113 OFFCURVE",
"349 133 OFFCURVE",
"349 181 CURVE SMOOTH",
"349 230 OFFCURVE",
"320 248 OFFCURVE",
"286 248 CURVE SMOOTH",
"252 248 OFFCURVE",
"225 230 OFFCURVE",
"225 181 CURVE SMOOTH",
"225 133 OFFCURVE",
"252 113 OFFCURVE",
"286 113 CURVE SMOOTH"
);
},
{
closed = 1;
nodes = (
"203 32 OFFCURVE",
"138 76 OFFCURVE",
"138 182 CURVE SMOOTH",
"138 289 OFFCURVE",
"203 329 OFFCURVE",
"285 329 CURVE SMOOTH",
"304 329 OFFCURVE",
"330 328 OFFCURVE",
"356 316 CURVE",
"399 378 LINE",
"348 407 OFFCURVE",
"324 454 OFFCURVE",
"324 514 CURVE SMOOTH",
"324 621 OFFCURVE",
"389 661 OFFCURVE",
"471 661 CURVE SMOOTH",
"553 661 OFFCURVE",
"622 621 OFFCURVE",
"622 514 CURVE SMOOTH",
"622 455 OFFCURVE",
"602 412 OFFCURVE",
"551 382 CURVE",
"596 319 LINE",
"615 326 OFFCURVE",
"637 329 OFFCURVE",
"661 329 CURVE SMOOTH",
"743 329 OFFCURVE",
"812 289 OFFCURVE",
"812 182 CURVE SMOOTH",
"812 76 OFFCURVE",
"743 32 OFFCURVE",
"661 32 CURVE SMOOTH",
"581 32 OFFCURVE",
"514 74 OFFCURVE",
"514 185 CURVE",
"436 185 LINE",
"436 74 OFFCURVE",
"365 32 OFFCURVE",
"285 32 CURVE SMOOTH"
);
},
{
closed = 1;
nodes = (
"696 113 OFFCURVE",
"725 133 OFFCURVE",
"725 181 CURVE SMOOTH",
"725 230 OFFCURVE",
"696 248 OFFCURVE",
"662 248 CURVE SMOOTH",
"628 248 OFFCURVE",
"601 230 OFFCURVE",
"601 181 CURVE SMOOTH",
"601 133 OFFCURVE",
"628 113 OFFCURVE",
"662 113 CURVE SMOOTH"
);
},
{
closed = 1;
nodes = (
"506 445 OFFCURVE",
"535 465 OFFCURVE",
"535 513 CURVE SMOOTH",
"535 562 OFFCURVE",
"506 580 OFFCURVE",
"472 580 CURVE SMOOTH",
"438 580 OFFCURVE",
"411 562 OFFCURVE",
"411 513 CURVE SMOOTH",
"411 465 OFFCURVE",
"438 445 OFFCURVE",
"472 445 CURVE SMOOTH"
);
}
);
width = 950;
}
);
unicode = 07F7;
script = nko;
category = Letter;
subCategory = Other;
},
{
glyphname = uni07F8;
production = uni07F8;
lastChange = "2019-09-06 15:18:40 +0000";
layers = (
{
layerId = UUID0;
paths = (
{
closed = 1;
nodes = (
"431 0 LINE",
"431 78 LINE",
"50 78 LINE",
"50 0 LINE"
);
},
{
closed = 1;
nodes = (
"273 359 OFFCURVE",
"302 379 OFFCURVE",
"302 427 CURVE SMOOTH",
"302 476 OFFCURVE",
"273 494 OFFCURVE",
"239 494 CURVE SMOOTH",
"205 494 OFFCURVE",
"178 476 OFFCURVE",
"178 427 CURVE SMOOTH",
"178 379 OFFCURVE",
"205 359 OFFCURVE",
"239 359 CURVE SMOOTH"
);
}
);
width = 481;
}
);
unicode = 07F8;
script = nko;
category = Letter;
subCategory = Other;
},
{
glyphname = uni07F9;
production = uni07F9;
lastChange = "2019-09-06 15:18:40 +0000";
layers = (
{
layerId = UUID0;
paths = (
{
closed = 1;
nodes = (
"431 520 LINE",
"431 598 LINE",
"50 598 LINE",
"50 520 LINE"
);
},
{
closed = 1;
nodes = (
"273 -10 OFFCURVE",
"302 10 OFFCURVE",
"302 58 CURVE SMOOTH",
"302 107 OFFCURVE",
"273 125 OFFCURVE",
"239 125 CURVE SMOOTH",
"205 125 OFFCURVE",
"178 107 OFFCURVE",
"178 58 CURVE SMOOTH",
"178 10 OFFCURVE",
"205 -10 OFFCURVE",
"239 -10 CURVE SMOOTH"
);
},
{
closed = 1;
nodes = (
"273 238 OFFCURVE",
"302 258 OFFCURVE",
"302 306 CURVE SMOOTH",
"302 355 OFFCURVE",
"273 373 OFFCURVE",
"239 373 CURVE SMOOTH",
"205 373 OFFCURVE",
"178 355 OFFCURVE",
"178 306 CURVE SMOOTH",
"178 258 OFFCURVE",
"205 238 OFFCURVE",
"239 238 CURVE SMOOTH"
);
}
);
width = 481;
}
);
unicode = 07F9;
script = nko;
category = Letter;
subCategory = Other;
},
{
glyphname = uni07FA;
production = uni07FA;
lastChange = "2019-09-06 15:18:40 +0000";
layers = (
{
layerId = UUID0;
paths = (
{
closed = 1;
nodes = (
"451 0 LINE",
"451 78 LINE",
"-34 78 LINE",
"-34 0 LINE"
);
}
);
width = 417;
}
);
unicode = 07FA;
script = nko;
category = Letter;
subCategory = Modifier;
},
{
glyphname = uni07CA.fina;
production = uni07CA.fina;
lastChange = "2019-09-06 15:22:42 +0000";
layers = (
{
anchors = (
{
name = Anchor2;
position = "{136, 795}";
},
{
name = Anchor4;
position = "{195, -49}";
},
{
name = Anchor6;
position = "{133, -49}";
}
);
layerId = UUID0;
paths = (
{
closed = 1;
nodes = (
"177 0 LINE",
"177 714 LINE",
"88 714 LINE",
"88 0 LINE"
);
},
{
closed = 1;
nodes = (
"299 0 LINE",
"299 78 LINE",
"139 78 LINE",
"139 0 LINE"
);
}
);
width = 265;
}
);
script = nko;
category = Letter;
subCategory = Other;
},
{
glyphname = uni07CA.medi;
production = uni07CA.medi;
lastChange = "2019-09-06 15:22:42 +0000";
layers = (
{
anchors = (
{
name = Anchor2;
position = "{136, 795}";
},
{
name = Anchor4;
position = "{136, -49}";
},
{
name = Anchor6;
position = "{162, -49}";
}
);
layerId = UUID0;
paths = (
{
closed = 1;
nodes = (
"177 78 LINE",
"177 714 LINE",
"88 714 LINE",
"88 15 LINE"
);
},
{
closed = 1;
nodes = (
"55 0 LINE SMOOTH",
"124 0 OFFCURVE",
"177 36 OFFCURVE",
"177 117 CURVE",
"171 117 LINE",
"156 98 OFFCURVE",
"142 78 OFFCURVE",
"100 78 CURVE SMOOTH",
"-34 78 LINE",
"-34 16 LINE",
"-23 8 OFFCURVE",
"3 0 OFFCURVE",
"15 0 CURVE SMOOTH"
);
},
{
closed = 1;
nodes = (
"299 0 LINE",
"299 78 LINE",
"280 78 LINE SMOOTH",
"229 78 OFFCURVE",
"194 97 OFFCURVE",
"177 135 CURVE",
"159 62 LINE",
"190 21 OFFCURVE",
"212 0 OFFCURVE",
"265 0 CURVE SMOOTH"
);
}
);
width = 265;
}
);
script = nko;
category = Letter;
subCategory = Other;
},
{
glyphname = uni07CA.init;
production = uni07CA.init;
lastChange = "2019-09-06 15:22:42 +0000";
layers = (
{
anchors = (
{
name = Anchor2;
position = "{136, 795}";
},
{
name = Anchor4;
position = "{78, -49}";
}
);
layerId = UUID0;
paths = (
{
closed = 1;
nodes = (
"177 117 LINE",
"177 714 LINE",
"88 714 LINE",
"88 15 LINE"
);
},
{
closed = 1;
nodes = (
"55 0 LINE SMOOTH",
"124 0 OFFCURVE",
"177 36 OFFCURVE",
"177 117 CURVE",
"171 117 LINE",
"156 98 OFFCURVE",
"142 78 OFFCURVE",
"100 78 CURVE SMOOTH",
"-34 78 LINE",
"-34 16 LINE",
"-23 8 OFFCURVE",
"3 0 OFFCURVE",
"15 0 CURVE SMOOTH"
);
}
);
width = 265;
}
);
script = nko;
category = Letter;
subCategory = Other;
},
{
glyphname = uni07CB.fina;
production = uni07CB.fina;
lastChange = "2019-09-06 15:22:42 +0000";
layers = (
{
anchors = (
{
name = Anchor2;
position = "{332, 649}";
},
{
name = Anchor4;
position = "{332, -49}";
},
{
name = Anchor6;
position = "{330, -49}";
}
);
layerId = UUID0;
paths = (
{
closed = 1;
nodes = (
"481 0 OFFCURVE",
"591 113 OFFCURVE",
"591 275 CURVE SMOOTH",
"591 420 OFFCURVE",
"492 534 OFFCURVE",
"332 534 CURVE SMOOTH",
"186 534 OFFCURVE",
"69 425 OFFCURVE",
"69 268 CURVE SMOOTH",
"69 103 OFFCURVE",
"175 0 OFFCURVE",
"329 0 CURVE SMOOTH"
);
},
{
closed = 1;
nodes = (
"209 78 OFFCURVE",
"160 174 OFFCURVE",
"160 263 CURVE SMOOTH",
"160 379 OFFCURVE",
"231 457 OFFCURVE",
"330 457 CURVE SMOOTH",
"438 457 OFFCURVE",
"500 379 OFFCURVE",
"500 269 CURVE SMOOTH",
"500 163 OFFCURVE",
"436 78 OFFCURVE",
"331 78 CURVE SMOOTH"
);
},
{
closed = 1;
nodes = (
"694 0 LINE",
"694 78 LINE",
"621 78 LINE SMOOTH",
"570 78 OFFCURVE",
"535 97 OFFCURVE",
"518 135 CURVE",
"500 63 LINE",
"537 21 OFFCURVE",
"562 0 OFFCURVE",
"625 0 CURVE SMOOTH"
);
}
);
width = 660;
}
);
script = nko;
category = Letter;
subCategory = Other;
},
{
glyphname = uni07CB.medi;
production = uni07CB.medi;
lastChange = "2019-09-06 15:22:42 +0000";
layers = (
{
anchors = (
{
name = Anchor2;
position = "{332, 649}";
},
{
name = Anchor4;
position = "{332, -49}";
},
{
name = Anchor6;
position = "{330, -49}";
}
);
layerId = UUID0;
paths = (
{
closed = 1;
nodes = (
"481 0 OFFCURVE",
"591 113 OFFCURVE",
"591 275 CURVE SMOOTH",
"591 420 OFFCURVE",
"492 534 OFFCURVE",
"332 534 CURVE SMOOTH",
"186 534 OFFCURVE",
"69 425 OFFCURVE",
"69 268 CURVE SMOOTH",
"69 103 OFFCURVE",
"175 0 OFFCURVE",
"329 0 CURVE SMOOTH"
);
},
{
closed = 1;
nodes = (
"329 0 LINE",
"283 78 LINE",
"-34 78 LINE",
"-34 16 LINE",
"-23 8 OFFCURVE",
"3 0 OFFCURVE",
"15 0 CURVE SMOOTH"
);
},
{
closed = 1;
nodes = (
"209 78 OFFCURVE",
"160 174 OFFCURVE",
"160 263 CURVE SMOOTH",
"160 379 OFFCURVE",
"231 457 OFFCURVE",
"330 457 CURVE SMOOTH",
"438 457 OFFCURVE",
"500 379 OFFCURVE",
"500 269 CURVE SMOOTH",
"500 163 OFFCURVE",
"436 78 OFFCURVE",
"331 78 CURVE SMOOTH"
);
},
{
closed = 1;
nodes = (
"694 0 LINE",
"694 78 LINE",
"621 78 LINE SMOOTH",
"570 78 OFFCURVE",
"535 97 OFFCURVE",
"518 135 CURVE",
"500 63 LINE",
"537 21 OFFCURVE",
"562 0 OFFCURVE",
"625 0 CURVE SMOOTH"
);
}
);
width = 660;
}
);
script = nko;
category = Letter;
subCategory = Other;
},
{
glyphname = uni07CB.init;
production = uni07CB.init;
lastChange = "2019-09-06 15:22:42 +0000";
layers = (
{
anchors = (
{
name = Anchor2;
position = "{332, 649}";
},
{
name = Anchor4;
position = "{332, -49}";
}
);
layerId = UUID0;
paths = (
{
closed = 1;
nodes = (
"481 0 OFFCURVE",
"591 113 OFFCURVE",
"591 275 CURVE SMOOTH",
"591 420 OFFCURVE",
"492 534 OFFCURVE",
"332 534 CURVE SMOOTH",
"186 534 OFFCURVE",
"69 425 OFFCURVE",
"69 268 CURVE SMOOTH",
"69 103 OFFCURVE",
"175 0 OFFCURVE",
"329 0 CURVE SMOOTH"
);
},
{
closed = 1;
nodes = (
"329 0 LINE",
"283 78 LINE",
"-34 78 LINE",
"-34 16 LINE",
"-23 8 OFFCURVE",
"3 0 OFFCURVE",
"15 0 CURVE SMOOTH"
);
},
{
closed = 1;
nodes = (
"209 78 OFFCURVE",
"160 174 OFFCURVE",
"160 263 CURVE SMOOTH",
"160 379 OFFCURVE",
"231 457 OFFCURVE",
"330 457 CURVE SMOOTH",
"438 457 OFFCURVE",
"500 379 OFFCURVE",
"500 269 CURVE SMOOTH",
"500 163 OFFCURVE",
"436 78 OFFCURVE",
"331 78 CURVE SMOOTH"
);
}
);
width = 660;
}
);
script = nko;
category = Letter;
subCategory = Other;
},
{
glyphname = uni07CC.fina;
production = uni07CC.fina;
lastChange = "2019-09-06 15:22:42 +0000";
layers = (
{
anchors = (
{
name = Anchor2;
position = "{214, 795}";
},
{
name = Anchor4;
position = "{332, -49}";
},
{
name = Anchor6;
position = "{219, -49}";
}
);
layerId = UUID0;
paths = (
{
closed = 1;
nodes = (
"263 350 LINE",
"433 714 LINE",
"345 714 LINE",
"257 524 LINE SMOOTH",
"244 496 OFFCURVE",
"229 461 OFFCURVE",
"218 431 CURVE",
"207 461 OFFCURVE",
"191 498 OFFCURVE",
"178 527 CURVE SMOOTH",
"92 714 LINE",
"4 714 LINE",
"174 350 LINE"
);
},
{
closed = 1;
nodes = (
"471 0 LINE",
"471 78 LINE",
"190 78 LINE",
"190 0 LINE"
);
},
{
closed = 1;
nodes = (
"263 0 LINE",
"263 414 LINE",
"174 414 LINE",
"174 0 LINE"
);
}
);
width = 437;
}
);
script = nko;
category = Letter;
subCategory = Other;
},
{
glyphname = uni07CC.medi;
production = uni07CC.medi;
lastChange = "2019-09-06 15:22:42 +0000";
layers = (
{
anchors = (
{
name = Anchor2;
position = "{214, 795}";
},
{
name = Anchor4;
position = "{219, -49}";
},
{
name = Anchor6;
position = "{218, -49}";
}
);
layerId = UUID0;
paths = (
{
closed = 1;
nodes = (
"263 350 LINE",
"433 714 LINE",
"345 714 LINE",
"257 524 LINE SMOOTH",
"244 496 OFFCURVE",
"229 461 OFFCURVE",
"218 431 CURVE",
"207 461 OFFCURVE",
"191 498 OFFCURVE",
"178 527 CURVE SMOOTH",
"92 714 LINE",
"4 714 LINE",
"174 350 LINE"
);
},
{
closed = 1;
nodes = (
"141 0 LINE SMOOTH",
"210 0 OFFCURVE",
"263 36 OFFCURVE",
"263 117 CURVE",
"257 117 LINE",
"242 98 OFFCURVE",
"228 78 OFFCURVE",
"186 78 CURVE SMOOTH",
"-34 78 LINE",
"-34 16 LINE",
"-23 8 OFFCURVE",
"3 0 OFFCURVE",
"15 0 CURVE SMOOTH"
);
},
{
closed = 1;
nodes = (
"471 0 LINE",
"471 78 LINE",
"366 78 LINE SMOOTH",
"315 78 OFFCURVE",
"280 97 OFFCURVE",
"263 135 CURVE",
"245 63 LINE",
"282 21 OFFCURVE",
"307 0 OFFCURVE",
"370 0 CURVE SMOOTH"
);
},
{
closed = 1;
nodes = (
"263 62 LINE",
"263 414 LINE",
"174 414 LINE",
"174 62 LINE"
);
}
);
width = 437;
}
);
script = nko;
category = Letter;
subCategory = Other;
},
{
glyphname = uni07CC.init;
production = uni07CC.init;
lastChange = "2019-09-06 15:22:42 +0000";
layers = (
{
anchors = (
{
name = Anchor2;
position = "{214, 795}";
},
{
name = Anchor4;
position = "{219, -49}";
}
);
layerId = UUID0;
paths = (
{
closed = 1;
nodes = (
"263 350 LINE",
"433 714 LINE",
"345 714 LINE",
"257 524 LINE SMOOTH",
"244 496 OFFCURVE",
"229 461 OFFCURVE",
"218 431 CURVE",
"207 461 OFFCURVE",
"191 498 OFFCURVE",
"178 527 CURVE SMOOTH",
"92 714 LINE",
"4 714 LINE",
"174 350 LINE"
);
},
{
closed = 1;
nodes = (
"141 0 LINE SMOOTH",
"210 0 OFFCURVE",
"263 36 OFFCURVE",
"263 117 CURVE",
"257 117 LINE",
"242 98 OFFCURVE",
"228 78 OFFCURVE",
"186 78 CURVE SMOOTH",
"-34 78 LINE",
"-34 16 LINE",
"-23 8 OFFCURVE",
"3 0 OFFCURVE",
"15 0 CURVE SMOOTH"
);
},
{
closed = 1;
nodes = (
"263 117 LINE",
"263 414 LINE",
"174 414 LINE",
"174 32 LINE"
);
}
);
width = 437;
}
);
script = nko;
category = Letter;
subCategory = Other;
},
{
glyphname = uni07CD.fina;
production = uni07CD.fina;
lastChange = "2019-09-06 15:22:42 +0000";
layers = (
{
anchors = (
{
name = Anchor2;
position = "{312, 649}";
},
{
name = Anchor4;
position = "{312, -49}";
},
{
name = Anchor6;
position = "{309, -49}";
}
);
layerId = UUID0;
paths = (
{
closed = 1;
nodes = (
"127 0 LINE",
"245 263 LINE SMOOTH",
"269 316 OFFCURVE",
"289 366 OFFCURVE",
"309 423 CURVE",
"328 369 OFFCURVE",
"347 320 OFFCURVE",
"370 269 CURVE SMOOTH",
"492 0 LINE",
"588 0 LINE",
"354 513 LINE",
"265 513 LINE",
"31 0 LINE"
);
},
{
closed = 1;
nodes = (
"653 0 LINE",
"653 78 LINE",
"523 78 LINE",
"523 0 LINE"
);
}
);
width = 619;
}
);
script = nko;
category = Letter;
subCategory = Other;
},
{
glyphname = uni07CD.medi;
production = uni07CD.medi;
lastChange = "2019-09-06 15:22:42 +0000";
layers = (
{
anchors = (
{
name = Anchor2;
position = "{312, 649}";
},
{
name = Anchor4;
position = "{312, -49}";
},
{
name = Anchor6;
position = "{309, -49}";
}
);
layerId = UUID0;
paths = (
{
closed = 1;
nodes = (
"127 0 LINE",
"245 263 LINE SMOOTH",
"269 316 OFFCURVE",
"289 366 OFFCURVE",
"309 423 CURVE",
"328 369 OFFCURVE",
"347 320 OFFCURVE",
"370 269 CURVE SMOOTH",
"492 0 LINE",
"588 0 LINE",
"354 513 LINE",
"265 513 LINE",
"31 0 LINE"
);
},
{
closed = 1;
nodes = (
"96 0 LINE",
"96 78 LINE",
"-34 78 LINE",
"-34 16 LINE",
"-23 8 OFFCURVE",
"3 0 OFFCURVE",
"15 0 CURVE SMOOTH"
);
},
{
closed = 1;
nodes = (
"653 0 LINE",
"653 78 LINE",
"523 78 LINE",
"523 0 LINE"
);
}
);
width = 619;
}
);
script = nko;
category = Letter;
subCategory = Other;
},
{
glyphname = uni07CD.init;
production = uni07CD.init;
lastChange = "2019-09-06 15:22:42 +0000";
layers = (
{
anchors = (
{
name = Anchor2;
position = "{312, 649}";
},
{
name = Anchor4;
position = "{312, -49}";
},
{
name = Anchor6;
position = "{309, -49}";
}
);
layerId = UUID0;
paths = (
{
closed = 1;
nodes = (
"127 0 LINE",
"245 263 LINE SMOOTH",
"269 316 OFFCURVE",
"289 366 OFFCURVE",
"309 423 CURVE",
"328 369 OFFCURVE",
"347 320 OFFCURVE",
"370 269 CURVE SMOOTH",
"492 0 LINE",
"588 0 LINE",
"354 513 LINE",
"265 513 LINE",
"31 0 LINE"
);
},
{
closed = 1;
nodes = (
"96 0 LINE",
"96 78 LINE",
"-34 78 LINE",
"-34 16 LINE",
"-23 8 OFFCURVE",
"3 0 OFFCURVE",
"15 0 CURVE SMOOTH"
);
}
);
width = 619;
}
);
script = nko;
category = Letter;
subCategory = Other;
},
{
glyphname = uni07CE.fina;
production = uni07CE.fina;
lastChange = "2019-09-06 15:22:42 +0000";
layers = (
{
anchors = (
{
name = Anchor2;
position = "{292, 649}";
},
{
name = Anchor4;
position = "{292, -49}";
},
{
name = Anchor6;
position = "{297, -49}";
}
);
layerId = UUID0;
paths = (
{
closed = 1;
nodes = (
"177 0 LINE",
"177 513 LINE",
"88 513 LINE",
"88 0 LINE"
);
},
{
closed = 1;
nodes = (
"382 0 LINE SMOOTH",
"451 0 OFFCURVE",
"504 36 OFFCURVE",
"504 117 CURVE",
"498 117 LINE",
"483 98 OFFCURVE",
"469 78 OFFCURVE",
"427 78 CURVE SMOOTH",
"159 78 LINE",
"159 0 LINE"
);
},
{
closed = 1;
nodes = (
"626 0 LINE",
"626 78 LINE",
"607 78 LINE SMOOTH",
"556 78 OFFCURVE",
"521 97 OFFCURVE",
"504 135 CURVE",
"486 62 LINE",
"517 21 OFFCURVE",
"539 0 OFFCURVE",
"592 0 CURVE SMOOTH"
);
},
{
closed = 1;
nodes = (
"505 68 LINE",
"505 513 LINE",
"416 513 LINE",
"416 66 LINE"
);
}
);
width = 592;
}
);
script = nko;
category = Letter;
subCategory = Other;
},
{
glyphname = uni07CE.medi;
production = uni07CE.medi;
lastChange = "2019-09-06 15:22:42 +0000";
layers = (
{
anchors = (
{
name = Anchor2;
position = "{292, 649}";
},
{
name = Anchor4;
position = "{292, -49}";
},
{
name = Anchor6;
position = "{297, -49}";
}
);
layerId = UUID0;
paths = (
{
closed = 1;
nodes = (
"177 65 LINE",
"177 513 LINE",
"88 513 LINE",
"88 65 LINE"
);
},
{
closed = 1;
nodes = (
"55 0 LINE SMOOTH",
"124 0 OFFCURVE",
"177 36 OFFCURVE",
"177 117 CURVE",
"171 117 LINE",
"156 98 OFFCURVE",
"142 78 OFFCURVE",
"100 78 CURVE SMOOTH",
"-34 78 LINE",
"-34 16 LINE",
"-23 8 OFFCURVE",
"3 0 OFFCURVE",
"15 0 CURVE SMOOTH"
);
},
{
closed = 1;
nodes = (
"299 0 LINE",
"299 78 LINE",
"280 78 LINE SMOOTH",
"229 78 OFFCURVE",
"194 97 OFFCURVE",
"177 135 CURVE",
"159 62 LINE",
"190 21 OFFCURVE",
"212 0 OFFCURVE",
"265 0 CURVE SMOOTH"
);
},
{
closed = 1;
nodes = (
"382 0 LINE SMOOTH",
"451 0 OFFCURVE",
"504 36 OFFCURVE",
"504 117 CURVE",
"498 117 LINE",
"483 98 OFFCURVE",
"469 78 OFFCURVE",
"427 78 CURVE SMOOTH",
"290 78 LINE",
"290 0 LINE"
);
},
{
closed = 1;
nodes = (
"626 0 LINE",
"626 78 LINE",
"607 78 LINE SMOOTH",
"556 78 OFFCURVE",
"521 97 OFFCURVE",
"504 135 CURVE",
"486 62 LINE",
"517 21 OFFCURVE",
"539 0 OFFCURVE",
"592 0 CURVE SMOOTH"
);
},
{
closed = 1;
nodes = (
"505 68 LINE",
"505 513 LINE",
"416 513 LINE",
"416 66 LINE"
);
}
);
width = 592;
}
);
script = nko;
category = Letter;
subCategory = Other;
},
{
glyphname = uni07CE.init;
production = uni07CE.init;
lastChange = "2019-09-06 15:22:42 +0000";
layers = (
{
anchors = (
{
name = Anchor2;
position = "{297, 649}";
},
{
name = Anchor4;
position = "{297, -49}";
}
);
layerId = UUID0;
paths = (
{
closed = 1;
nodes = (
"505 117 LINE",
"505 513 LINE",
"416 513 LINE",
"416 30 LINE"
);
},
{
closed = 1;
nodes = (
"55 0 LINE",
"124 0 OFFCURVE",
"177 36 OFFCURVE",
"177 117 CURVE",
"171 117 LINE",
"156 98 OFFCURVE",
"142 78 OFFCURVE",
"100 78 CURVE SMOOTH",
"-34 78 LINE",
"-34 16 LINE",
"-23 8 OFFCURVE",
"3 0 OFFCURVE",
"15 0 CURVE SMOOTH"
);
},
{
closed = 1;
nodes = (
"299 0 LINE",
"299 78 LINE",
"280 78 LINE SMOOTH",
"229 78 OFFCURVE",
"194 97 OFFCURVE",
"177 135 CURVE",
"159 62 LINE",
"190 21 OFFCURVE",
"212 0 OFFCURVE",
"265 0 CURVE SMOOTH"
);
},
{
closed = 1;
nodes = (
"177 65 LINE",
"177 513 LINE",
"88 513 LINE",
"88 65 LINE"
);
},
{
closed = 1;
nodes = (
"383 0 LINE SMOOTH",
"452 0 OFFCURVE",
"505 36 OFFCURVE",
"505 117 CURVE",
"499 117 LINE",
"484 98 OFFCURVE",
"470 78 OFFCURVE",
"428 78 CURVE SMOOTH",
"291 78 LINE",
"291 0 LINE"
);
}
);
width = 592;
}
);
script = nko;
category = Letter;
subCategory = Other;
},
{
glyphname = uni07CF.fina;
production = uni07CF.fina;
lastChange = "2019-09-06 15:22:42 +0000";
layers = (
{
anchors = (
{
name = Anchor2;
position = "{244, 649}";
},
{
name = Anchor4;
position = "{244, -49}";
},
{
name = Anchor6;
position = "{266, -49}";
}
);
layerId = UUID0;
paths = (
{
closed = 1;
nodes = (
"341 0 LINE SMOOTH",
"410 0 OFFCURVE",
"463 36 OFFCURVE",
"463 117 CURVE",
"457 117 LINE",
"442 98 OFFCURVE",
"428 78 OFFCURVE",
"386 78 CURVE SMOOTH",
"49 78 LINE",
"49 0 LINE"
);
},
{
closed = 1;
nodes = (
"585 0 LINE",
"585 78 LINE",
"566 78 LINE SMOOTH",
"515 78 OFFCURVE",
"480 97 OFFCURVE",
"463 135 CURVE",
"445 62 LINE",
"476 21 OFFCURVE",
"498 0 OFFCURVE",
"551 0 CURVE SMOOTH"
);
},
{
closed = 1;
nodes = (
"463 78 LINE",
"463 500 LINE",
"374 500 LINE",
"374 31 LINE"
);
},
{
closed = 1;
nodes = (
"463 435 LINE",
"463 513 LINE",
"49 513 LINE",
"49 435 LINE"
);
}
);
width = 551;
}
);
script = nko;
category = Letter;
subCategory = Other;
},
{
glyphname = uni07CF.medi;
production = uni07CF.medi;
lastChange = "2019-09-06 15:22:42 +0000";
layers = (
{
anchors = (
{
name = Anchor2;
position = "{244, 649}";
},
{
name = Anchor4;
position = "{244, -49}";
},
{
name = Anchor6;
position = "{272, -49}";
}
);
layerId = UUID0;
paths = (
{
closed = 1;
nodes = (
"341 0 LINE SMOOTH",
"410 0 OFFCURVE",
"463 36 OFFCURVE",
"463 117 CURVE",
"457 117 LINE",
"442 98 OFFCURVE",
"428 78 OFFCURVE",
"386 78 CURVE SMOOTH",
"-34 78 LINE",
"-34 16 LINE",
"-23 8 OFFCURVE",
"3 0 OFFCURVE",
"15 0 CURVE SMOOTH"
);
},
{
closed = 1;
nodes = (
"585 0 LINE",
"585 78 LINE",
"566 78 LINE SMOOTH",
"515 78 OFFCURVE",
"480 97 OFFCURVE",
"463 135 CURVE",
"445 62 LINE",
"476 21 OFFCURVE",
"498 0 OFFCURVE",
"551 0 CURVE SMOOTH"
);
},
{
closed = 1;
nodes = (
"463 78 LINE",
"463 500 LINE",
"374 500 LINE",
"374 23 LINE"
);
},
{
closed = 1;
nodes = (
"463 435 LINE",
"463 513 LINE",
"49 513 LINE",
"49 435 LINE"
);
}
);
width = 551;
}
);
script = nko;
category = Letter;
subCategory = Other;
},
{
glyphname = uni07CF.init;
production = uni07CF.init;
lastChange = "2019-09-06 15:22:42 +0000";
layers = (
{
anchors = (
{
name = Anchor2;
position = "{239, 649}";
},
{
name = Anchor4;
position = "{239, -49}";
}
);
layerId = UUID0;
paths = (
{
closed = 1;
nodes = (
"341 0 LINE SMOOTH",
"410 0 OFFCURVE",
"463 36 OFFCURVE",
"463 117 CURVE",
"457 117 LINE",
"442 98 OFFCURVE",
"428 78 OFFCURVE",
"386 78 CURVE SMOOTH",
"-34 78 LINE",
"-34 16 LINE",
"-23 8 OFFCURVE",
"3 0 OFFCURVE",
"15 0 CURVE SMOOTH"
);
},
{
closed = 1;
nodes = (
"463 116 LINE",
"463 500 LINE",
"374 500 LINE",
"374 23 LINE"
);
},
{
closed = 1;
nodes = (
"463 435 LINE",
"463 513 LINE",
"49 513 LINE",
"49 435 LINE"
);
}
);
width = 551;
}
);
script = nko;
category = Letter;
subCategory = Other;
},
{
glyphname = uni07D0.fina;
production = uni07D0.fina;
lastChange = "2019-09-06 15:22:42 +0000";
layers = (
{
anchors = (
{
name = Anchor2;
position = "{322, 795}";
},
{
name = Anchor4;
position = "{468, -49}";
},
{
name = Anchor6;
position = "{323, -49}";
}
);
layerId = UUID0;
paths = (
{
closed = 1;
nodes = (
"500 303 OFFCURVE",
"583 394 OFFCURVE",
"583 507 CURVE SMOOTH",
"583 623 OFFCURVE",
"502 714 OFFCURVE",
"324 714 CURVE SMOOTH",
"147 714 OFFCURVE",
"62 623 OFFCURVE",
"62 507 CURVE SMOOTH",
"62 391 OFFCURVE",
"147 303 OFFCURVE",
"327 303 CURVE SMOOTH"
);
},
{
closed = 1;
nodes = (
"367 0 LINE",
"367 362 LINE",
"278 362 LINE",
"278 0 LINE"
);
},
{
closed = 1;
nodes = (
"679 0 LINE",
"679 78 LINE",
"297 78 LINE",
"297 0 LINE"
);
},
{
closed = 1;
nodes = (
"201 381 OFFCURVE",
"151 441 OFFCURVE",
"151 508 CURVE SMOOTH",
"151 586 OFFCURVE",
"217 636 OFFCURVE",
"323 636 CURVE SMOOTH",
"429 636 OFFCURVE",
"494 586 OFFCURVE",
"494 507 CURVE SMOOTH",
"494 433 OFFCURVE",
"429 381 OFFCURVE",
"327 381 CURVE SMOOTH"
);
}
);
width = 645;
}
);
script = nko;
category = Letter;
subCategory = Other;
},
{
glyphname = uni07D0.medi;
production = uni07D0.medi;
lastChange = "2019-09-06 15:22:42 +0000";
layers = (
{
anchors = (
{
name = Anchor2;
position = "{322, 795}";
},
{
name = Anchor4;
position = "{322, -49}";
},
{
name = Anchor6;
position = "{328, -49}";
}
);
layerId = UUID0;
paths = (
{
closed = 1;
nodes = (
"500 303 OFFCURVE",
"583 394 OFFCURVE",
"583 507 CURVE SMOOTH",
"583 623 OFFCURVE",
"502 714 OFFCURVE",
"324 714 CURVE SMOOTH",
"147 714 OFFCURVE",
"62 623 OFFCURVE",
"62 507 CURVE SMOOTH",
"62 391 OFFCURVE",
"147 303 OFFCURVE",
"327 303 CURVE SMOOTH"
);
},
{
closed = 1;
nodes = (
"245 0 LINE SMOOTH",
"314 0 OFFCURVE",
"367 36 OFFCURVE",
"367 117 CURVE",
"361 117 LINE",
"346 98 OFFCURVE",
"332 78 OFFCURVE",
"290 78 CURVE SMOOTH",
"-34 78 LINE",
"-34 16 LINE",
"-23 8 OFFCURVE",
"3 0 OFFCURVE",
"15 0 CURVE SMOOTH"
);
},
{
closed = 1;
nodes = (
"367 117 LINE",
"367 362 LINE",
"278 362 LINE",
"278 16 LINE"
);
},
{
closed = 1;
nodes = (
"679 0 LINE",
"679 78 LINE",
"469 78 LINE SMOOTH",
"418 78 OFFCURVE",
"383 97 OFFCURVE",
"366 135 CURVE",
"348 63 LINE",
"385 21 OFFCURVE",
"410 0 OFFCURVE",
"473 0 CURVE SMOOTH"
);
},
{
closed = 1;
nodes = (
"201 381 OFFCURVE",
"151 441 OFFCURVE",
"151 508 CURVE SMOOTH",
"151 586 OFFCURVE",
"217 636 OFFCURVE",
"323 636 CURVE SMOOTH",
"429 636 OFFCURVE",
"494 586 OFFCURVE",
"494 507 CURVE SMOOTH",
"494 433 OFFCURVE",
"429 381 OFFCURVE",
"327 381 CURVE SMOOTH"
);
}
);
width = 645;
}
);
script = nko;
category = Letter;
subCategory = Other;
},
{
glyphname = uni07D0.init;
production = uni07D0.init;
lastChange = "2019-09-06 15:22:42 +0000";
layers = (
{
anchors = (
{
name = Anchor2;
position = "{323, 795}";
},
{
name = Anchor4;
position = "{323, -49}";
}
);
layerId = UUID0;
paths = (
{
closed = 1;
nodes = (
"500 303 OFFCURVE",
"583 394 OFFCURVE",
"583 507 CURVE SMOOTH",
"583 623 OFFCURVE",
"502 714 OFFCURVE",
"324 714 CURVE SMOOTH",
"147 714 OFFCURVE",
"62 623 OFFCURVE",
"62 507 CURVE SMOOTH",
"62 391 OFFCURVE",
"147 303 OFFCURVE",
"327 303 CURVE SMOOTH"
);
},
{
closed = 1;
nodes = (
"245 0 LINE SMOOTH",
"314 0 OFFCURVE",
"367 36 OFFCURVE",
"367 117 CURVE",
"361 117 LINE",
"346 98 OFFCURVE",
"332 78 OFFCURVE",
"290 78 CURVE SMOOTH",
"-34 78 LINE",
"-34 16 LINE",
"-23 8 OFFCURVE",
"3 0 OFFCURVE",
"15 0 CURVE SMOOTH"
);
},
{
closed = 1;
nodes = (
"367 117 LINE",
"367 362 LINE",
"278 362 LINE",
"278 28 LINE"
);
},
{
closed = 1;
nodes = (
"201 381 OFFCURVE",
"151 441 OFFCURVE",
"151 508 CURVE SMOOTH",
"151 586 OFFCURVE",
"217 636 OFFCURVE",
"323 636 CURVE SMOOTH",
"429 636 OFFCURVE",
"494 586 OFFCURVE",
"494 507 CURVE SMOOTH",
"494 433 OFFCURVE",
"429 381 OFFCURVE",
"327 381 CURVE SMOOTH"
);
}
);
width = 645;
}
);
script = nko;
category = Letter;
subCategory = Other;
},
{
glyphname = uni07D1.fina;
production = uni07D1.fina;
lastChange = "2019-09-06 15:22:42 +0000";
layers = (
{
anchors = (
{
name = Anchor2;
position = "{253, 795}";
},
{
name = Anchor4;
position = "{253, -49}";
},
{
name = Anchor6;
position = "{249, -49}";
}
);
layerId = UUID0;
paths = (
{
closed = 1;
nodes = (
"304 366 LINE",
"314 453 OFFCURVE",
"335 576 OFFCURVE",
"354 669 CURVE",
"289 669 LINE",
"257 580 OFFCURVE",
"221 464 OFFCURVE",
"203 377 CURVE",
"210 366 LINE"
);
},
{
closed = 1;
nodes = (
"554 0 LINE",
"554 78 LINE",
"50 78 LINE",
"50 0 LINE"
);
}
);
width = 522;
}
);
script = nko;
category = Letter;
subCategory = Other;
},
{
glyphname = uni07D1.medi;
production = uni07D1.medi;
lastChange = "2019-09-06 15:22:42 +0000";
layers = (
{
anchors = (
{
name = Anchor2;
position = "{253, 795}";
},
{
name = Anchor4;
position = "{253, -49}";
},
{
name = Anchor6;
position = "{254, -49}";
}
);
layerId = UUID0;
paths = (
{
closed = 1;
nodes = (
"554 0 LINE",
"554 78 LINE",
"-34 78 LINE",
"-34 16 LINE",
"-23 8 OFFCURVE",
"3 0 OFFCURVE",
"15 0 CURVE SMOOTH"
);
},
{
closed = 1;
nodes = (
"304 366 LINE",
"314 453 OFFCURVE",
"335 576 OFFCURVE",
"354 669 CURVE",
"289 669 LINE",
"257 580 OFFCURVE",
"221 464 OFFCURVE",
"203 377 CURVE",
"210 366 LINE"
);
}
);
width = 522;
}
);
script = nko;
category = Letter;
subCategory = Other;
},
{
glyphname = uni07D1.init;
production = uni07D1.init;
lastChange = "2019-09-06 15:22:42 +0000";
layers = (
{
anchors = (
{
name = Anchor2;
position = "{253, 795}";
},
{
name = Anchor4;
position = "{254, -49}";
}
);
layerId = UUID0;
paths = (
{
closed = 1;
nodes = (
"304 366 LINE",
"314 453 OFFCURVE",
"335 576 OFFCURVE",
"354 669 CURVE",
"289 669 LINE",
"257 580 OFFCURVE",
"221 464 OFFCURVE",
"203 377 CURVE",
"210 366 LINE"
);
},
{
closed = 1;
nodes = (
"471 0 LINE",
"471 78 LINE",
"-34 78 LINE",
"-34 16 LINE",
"-23 8 OFFCURVE",
"3 0 OFFCURVE",
"15 0 CURVE SMOOTH"
);
}
);
width = 522;
}
);
script = nko;
category = Letter;
subCategory = Other;
},
{
glyphname = uni07D2.fina;
production = uni07D2.fina;
lastChange = "2019-09-06 15:22:42 +0000";
layers = (
{
anchors = (
{
name = Anchor2;
position = "{224, 795}";
},
{
name = Anchor4;
position = "{620, -49}";
},
{
name = Anchor6;
position = "{382, -49}";
}
);
layerId = UUID0;
paths = (
{
closed = 1;
nodes = (
"388 244 LINE",
"388 535 LINE SMOOTH",
"388 647 OFFCURVE",
"326 714 OFFCURVE",
"220 714 CURVE SMOOTH",
"109 714 OFFCURVE",
"46 642 OFFCURVE",
"46 550 CURVE SMOOTH",
"46 435 OFFCURVE",
"122 377 OFFCURVE",
"235 377 CURVE SMOOTH",
"590 377 LINE",
"590 455 LINE",
"241 455 LINE SMOOTH",
"172 455 OFFCURVE",
"135 491 OFFCURVE",
"135 548 CURVE SMOOTH",
"135 593 OFFCURVE",
"158 636 OFFCURVE",
"217 636 CURVE SMOOTH",
"278 636 OFFCURVE",
"299 591 OFFCURVE",
"299 544 CURVE SMOOTH",
"299 244 LINE"
);
},
{
closed = 1;
nodes = (
"719 0 LINE",
"719 78 LINE",
"577 78 LINE",
"577 0 LINE"
);
},
{
closed = 1;
nodes = (
"597 0 LINE",
"597 455 LINE",
"508 455 LINE",
"508 0 LINE"
);
}
);
width = 685;
}
);
script = nko;
category = Letter;
subCategory = Other;
},
{
glyphname = uni07D2.medi;
production = uni07D2.medi;
lastChange = "2019-09-06 15:22:42 +0000";
layers = (
{
anchors = (
{
name = Anchor2;
position = "{224, 795}";
},
{
name = Anchor4;
position = "{292, -49}";
},
{
name = Anchor6;
position = "{342, -49}";
}
);
layerId = UUID0;
paths = (
{
closed = 1;
nodes = (
"388 244 LINE",
"388 535 LINE SMOOTH",
"388 647 OFFCURVE",
"326 714 OFFCURVE",
"220 714 CURVE SMOOTH",
"109 714 OFFCURVE",
"46 642 OFFCURVE",
"46 550 CURVE SMOOTH",
"46 435 OFFCURVE",
"122 377 OFFCURVE",
"235 377 CURVE SMOOTH",
"590 377 LINE",
"590 455 LINE",
"241 455 LINE SMOOTH",
"172 455 OFFCURVE",
"135 491 OFFCURVE",
"135 548 CURVE SMOOTH",
"135 593 OFFCURVE",
"158 636 OFFCURVE",
"217 636 CURVE SMOOTH",
"278 636 OFFCURVE",
"299 591 OFFCURVE",
"299 544 CURVE SMOOTH",
"299 244 LINE"
);
},
{
closed = 1;
nodes = (
"475 0 LINE SMOOTH",
"544 0 OFFCURVE",
"597 36 OFFCURVE",
"597 117 CURVE",
"591 117 LINE",
"576 98 OFFCURVE",
"562 78 OFFCURVE",
"520 78 CURVE SMOOTH",
"-34 78 LINE",
"-34 16 LINE",
"-23 8 OFFCURVE",
"3 0 OFFCURVE",
"15 0 CURVE SMOOTH"
);
},
{
closed = 1;
nodes = (
"719 0 LINE",
"719 78 LINE",
"700 78 LINE SMOOTH",
"649 78 OFFCURVE",
"614 97 OFFCURVE",
"597 135 CURVE",
"579 62 LINE",
"610 21 OFFCURVE",
"632 0 OFFCURVE",
"685 0 CURVE SMOOTH"
);
},
{
closed = 1;
nodes = (
"597 117 LINE",
"597 455 LINE",
"508 455 LINE",
"508 9 LINE"
);
}
);
width = 685;
}
);
script = nko;
category = Letter;
subCategory = Other;
},
{
glyphname = uni07D2.init;
production = uni07D2.init;
lastChange = "2019-09-06 15:22:42 +0000";
layers = (
{
anchors = (
{
name = Anchor2;
position = "{224, 795}";
},
{
name = Anchor4;
position = "{292, -49}";
}
);
layerId = UUID0;
paths = (
{
closed = 1;
nodes = (
"388 244 LINE",
"388 535 LINE SMOOTH",
"388 647 OFFCURVE",
"326 714 OFFCURVE",
"220 714 CURVE SMOOTH",
"109 714 OFFCURVE",
"46 642 OFFCURVE",
"46 550 CURVE SMOOTH",
"46 435 OFFCURVE",
"122 377 OFFCURVE",
"235 377 CURVE SMOOTH",
"590 377 LINE",
"590 455 LINE",
"241 455 LINE SMOOTH",
"172 455 OFFCURVE",
"135 491 OFFCURVE",
"135 548 CURVE SMOOTH",
"135 593 OFFCURVE",
"158 636 OFFCURVE",
"217 636 CURVE SMOOTH",
"278 636 OFFCURVE",
"299 591 OFFCURVE",
"299 544 CURVE SMOOTH",
"299 244 LINE"
);
},
{
closed = 1;
nodes = (
"475 0 LINE SMOOTH",
"544 0 OFFCURVE",
"597 36 OFFCURVE",
"597 117 CURVE",
"591 117 LINE",
"576 98 OFFCURVE",
"562 78 OFFCURVE",
"520 78 CURVE SMOOTH",
"-34 78 LINE",
"-34 16 LINE",
"-23 8 OFFCURVE",
"3 0 OFFCURVE",
"15 0 CURVE SMOOTH"
);
},
{
closed = 1;
nodes = (
"597 117 LINE",
"597 455 LINE",
"508 455 LINE",
"508 9 LINE"
);
}
);
width = 685;
}
);
script = nko;
category = Letter;
subCategory = Other;
},
{
glyphname = uni07D3.fina;
production = uni07D3.fina;
lastChange = "2019-09-06 15:22:42 +0000";
layers = (
{
anchors = (
{
name = Anchor2;
position = "{219, 795}";
},
{
name = Anchor4;
position = "{273, -49}";
},
{
name = Anchor6;
position = "{220, -49}";
}
);
layerId = UUID0;
paths = (
{
closed = 1;
nodes = (
"177 0 LINE",
"177 714 LINE",
"88 714 LINE",
"88 0 LINE"
);
},
{
closed = 1;
nodes = (
"453 0 LINE",
"453 78 LINE",
"124 78 LINE",
"124 0 LINE"
);
},
{
closed = 1;
nodes = (
"351 352 LINE",
"351 430 LINE",
"104 430 LINE",
"104 352 LINE"
);
},
{
closed = 1;
nodes = (
"351 636 LINE",
"351 714 LINE",
"104 714 LINE",
"104 636 LINE"
);
}
);
width = 419;
}
);
script = nko;
category = Letter;
subCategory = Other;
},
{
glyphname = uni07D3.medi;
production = uni07D3.medi;
lastChange = "2019-09-06 15:22:42 +0000";
layers = (
{
anchors = (
{
name = Anchor2;
position = "{219, 795}";
},
{
name = Anchor4;
position = "{146, -49}";
},
{
name = Anchor6;
position = "{209, -49}";
}
);
layerId = UUID0;
paths = (
{
closed = 1;
nodes = (
"177 63 LINE",
"177 714 LINE",
"88 714 LINE",
"88 31 LINE"
);
},
{
closed = 1;
nodes = (
"55 0 LINE SMOOTH",
"124 0 OFFCURVE",
"177 36 OFFCURVE",
"177 117 CURVE",
"171 117 LINE",
"156 98 OFFCURVE",
"142 78 OFFCURVE",
"100 78 CURVE SMOOTH",
"-34 78 LINE",
"-34 16 LINE",
"-23 8 OFFCURVE",
"3 0 OFFCURVE",
"15 0 CURVE SMOOTH"
);
},
{
closed = 1;
nodes = (
"453 0 LINE",
"453 78 LINE",
"280 78 LINE SMOOTH",
"229 78 OFFCURVE",
"194 97 OFFCURVE",
"177 135 CURVE",
"159 63 LINE",
"196 21 OFFCURVE",
"221 0 OFFCURVE",
"284 0 CURVE SMOOTH"
);
},
{
closed = 1;
nodes = (
"351 352 LINE",
"351 430 LINE",
"104 430 LINE",
"104 352 LINE"
);
},
{
closed = 1;
nodes = (
"351 636 LINE",
"351 714 LINE",
"104 714 LINE",
"104 636 LINE"
);
}
);
width = 419;
}
);
script = nko;
category = Letter;
subCategory = Other;
},
{
glyphname = uni07D3.init;
production = uni07D3.init;
lastChange = "2019-09-06 15:22:42 +0000";
layers = (
{
anchors = (
{
name = Anchor2;
position = "{219, 795}";
},
{
name = Anchor4;
position = "{133, -49}";
}
);
layerId = UUID0;
paths = (
{
closed = 1;
nodes = (
"177 117 LINE",
"177 714 LINE",
"88 714 LINE",
"88 26 LINE"
);
},
{
closed = 1;
nodes = (
"55 0 LINE SMOOTH",
"124 0 OFFCURVE",
"177 36 OFFCURVE",
"177 117 CURVE",
"171 117 LINE",
"156 98 OFFCURVE",
"142 78 OFFCURVE",
"100 78 CURVE SMOOTH",
"-34 78 LINE",
"-34 16 LINE",
"-23 8 OFFCURVE",
"3 0 OFFCURVE",
"15 0 CURVE SMOOTH"
);
},
{
closed = 1;
nodes = (
"351 352 LINE",
"351 430 LINE",
"104 430 LINE",
"104 352 LINE"
);
},
{
closed = 1;
nodes = (
"351 636 LINE",
"351 714 LINE",
"104 714 LINE",
"104 636 LINE"
);
}
);
width = 419;
}
);
script = nko;
category = Letter;
subCategory = Other;
},
{
glyphname = uni07D4.fina;
production = uni07D4.fina;
lastChange = "2019-09-06 15:22:42 +0000";
layers = (
{
anchors = (
{
name = Anchor2;
position = "{195, 795}";
},
{
name = Anchor4;
position = "{351, -49}";
},
{
name = Anchor6;
position = "{200, -49}";
}
);
layerId = UUID0;
paths = (
{
closed = 1;
nodes = (
"331 0 LINE",
"331 714 LINE",
"242 714 LINE",
"242 0 LINE"
);
},
{
closed = 1;
nodes = (
"453 0 LINE",
"453 78 LINE",
"274 78 LINE",
"274 0 LINE"
);
},
{
closed = 1;
nodes = (
"315 352 LINE",
"315 430 LINE",
"68 430 LINE",
"68 352 LINE"
);
},
{
closed = 1;
nodes = (
"315 636 LINE",
"315 714 LINE",
"68 714 LINE",
"68 636 LINE"
);
}
);
width = 419;
}
);
script = nko;
category = Letter;
subCategory = Other;
},
{
glyphname = uni07D4.medi;
production = uni07D4.medi;
lastChange = "2019-09-06 15:22:42 +0000";
layers = (
{
anchors = (
{
name = Anchor2;
position = "{195, 795}";
},
{
name = Anchor4;
position = "{156, -49}";
},
{
name = Anchor6;
position = "{212, -49}";
}
);
layerId = UUID0;
paths = (
{
closed = 1;
nodes = (
"331 117 LINE",
"331 714 LINE",
"242 714 LINE",
"242 7 LINE"
);
},
{
closed = 1;
nodes = (
"209 0 LINE SMOOTH",
"278 0 OFFCURVE",
"331 36 OFFCURVE",
"331 117 CURVE",
"325 117 LINE",
"310 98 OFFCURVE",
"296 78 OFFCURVE",
"254 78 CURVE SMOOTH",
"-34 78 LINE",
"-34 16 LINE",
"-23 8 OFFCURVE",
"3 0 OFFCURVE",
"15 0 CURVE SMOOTH"
);
},
{
closed = 1;
nodes = (
"453 0 LINE",
"453 78 LINE",
"434 78 LINE SMOOTH",
"383 78 OFFCURVE",
"348 97 OFFCURVE",
"331 135 CURVE",
"313 62 LINE",
"344 21 OFFCURVE",
"366 0 OFFCURVE",
"419 0 CURVE SMOOTH"
);
},
{
closed = 1;
nodes = (
"315 352 LINE",
"315 430 LINE",
"68 430 LINE",
"68 352 LINE"
);
},
{
closed = 1;
nodes = (
"315 636 LINE",
"315 714 LINE",
"68 714 LINE",
"68 636 LINE"
);
}
);
width = 419;
}
);
script = nko;
category = Letter;
subCategory = Other;
},
{
glyphname = uni07D4.init;
production = uni07D4.init;
lastChange = "2019-09-06 15:22:42 +0000";
layers = (
{
anchors = (
{
name = Anchor2;
position = "{195, 795}";
},
{
name = Anchor4;
position = "{163, -49}";
}
);
layerId = UUID0;
paths = (
{
closed = 1;
nodes = (
"331 117 LINE",
"331 714 LINE",
"242 714 LINE",
"242 7 LINE"
);
},
{
closed = 1;
nodes = (
"209 0 LINE SMOOTH",
"278 0 OFFCURVE",
"331 36 OFFCURVE",
"331 117 CURVE",
"325 117 LINE",
"310 98 OFFCURVE",
"296 78 OFFCURVE",
"254 78 CURVE SMOOTH",
"-34 78 LINE",
"-34 16 LINE",
"-23 8 OFFCURVE",
"3 0 OFFCURVE",
"15 0 CURVE SMOOTH"
);
},
{
closed = 1;
nodes = (
"315 352 LINE",
"315 430 LINE",
"68 430 LINE",
"68 352 LINE"
);
},
{
closed = 1;
nodes = (
"315 636 LINE",
"315 714 LINE",
"68 714 LINE",
"68 636 LINE"
);
}
);
width = 419;
}
);
script = nko;
category = Letter;
subCategory = Other;
},
{
glyphname = uni07D5.fina;
production = uni07D5.fina;
lastChange = "2019-09-06 15:22:42 +0000";
layers = (
{
anchors = (
{
name = Anchor2;
position = "{136, 795}";
},
{
name = Anchor4;
position = "{263, -49}";
},
{
name = Anchor6;
position = "{273, -49}";
}
);
layerId = UUID0;
paths = (
{
closed = 1;
nodes = (
"270 0 LINE SMOOTH",
"422 0 OFFCURVE",
"493 109 OFFCURVE",
"493 215 CURVE SMOOTH",
"493 347 OFFCURVE",
"422 431 OFFCURVE",
"267 431 CURVE SMOOTH",
"88 431 LINE",
"88 353 LINE",
"266 353 LINE SMOOTH",
"354 353 OFFCURVE",
"402 301 OFFCURVE",
"402 215 CURVE SMOOTH",
"402 150 OFFCURVE",
"371 78 OFFCURVE",
"273 78 CURVE SMOOTH",
"88 78 LINE",
"88 0 LINE"
);
},
{
closed = 1;
nodes = (
"177 0 LINE",
"177 714 LINE",
"88 714 LINE",
"88 0 LINE"
);
},
{
closed = 1;
nodes = (
"598 0 LINE",
"598 78 LINE",
"545 78 LINE SMOOTH",
"494 78 OFFCURVE",
"459 97 OFFCURVE",
"442 135 CURVE",
"424 62 LINE",
"455 21 OFFCURVE",
"477 0 OFFCURVE",
"530 0 CURVE SMOOTH"
);
}
);
width = 564;
}
);
script = nko;
category = Letter;
subCategory = Other;
},
{
glyphname = uni07D5.medi;
production = uni07D5.medi;
lastChange = "2019-09-06 15:22:42 +0000";
layers = (
{
anchors = (
{
name = Anchor2;
position = "{136, 795}";
},
{
name = Anchor4;
position = "{263, -49}";
},
{
name = Anchor6;
position = "{273, -49}";
}
);
layerId = UUID0;
paths = (
{
closed = 1;
nodes = (
"270 0 LINE SMOOTH",
"422 0 OFFCURVE",
"493 109 OFFCURVE",
"493 215 CURVE SMOOTH",
"493 347 OFFCURVE",
"422 431 OFFCURVE",
"267 431 CURVE SMOOTH",
"88 431 LINE",
"88 353 LINE",
"266 353 LINE SMOOTH",
"354 353 OFFCURVE",
"402 301 OFFCURVE",
"402 215 CURVE SMOOTH",
"402 150 OFFCURVE",
"371 78 OFFCURVE",
"273 78 CURVE SMOOTH",
"-34 78 LINE",
"-34 16 LINE",
"-23 8 OFFCURVE",
"3 0 OFFCURVE",
"15 0 CURVE SMOOTH"
);
},
{
closed = 1;
nodes = (
"177 0 LINE",
"177 714 LINE",
"88 714 LINE",
"88 0 LINE"
);
},
{
closed = 1;
nodes = (
"598 0 LINE",
"598 78 LINE",
"545 78 LINE SMOOTH",
"494 78 OFFCURVE",
"459 97 OFFCURVE",
"442 135 CURVE",
"424 63 LINE",
"461 21 OFFCURVE",
"486 0 OFFCURVE",
"549 0 CURVE SMOOTH"
);
}
);
width = 564;
}
);
script = nko;
category = Letter;
subCategory = Other;
},
{
glyphname = uni07D5.init;
production = uni07D5.init;
lastChange = "2019-09-06 15:22:42 +0000";
layers = (
{
anchors = (
{
name = Anchor2;
position = "{136, 795}";
},
{
name = Anchor4;
position = "{263, -49}";
}
);
layerId = UUID0;
paths = (
{
closed = 1;
nodes = (
"270 0 LINE SMOOTH",
"422 0 OFFCURVE",
"493 109 OFFCURVE",
"493 215 CURVE SMOOTH",
"493 347 OFFCURVE",
"422 431 OFFCURVE",
"267 431 CURVE SMOOTH",
"88 431 LINE",
"88 353 LINE",
"266 353 LINE SMOOTH",
"354 353 OFFCURVE",
"402 301 OFFCURVE",
"402 215 CURVE SMOOTH",
"402 150 OFFCURVE",
"371 78 OFFCURVE",
"273 78 CURVE SMOOTH",
"-34 78 LINE",
"-34 16 LINE",
"-23 8 OFFCURVE",
"3 0 OFFCURVE",
"15 0 CURVE SMOOTH"
);
},
{
closed = 1;
nodes = (
"177 0 LINE",
"177 714 LINE",
"88 714 LINE",
"88 0 LINE"
);
}
);
width = 564;
}
);
script = nko;
category = Letter;
subCategory = Other;
},
{
glyphname = uni07D6.fina;
production = uni07D6.fina;
lastChange = "2019-09-06 15:22:42 +0000";
layers = (
{
anchors = (
{
name = Anchor2;
position = "{234, 795}";
},
{
name = Anchor4;
position = "{405, -49}";
},
{
name = Anchor6;
position = "{280, -49}";
}
);
layerId = UUID0;
paths = (
{
closed = 1;
nodes = (
"378 0 LINE",
"378 124 LINE SMOOTH",
"378 332 OFFCURVE",
"300 500 OFFCURVE",
"146 636 CURVE",
"437 636 LINE",
"437 714 LINE",
"39 714 LINE",
"39 636 LINE",
"223 471 OFFCURVE",
"289 354 OFFCURVE",
"289 124 CURVE SMOOTH",
"289 0 LINE"
);
},
{
closed = 1;
nodes = (
"521 0 LINE",
"521 78 LINE",
"327 78 LINE",
"327 0 LINE"
);
}
);
width = 487;
}
);
script = nko;
category = Letter;
subCategory = Other;
},
{
glyphname = uni07D6.medi;
production = uni07D6.medi;
lastChange = "2019-09-06 15:22:42 +0000";
layers = (
{
anchors = (
{
name = Anchor2;
position = "{234, 795}";
},
{
name = Anchor4;
position = "{327, -49}";
},
{
name = Anchor6;
position = "{238, -49}";
}
);
layerId = UUID0;
paths = (
{
closed = 1;
nodes = (
"378 80 LINE",
"378 124 LINE SMOOTH",
"378 332 OFFCURVE",
"300 500 OFFCURVE",
"146 636 CURVE",
"437 636 LINE",
"437 714 LINE",
"39 714 LINE",
"39 636 LINE",
"223 471 OFFCURVE",
"289 354 OFFCURVE",
"289 124 CURVE SMOOTH",
"289 20 LINE"
);
},
{
closed = 1;
nodes = (
"256 0 LINE SMOOTH",
"325 0 OFFCURVE",
"378 36 OFFCURVE",
"378 117 CURVE",
"372 117 LINE",
"357 98 OFFCURVE",
"343 78 OFFCURVE",
"301 78 CURVE SMOOTH",
"-34 78 LINE",
"-34 16 LINE",
"-23 8 OFFCURVE",
"3 0 OFFCURVE",
"15 0 CURVE SMOOTH"
);
},
{
closed = 1;
nodes = (
"521 0 LINE",
"521 78 LINE",
"481 78 LINE SMOOTH",
"430 78 OFFCURVE",
"395 97 OFFCURVE",
"378 135 CURVE",
"360 62 LINE",
"391 21 OFFCURVE",
"413 0 OFFCURVE",
"466 0 CURVE SMOOTH"
);
}
);
width = 487;
}
);
script = nko;
category = Letter;
subCategory = Other;
},
{
glyphname = uni07D6.init;
production = uni07D6.init;
lastChange = "2019-09-06 15:22:42 +0000";
layers = (
{
anchors = (
{
name = Anchor2;
position = "{234, 795}";
},
{
name = Anchor4;
position = "{189, -49}";
}
);
layerId = UUID0;
paths = (
{
closed = 1;
nodes = (
"378 117 LINE",
"378 124 LINE SMOOTH",
"378 332 OFFCURVE",
"300 500 OFFCURVE",
"146 636 CURVE",
"437 636 LINE",
"437 714 LINE",
"39 714 LINE",
"39 636 LINE",
"223 471 OFFCURVE",
"289 354 OFFCURVE",
"289 124 CURVE SMOOTH",
"289 20 LINE"
);
},
{
closed = 1;
nodes = (
"256 0 LINE SMOOTH",
"325 0 OFFCURVE",
"378 36 OFFCURVE",
"378 117 CURVE",
"372 117 LINE",
"357 98 OFFCURVE",
"343 78 OFFCURVE",
"301 78 CURVE SMOOTH",
"-34 78 LINE",
"-34 16 LINE",
"-23 8 OFFCURVE",
"3 0 OFFCURVE",
"15 0 CURVE SMOOTH"
);
}
);
width = 487;
}
);
script = nko;
category = Letter;
subCategory = Other;
},
{
glyphname = uni07D7.fina;
production = uni07D7.fina;
lastChange = "2019-09-06 15:22:42 +0000";
layers = (
{
anchors = (
{
name = Anchor2;
position = "{244, 795}";
},
{
name = Anchor4;
position = "{302, -49}";
},
{
name = Anchor6;
position = "{223, -49}";
}
);
layerId = UUID0;
paths = (
{
closed = 1;
nodes = (
"289 0 LINE",
"289 714 LINE",
"179 714 LINE",
"35 460 LINE",
"105 422 LINE",
"163 525 LINE SMOOTH",
"176 547 OFFCURVE",
"194 585 OFFCURVE",
"202 605 CURVE",
"201 571 OFFCURVE",
"200 536 OFFCURVE",
"200 496 CURVE SMOOTH",
"200 0 LINE"
);
},
{
closed = 1;
nodes = (
"411 0 LINE",
"411 78 LINE",
"233 78 LINE",
"233 0 LINE"
);
}
);
width = 377;
}
);
script = nko;
category = Letter;
subCategory = Other;
},
{
glyphname = uni07D7.medi;
production = uni07D7.medi;
lastChange = "2019-09-06 15:22:42 +0000";
layers = (
{
anchors = (
{
name = Anchor2;
position = "{244, 795}";
},
{
name = Anchor4;
position = "{239, -49}";
},
{
name = Anchor6;
position = "{214, -49}";
}
);
layerId = UUID0;
paths = (
{
closed = 1;
nodes = (
"289 78 LINE",
"289 714 LINE",
"179 714 LINE",
"35 460 LINE",
"105 422 LINE",
"163 525 LINE SMOOTH",
"176 547 OFFCURVE",
"194 585 OFFCURVE",
"202 605 CURVE",
"201 571 OFFCURVE",
"200 536 OFFCURVE",
"200 496 CURVE",
"200 22 LINE"
);
},
{
closed = 1;
nodes = (
"167 0 LINE SMOOTH",
"236 0 OFFCURVE",
"289 36 OFFCURVE",
"289 117 CURVE",
"283 117 LINE",
"268 98 OFFCURVE",
"254 78 OFFCURVE",
"212 78 CURVE SMOOTH",
"-34 78 LINE",
"-34 16 LINE",
"-23 8 OFFCURVE",
"3 0 OFFCURVE",
"15 0 CURVE SMOOTH"
);
},
{
closed = 1;
nodes = (
"411 0 LINE",
"411 78 LINE",
"392 78 LINE SMOOTH",
"341 78 OFFCURVE",
"306 97 OFFCURVE",
"289 135 CURVE",
"271 62 LINE",
"302 21 OFFCURVE",
"324 0 OFFCURVE",
"377 0 CURVE SMOOTH"
);
}
);
width = 377;
}
);
script = nko;
category = Letter;
subCategory = Other;
},
{
glyphname = uni07D7.init;
production = uni07D7.init;
lastChange = "2019-09-06 15:22:42 +0000";
layers = (
{
anchors = (
{
name = Anchor2;
position = "{244, 795}";
},
{
name = Anchor4;
position = "{139, -49}";
}
);
layerId = UUID0;
paths = (
{
closed = 1;
nodes = (
"289 117 LINE",
"289 714 LINE",
"179 714 LINE",
"35 460 LINE",
"105 422 LINE",
"163 525 LINE SMOOTH",
"176 547 OFFCURVE",
"194 585 OFFCURVE",
"202 605 CURVE",
"201 571 OFFCURVE",
"200 536 OFFCURVE",
"200 496 CURVE SMOOTH",
"200 22 LINE"
);
},
{
closed = 1;
nodes = (
"167 0 LINE SMOOTH",
"236 0 OFFCURVE",
"289 36 OFFCURVE",
"289 117 CURVE",
"283 117 LINE",
"268 98 OFFCURVE",
"254 78 OFFCURVE",
"212 78 CURVE SMOOTH",
"-34 78 LINE",
"-34 16 LINE",
"-23 8 OFFCURVE",
"3 0 OFFCURVE",
"15 0 CURVE SMOOTH"
);
}
);
width = 377;
}
);
script = nko;
category = Letter;
subCategory = Other;
},
{
glyphname = uni07D8.fina;
production = uni07D8.fina;
lastChange = "2019-09-06 15:22:42 +0000";
layers = (
{
anchors = (
{
name = Anchor2;
position = "{371, 649}";
},
{
name = Anchor4;
position = "{375, -49}";
},
{
name = Anchor6;
position = "{396, -49}";
}
);
layerId = UUID0;
paths = (
{
closed = 1;
nodes = (
"567 0 LINE",
"704 117 LINE",
"704 297 LINE SMOOTH",
"704 449 OFFCURVE",
"635 520 OFFCURVE",
"520 520 CURVE SMOOTH",
"440 520 OFFCURVE",
"385 473 OFFCURVE",
"364 406 CURVE",
"345 440 OFFCURVE",
"302 465 OFFCURVE",
"247 465 CURVE SMOOTH",
"147 465 OFFCURVE",
"88 393 OFFCURVE",
"88 239 CURVE SMOOTH",
"88 0 LINE"
);
},
{
closed = 1;
nodes = (
"177 245 LINE SMOOTH",
"177 326 OFFCURVE",
"190 387 OFFCURVE",
"254 387 CURVE SMOOTH",
"313 387 OFFCURVE",
"331 335 OFFCURVE",
"331 252 CURVE SMOOTH",
"331 78 LINE",
"177 78 LINE"
);
},
{
closed = 1;
nodes = (
"582 0 LINE SMOOTH",
"651 0 OFFCURVE",
"704 36 OFFCURVE",
"704 117 CURVE",
"692 117 LINE",
"677 98 OFFCURVE",
"669 78 OFFCURVE",
"627 78 CURVE SMOOTH",
"166 78 LINE",
"166 16 LINE",
"177 8 OFFCURVE",
"203 0 OFFCURVE",
"215 0 CURVE SMOOTH"
);
},
{
closed = 1;
nodes = (
"420 301 LINE SMOOTH",
"420 386 OFFCURVE",
"451 442 OFFCURVE",
"519 442 CURVE SMOOTH",
"587 442 OFFCURVE",
"615 392 OFFCURVE",
"615 308 CURVE SMOOTH",
"615 78 LINE",
"420 78 LINE"
);
},
{
closed = 1;
nodes = (
"847 0 LINE",
"847 78 LINE",
"807 78 LINE SMOOTH",
"756 78 OFFCURVE",
"721 97 OFFCURVE",
"704 135 CURVE",
"686 62 LINE",
"717 21 OFFCURVE",
"739 0 OFFCURVE",
"792 0 CURVE SMOOTH"
);
}
);
width = 792;
}
);
script = nko;
category = Letter;
subCategory = Other;
},
{
glyphname = uni07D8.medi;
production = uni07D8.medi;
lastChange = "2019-09-06 15:22:42 +0000";
layers = (
{
anchors = (
{
name = Anchor2;
position = "{371, 649}";
},
{
name = Anchor4;
position = "{375, -49}";
},
{
name = Anchor6;
position = "{396, -49}";
}
);
layerId = UUID0;
paths = (
{
closed = 1;
nodes = (
"567 0 LINE",
"704 117 LINE",
"704 297 LINE SMOOTH",
"704 449 OFFCURVE",
"635 520 OFFCURVE",
"520 520 CURVE SMOOTH",
"440 520 OFFCURVE",
"385 473 OFFCURVE",
"364 406 CURVE",
"345 440 OFFCURVE",
"302 465 OFFCURVE",
"247 465 CURVE SMOOTH",
"147 465 OFFCURVE",
"88 393 OFFCURVE",
"88 239 CURVE SMOOTH",
"88 0 LINE"
);
},
{
closed = 1;
nodes = (
"582 0 LINE SMOOTH",
"651 0 OFFCURVE",
"704 36 OFFCURVE",
"704 117 CURVE",
"694 117 LINE",
"679 98 OFFCURVE",
"669 78 OFFCURVE",
"627 78 CURVE SMOOTH",
"-34 78 LINE",
"-34 16 LINE",
"-23 8 OFFCURVE",
"3 0 OFFCURVE",
"15 0 CURVE SMOOTH"
);
},
{
closed = 1;
nodes = (
"177 245 LINE SMOOTH",
"177 326 OFFCURVE",
"190 387 OFFCURVE",
"254 387 CURVE SMOOTH",
"313 387 OFFCURVE",
"331 335 OFFCURVE",
"331 252 CURVE SMOOTH",
"331 78 LINE",
"177 78 LINE"
);
},
{
closed = 1;
nodes = (
"420 301 LINE SMOOTH",
"420 386 OFFCURVE",
"451 442 OFFCURVE",
"519 442 CURVE SMOOTH",
"587 442 OFFCURVE",
"615 392 OFFCURVE",
"615 308 CURVE SMOOTH",
"615 78 LINE",
"420 78 LINE"
);
},
{
closed = 1;
nodes = (
"847 0 LINE",
"847 78 LINE",
"807 78 LINE SMOOTH",
"756 78 OFFCURVE",
"721 97 OFFCURVE",
"704 135 CURVE",
"686 62 LINE",
"717 21 OFFCURVE",
"739 0 OFFCURVE",
"792 0 CURVE SMOOTH"
);
}
);
width = 792;
}
);
script = nko;
category = Letter;
subCategory = Other;
},
{
glyphname = uni07D8.init;
production = uni07D8.init;
lastChange = "2019-09-06 15:22:42 +0000";
layers = (
{
anchors = (
{
name = Anchor2;
position = "{371, 649}";
},
{
name = Anchor4;
position = "{375, -49}";
}
);
layerId = UUID0;
paths = (
{
closed = 1;
nodes = (
"567 0 LINE",
"704 117 LINE",
"704 297 LINE SMOOTH",
"704 449 OFFCURVE",
"635 520 OFFCURVE",
"520 520 CURVE SMOOTH",
"440 520 OFFCURVE",
"385 473 OFFCURVE",
"364 406 CURVE",
"345 440 OFFCURVE",
"302 465 OFFCURVE",
"247 465 CURVE SMOOTH",
"147 465 OFFCURVE",
"88 393 OFFCURVE",
"88 239 CURVE SMOOTH",
"88 0 LINE"
);
},
{
closed = 1;
nodes = (
"582 0 LINE SMOOTH",
"651 0 OFFCURVE",
"704 36 OFFCURVE",
"704 117 CURVE",
"694 117 LINE",
"679 98 OFFCURVE",
"669 78 OFFCURVE",
"627 78 CURVE SMOOTH",
"-34 78 LINE",
"-34 16 LINE",
"-23 8 OFFCURVE",
"3 0 OFFCURVE",
"15 0 CURVE SMOOTH"
);
},
{
closed = 1;
nodes = (
"177 245 LINE SMOOTH",
"177 326 OFFCURVE",
"190 387 OFFCURVE",
"254 387 CURVE SMOOTH",
"313 387 OFFCURVE",
"331 335 OFFCURVE",
"331 252 CURVE SMOOTH",
"331 78 LINE",
"177 78 LINE"
);
},
{
closed = 1;
nodes = (
"420 301 LINE SMOOTH",
"420 386 OFFCURVE",
"451 442 OFFCURVE",
"519 442 CURVE SMOOTH",
"587 442 OFFCURVE",
"615 392 OFFCURVE",
"615 308 CURVE SMOOTH",
"615 78 LINE",
"420 78 LINE"
);
}
);
width = 792;
}
);
script = nko;
category = Letter;
subCategory = Other;
},
{
glyphname = uni07D9.fina;
production = uni07D9.fina;
lastChange = "2019-09-06 15:22:42 +0000";
layers = (
{
anchors = (
{
name = Anchor2;
position = "{195, 795}";
},
{
name = Anchor4;
position = "{283, -49}";
},
{
name = Anchor6;
position = "{206, -49}";
}
);
layerId = UUID0;
paths = (
{
closed = 1;
nodes = (
"240 0 LINE",
"240 714 LINE",
"151 714 LINE",
"151 0 LINE"
);
},
{
closed = 1;
nodes = (
"425 0 LINE",
"425 78 LINE",
"176 78 LINE",
"176 0 LINE"
);
},
{
closed = 1;
nodes = (
"352 435 LINE",
"352 513 LINE",
"39 513 LINE",
"39 435 LINE"
);
}
);
width = 391;
}
);
script = nko;
category = Letter;
subCategory = Other;
},
{
glyphname = uni07D9.medi;
production = uni07D9.medi;
lastChange = "2019-09-06 15:22:42 +0000";
layers = (
{
anchors = (
{
name = Anchor2;
position = "{195, 795}";
},
{
name = Anchor4;
position = "{195, -49}";
},
{
name = Anchor6;
position = "{215, -49}";
}
);
layerId = UUID0;
paths = (
{
closed = 1;
nodes = (
"240 78 LINE",
"240 714 LINE",
"151 714 LINE",
"151 32 LINE"
);
},
{
closed = 1;
nodes = (
"118 0 LINE SMOOTH",
"187 0 OFFCURVE",
"240 36 OFFCURVE",
"240 117 CURVE",
"234 117 LINE",
"219 98 OFFCURVE",
"205 78 OFFCURVE",
"163 78 CURVE SMOOTH",
"-34 78 LINE",
"-34 16 LINE",
"-23 8 OFFCURVE",
"3 0 OFFCURVE",
"15 0 CURVE SMOOTH"
);
},
{
closed = 1;
nodes = (
"425 0 LINE",
"425 78 LINE",
"343 78 LINE SMOOTH",
"292 78 OFFCURVE",
"257 97 OFFCURVE",
"240 135 CURVE",
"222 62 LINE",
"253 21 OFFCURVE",
"275 0 OFFCURVE",
"328 0 CURVE SMOOTH"
);
},
{
closed = 1;
nodes = (
"352 435 LINE",
"352 513 LINE",
"39 513 LINE",
"39 435 LINE"
);
}
);
width = 391;
}
);
script = nko;
category = Letter;
subCategory = Other;
},
{
glyphname = uni07D9.init;
production = uni07D9.init;
lastChange = "2019-09-06 15:22:42 +0000";
layers = (
{
anchors = (
{
name = Anchor2;
position = "{195, 795}";
},
{
name = Anchor4;
position = "{176, -49}";
}
);
layerId = UUID0;
paths = (
{
closed = 1;
nodes = (
"240 117 LINE",
"240 714 LINE",
"151 714 LINE",
"151 32 LINE"
);
},
{
closed = 1;
nodes = (
"118 0 LINE SMOOTH",
"187 0 OFFCURVE",
"240 36 OFFCURVE",
"240 117 CURVE",
"234 117 LINE",
"219 98 OFFCURVE",
"205 78 OFFCURVE",
"163 78 CURVE SMOOTH",
"-34 78 LINE",
"-34 16 LINE",
"-23 8 OFFCURVE",
"3 0 OFFCURVE",
"15 0 CURVE SMOOTH"
);
},
{
closed = 1;
nodes = (
"352 435 LINE",
"352 513 LINE",
"39 513 LINE",
"39 435 LINE"
);
}
);
width = 391;
}
);
script = nko;
category = Letter;
subCategory = Other;
},
{
glyphname = uni07DA.fina;
production = uni07DA.fina;
lastChange = "2019-09-06 15:22:42 +0000";
layers = (
{
anchors = (
{
name = Anchor2;
position = "{322, 795}";
},
{
name = Anchor4;
position = "{341, -49}";
},
{
name = Anchor6;
position = "{325, -49}";
}
);
layerId = UUID0;
paths = (
{
closed = 1;
nodes = (
"240 0 LINE",
"240 714 LINE",
"151 714 LINE",
"151 0 LINE"
);
},
{
closed = 1;
nodes = (
"377 0 LINE SMOOTH",
"446 0 OFFCURVE",
"499 36 OFFCURVE",
"499 117 CURVE",
"493 117 LINE",
"478 98 OFFCURVE",
"464 78 OFFCURVE",
"422 78 CURVE SMOOTH",
"183 78 LINE",
"183 16 LINE",
"194 8 OFFCURVE",
"220 0 OFFCURVE",
"232 0 CURVE SMOOTH"
);
},
{
closed = 1;
nodes = (
"684 0 LINE",
"684 78 LINE",
"602 78 LINE SMOOTH",
"551 78 OFFCURVE",
"516 97 OFFCURVE",
"499 135 CURVE",
"481 62 LINE",
"512 21 OFFCURVE",
"534 0 OFFCURVE",
"587 0 CURVE SMOOTH"
);
},
{
closed = 1;
nodes = (
"362 435 LINE",
"362 513 LINE",
"39 513 LINE",
"39 435 LINE"
);
},
{
closed = 1;
nodes = (
"499 117 LINE",
"499 714 LINE",
"410 714 LINE",
"410 11 LINE"
);
},
{
closed = 1;
nodes = (
"611 435 LINE",
"611 513 LINE",
"308 513 LINE",
"308 435 LINE"
);
}
);
width = 650;
}
);
script = nko;
category = Letter;
subCategory = Other;
},
{
glyphname = uni07DA.medi;
production = uni07DA.medi;
lastChange = "2019-09-06 15:22:42 +0000";
layers = (
{
anchors = (
{
name = Anchor2;
position = "{322, 795}";
},
{
name = Anchor4;
position = "{341, -49}";
},
{
name = Anchor6;
position = "{325, -49}";
}
);
layerId = UUID0;
paths = (
{
closed = 1;
nodes = (
"499 117 LINE",
"499 714 LINE",
"410 714 LINE",
"410 12 LINE"
);
},
{
closed = 1;
nodes = (
"118 0 LINE SMOOTH",
"187 0 OFFCURVE",
"240 36 OFFCURVE",
"240 117 CURVE",
"234 117 LINE",
"219 98 OFFCURVE",
"205 78 OFFCURVE",
"163 78 CURVE SMOOTH",
"-34 78 LINE",
"-34 16 LINE",
"-23 8 OFFCURVE",
"3 0 OFFCURVE",
"15 0 CURVE SMOOTH"
);
},
{
closed = 1;
nodes = (
"362 0 LINE",
"362 78 LINE",
"343 78 LINE SMOOTH",
"292 78 OFFCURVE",
"257 97 OFFCURVE",
"240 135 CURVE",
"222 62 LINE",
"253 21 OFFCURVE",
"275 0 OFFCURVE",
"328 0 CURVE SMOOTH"
);
},
{
closed = 1;
nodes = (
"377 0 LINE SMOOTH",
"446 0 OFFCURVE",
"499 36 OFFCURVE",
"499 117 CURVE",
"493 117 LINE",
"478 98 OFFCURVE",
"464 78 OFFCURVE",
"422 78 CURVE SMOOTH",
"294 78 LINE",
"294 16 LINE",
"305 8 OFFCURVE",
"331 0 OFFCURVE",
"343 0 CURVE SMOOTH"
);
},
{
closed = 1;
nodes = (
"240 116 LINE",
"240 714 LINE",
"151 714 LINE",
"151 15 LINE"
);
},
{
closed = 1;
nodes = (
"684 0 LINE",
"684 78 LINE",
"602 78 LINE SMOOTH",
"551 78 OFFCURVE",
"516 97 OFFCURVE",
"499 135 CURVE",
"481 62 LINE",
"512 21 OFFCURVE",
"534 0 OFFCURVE",
"587 0 CURVE SMOOTH"
);
},
{
closed = 1;
nodes = (
"362 435 LINE",
"362 513 LINE",
"39 513 LINE",
"39 435 LINE"
);
},
{
closed = 1;
nodes = (
"611 435 LINE",
"611 513 LINE",
"308 513 LINE",
"308 435 LINE"
);
}
);
width = 650;
}
);
script = nko;
category = Letter;
subCategory = Other;
},
{
glyphname = uni07DA.init;
production = uni07DA.init;
lastChange = "2019-09-06 15:22:42 +0000";
layers = (
{
anchors = (
{
name = Anchor2;
position = "{322, 795}";
},
{
name = Anchor4;
position = "{325, -49}";
}
);
layerId = UUID0;
paths = (
{
closed = 1;
nodes = (
"499 117 LINE",
"499 714 LINE",
"410 714 LINE",
"410 12 LINE"
);
},
{
closed = 1;
nodes = (
"118 0 LINE SMOOTH",
"187 0 OFFCURVE",
"240 36 OFFCURVE",
"240 117 CURVE",
"234 117 LINE",
"219 98 OFFCURVE",
"205 78 OFFCURVE",
"163 78 CURVE SMOOTH",
"-34 78 LINE",
"-34 16 LINE",
"-23 8 OFFCURVE",
"3 0 OFFCURVE",
"15 0 CURVE SMOOTH"
);
},
{
closed = 1;
nodes = (
"362 0 LINE",
"362 78 LINE",
"343 78 LINE SMOOTH",
"292 78 OFFCURVE",
"257 97 OFFCURVE",
"240 135 CURVE",
"222 62 LINE",
"253 21 OFFCURVE",
"275 0 OFFCURVE",
"328 0 CURVE SMOOTH"
);
},
{
closed = 1;
nodes = (
"377 0 LINE SMOOTH",
"446 0 OFFCURVE",
"499 36 OFFCURVE",
"499 117 CURVE",
"493 117 LINE",
"478 98 OFFCURVE",
"464 78 OFFCURVE",
"422 78 CURVE SMOOTH",
"294 78 LINE",
"294 16 LINE",
"305 8 OFFCURVE",
"331 0 OFFCURVE",
"343 0 CURVE SMOOTH"
);
},
{
closed = 1;
nodes = (
"240 116 LINE",
"240 714 LINE",
"151 714 LINE",
"151 15 LINE"
);
},
{
closed = 1;
nodes = (
"362 435 LINE",
"362 513 LINE",
"39 513 LINE",
"39 435 LINE"
);
},
{
closed = 1;
nodes = (
"611 435 LINE",
"611 513 LINE",
"308 513 LINE",
"308 435 LINE"
);
}
);
width = 650;
}
);
script = nko;
category = Letter;
subCategory = Other;
},
{
glyphname = uni07DB.fina;
production = uni07DB.fina;
lastChange = "2019-09-06 15:22:42 +0000";
layers = (
{
anchors = (
{
name = Anchor2;
position = "{351, 649}";
},
{
name = Anchor4;
position = "{351, -49}";
},
{
name = Anchor6;
position = "{354, -49}";
}
);
layerId = UUID0;
paths = (
{
closed = 1;
nodes = (
"177 0 LINE",
"177 354 LINE SMOOTH",
"177 404 OFFCURVE",
"193 435 OFFCURVE",
"242 435 CURVE SMOOTH",
"365 435 LINE",
"365 513 LINE",
"249 513 LINE SMOOTH",
"140 513 OFFCURVE",
"88 463 OFFCURVE",
"88 361 CURVE SMOOTH",
"88 0 LINE"
);
},
{
closed = 1;
nodes = (
"498 0 LINE SMOOTH",
"567 0 OFFCURVE",
"620 36 OFFCURVE",
"620 117 CURVE",
"614 117 LINE",
"599 98 OFFCURVE",
"585 78 OFFCURVE",
"543 78 CURVE SMOOTH",
"114 78 LINE",
"114 16 LINE",
"125 8 OFFCURVE",
"151 0 OFFCURVE",
"163 0 CURVE SMOOTH"
);
},
{
closed = 1;
nodes = (
"742 0 LINE",
"742 78 LINE",
"723 78 LINE SMOOTH",
"672 78 OFFCURVE",
"637 97 OFFCURVE",
"620 135 CURVE",
"602 62 LINE",
"633 21 OFFCURVE",
"655 0 OFFCURVE",
"708 0 CURVE SMOOTH"
);
},
{
closed = 1;
nodes = (
"620 117 LINE",
"620 500 LINE",
"531 500 LINE",
"531 10 LINE"
);
},
{
closed = 1;
nodes = (
"620 435 LINE",
"620 513 LINE",
"273 513 LINE",
"273 435 LINE"
);
}
);
width = 708;
}
);
script = nko;
category = Letter;
subCategory = Other;
},
{
glyphname = uni07DB.medi;
production = uni07DB.medi;
lastChange = "2019-09-06 15:22:42 +0000";
layers = (
{
anchors = (
{
name = Anchor2;
position = "{351, 649}";
},
{
name = Anchor4;
position = "{351, -49}";
},
{
name = Anchor6;
position = "{354, -49}";
}
);
layerId = UUID0;
paths = (
{
closed = 1;
nodes = (
"177 0 LINE",
"177 354 LINE SMOOTH",
"177 404 OFFCURVE",
"193 435 OFFCURVE",
"242 435 CURVE SMOOTH",
"365 435 LINE",
"365 513 LINE",
"249 513 LINE SMOOTH",
"140 513 OFFCURVE",
"88 463 OFFCURVE",
"88 361 CURVE SMOOTH",
"88 0 LINE"
);
},
{
closed = 1;
nodes = (
"498 0 LINE SMOOTH",
"567 0 OFFCURVE",
"620 36 OFFCURVE",
"620 117 CURVE",
"614 117 LINE",
"599 98 OFFCURVE",
"585 78 OFFCURVE",
"543 78 CURVE SMOOTH",
"-34 78 LINE",
"-34 16 LINE",
"-23 8 OFFCURVE",
"3 0 OFFCURVE",
"15 0 CURVE SMOOTH"
);
},
{
closed = 1;
nodes = (
"742 0 LINE",
"742 78 LINE",
"723 78 LINE SMOOTH",
"672 78 OFFCURVE",
"637 97 OFFCURVE",
"620 135 CURVE",
"602 62 LINE",
"633 21 OFFCURVE",
"655 0 OFFCURVE",
"708 0 CURVE SMOOTH"
);
},
{
closed = 1;
nodes = (
"620 117 LINE",
"620 500 LINE",
"531 500 LINE",
"531 10 LINE"
);
},
{
closed = 1;
nodes = (
"620 435 LINE",
"620 513 LINE",
"273 513 LINE",
"273 435 LINE"
);
}
);
width = 708;
}
);
script = nko;
category = Letter;
subCategory = Other;
},
{
glyphname = uni07DB.init;
production = uni07DB.init;
lastChange = "2019-09-06 15:22:42 +0000";
layers = (
{
anchors = (
{
name = Anchor2;
position = "{351, 649}";
},
{
name = Anchor4;
position = "{354, -49}";
}
);
layerId = UUID0;
paths = (
{
closed = 1;
nodes = (
"177 0 LINE",
"177 354 LINE SMOOTH",
"177 404 OFFCURVE",
"193 435 OFFCURVE",
"242 435 CURVE SMOOTH",
"365 435 LINE",
"365 513 LINE",
"249 513 LINE SMOOTH",
"140 513 OFFCURVE",
"88 463 OFFCURVE",
"88 361 CURVE SMOOTH",
"88 0 LINE"
);
},
{
closed = 1;
nodes = (
"498 0 LINE SMOOTH",
"567 0 OFFCURVE",
"620 36 OFFCURVE",
"620 117 CURVE",
"614 117 LINE",
"599 98 OFFCURVE",
"585 78 OFFCURVE",
"543 78 CURVE SMOOTH",
"-34 78 LINE",
"-34 16 LINE",
"-23 8 OFFCURVE",
"3 0 OFFCURVE",
"15 0 CURVE SMOOTH"
);
},
{
closed = 1;
nodes = (
"620 117 LINE",
"620 500 LINE",
"531 500 LINE",
"531 10 LINE"
);
},
{
closed = 1;
nodes = (
"620 435 LINE",
"620 513 LINE",
"273 513 LINE",
"273 435 LINE"
);
}
);
width = 708;
}
);
script = nko;
category = Letter;
subCategory = Other;
},
{
glyphname = uni07DC.fina;
production = uni07DC.fina;
lastChange = "2019-09-06 15:22:42 +0000";
layers = (
{
anchors = (
{
name = Anchor2;
position = "{292, 795}";
},
{
name = Anchor4;
position = "{429, -49}";
},
{
name = Anchor6;
position = "{288, -49}";
}
);
layerId = UUID0;
paths = (
{
closed = 1;
nodes = (
"333 0 LINE",
"537 670 LINE",
"446 670 LINE",
"322 257 LINE SMOOTH",
"306 205 OFFCURVE",
"299 169 OFFCURVE",
"290 123 CURVE",
"282 169 OFFCURVE",
"273 199 OFFCURVE",
"255 259 CURVE SMOOTH",
"132 670 LINE",
"39 670 LINE",
"244 0 LINE"
);
},
{
closed = 1;
nodes = (
"610 0 LINE",
"610 78 LINE",
"269 78 LINE",
"269 0 LINE"
);
},
{
closed = 1;
nodes = (
"481 636 LINE",
"537 670 LINE",
"537 714 LINE",
"39 714 LINE",
"39 670 LINE",
"100 636 LINE"
);
}
);
width = 576;
}
);
script = nko;
category = Letter;
subCategory = Other;
},
{
glyphname = uni07DC.medi;
production = uni07DC.medi;
lastChange = "2019-09-06 15:22:42 +0000";
layers = (
{
anchors = (
{
name = Anchor2;
position = "{292, 795}";
},
{
name = Anchor4;
position = "{292, -49}";
},
{
name = Anchor6;
position = "{288, -49}";
}
);
layerId = UUID0;
paths = (
{
closed = 1;
nodes = (
"354 68 LINE",
"537 670 LINE",
"446 670 LINE",
"322 257 LINE SMOOTH",
"306 205 OFFCURVE",
"299 169 OFFCURVE",
"290 123 CURVE",
"282 169 OFFCURVE",
"273 199 OFFCURVE",
"255 259 CURVE SMOOTH",
"132 670 LINE",
"39 670 LINE",
"244 0 LINE"
);
},
{
closed = 1;
nodes = (
"239 0 LINE SMOOTH",
"308 0 OFFCURVE",
"362 35 OFFCURVE",
"362 116 CURVE",
"355 117 LINE",
"340 98 OFFCURVE",
"326 78 OFFCURVE",
"284 78 CURVE SMOOTH",
"-34 78 LINE",
"-34 16 LINE",
"-23 8 OFFCURVE",
"3 0 OFFCURVE",
"15 0 CURVE SMOOTH"
);
},
{
closed = 1;
nodes = (
"610 0 LINE",
"610 78 LINE",
"469 78 LINE SMOOTH",
"418 78 OFFCURVE",
"383 97 OFFCURVE",
"366 135 CURVE",
"348 63 LINE",
"385 21 OFFCURVE",
"410 0 OFFCURVE",
"473 0 CURVE SMOOTH"
);
},
{
closed = 1;
nodes = (
"481 636 LINE",
"537 670 LINE",
"537 714 LINE",
"39 714 LINE",
"39 670 LINE",
"100 636 LINE"
);
}
);
width = 576;
}
);
script = nko;
category = Letter;
subCategory = Other;
},
{
glyphname = uni07DC.init;
production = uni07DC.init;
lastChange = "2019-09-06 15:22:42 +0000";
layers = (
{
anchors = (
{
name = Anchor2;
position = "{292, 795}";
},
{
name = Anchor4;
position = "{288, -49}";
}
);
layerId = UUID0;
paths = (
{
closed = 1;
nodes = (
"356 74 LINE",
"537 670 LINE",
"446 670 LINE",
"322 257 LINE SMOOTH",
"306 205 OFFCURVE",
"299 169 OFFCURVE",
"290 123 CURVE",
"282 169 OFFCURVE",
"273 199 OFFCURVE",
"255 259 CURVE SMOOTH",
"132 670 LINE",
"39 670 LINE",
"244 0 LINE"
);
},
{
closed = 1;
nodes = (
"239 0 LINE SMOOTH",
"308 0 OFFCURVE",
"362 35 OFFCURVE",
"362 116 CURVE",
"355 117 LINE",
"340 98 OFFCURVE",
"326 78 OFFCURVE",
"284 78 CURVE SMOOTH",
"-34 78 LINE",
"-34 16 LINE",
"-23 8 OFFCURVE",
"3 0 OFFCURVE",
"15 0 CURVE SMOOTH"
);
},
{
closed = 1;
nodes = (
"481 636 LINE",
"537 670 LINE",
"537 714 LINE",
"39 714 LINE",
"39 670 LINE",
"100 636 LINE"
);
}
);
width = 576;
}
);
script = nko;
category = Letter;
subCategory = Other;
},
{
glyphname = uni07DD.fina;
production = uni07DD.fina;
lastChange = "2019-09-06 15:22:42 +0000";
layers = (
{
anchors = (
{
name = Anchor2;
position = "{371, 795}";
},
{
name = Anchor4;
position = "{405, -49}";
},
{
name = Anchor6;
position = "{386, -49}";
}
);
layerId = UUID0;
paths = (
{
closed = 1;
nodes = (
"450 156 LINE",
"450 545 LINE SMOOTH",
"450 605 OFFCURVE",
"475 636 OFFCURVE",
"522 636 CURVE SMOOTH",
"568 636 OFFCURVE",
"595 604 OFFCURVE",
"595 552 CURVE SMOOTH",
"595 500 OFFCURVE",
"573 455 OFFCURVE",
"490 455 CURVE SMOOTH",
"330 455 LINE",
"330 377 LINE",
"487 377 LINE SMOOTH",
"622 377 OFFCURVE",
"684 452 OFFCURVE",
"684 550 CURVE SMOOTH",
"684 642 OFFCURVE",
"624 714 OFFCURVE",
"527 714 CURVE SMOOTH",
"420 714 OFFCURVE",
"361 646 OFFCURVE",
"361 537 CURVE SMOOTH",
"361 134 LINE"
);
},
{
closed = 1;
nodes = (
"177 0 LINE",
"177 296 LINE SMOOTH",
"177 346 OFFCURVE",
"193 377 OFFCURVE",
"242 377 CURVE SMOOTH",
"365 377 LINE",
"365 455 LINE",
"249 455 LINE SMOOTH",
"140 455 OFFCURVE",
"88 405 OFFCURVE",
"88 303 CURVE SMOOTH",
"88 0 LINE"
);
},
{
closed = 1;
nodes = (
"289 0 LINE",
"398 0 OFFCURVE",
"450 50 OFFCURVE",
"450 152 CURVE SMOOTH",
"450 513 LINE",
"361 513 LINE",
"361 159 LINE SMOOTH",
"361 109 OFFCURVE",
"345 78 OFFCURVE",
"296 78 CURVE SMOOTH",
"173 78 LINE",
"173 0 LINE"
);
},
{
closed = 1;
nodes = (
"767 0 LINE",
"767 78 LINE",
"551 78 LINE SMOOTH",
"500 78 OFFCURVE",
"465 97 OFFCURVE",
"448 135 CURVE",
"430 63 LINE",
"467 21 OFFCURVE",
"492 0 OFFCURVE",
"555 0 CURVE SMOOTH"
);
}
);
width = 733;
}
);
script = nko;
category = Letter;
subCategory = Other;
},
{
glyphname = uni07DD.medi;
production = uni07DD.medi;
lastChange = "2019-09-06 15:22:42 +0000";
layers = (
{
anchors = (
{
name = Anchor2;
position = "{371, 795}";
},
{
name = Anchor4;
position = "{405, -49}";
},
{
name = Anchor6;
position = "{386, -49}";
}
);
layerId = UUID0;
paths = (
{
closed = 1;
nodes = (
"289 0 LINE SMOOTH",
"398 0 OFFCURVE",
"450 50 OFFCURVE",
"450 152 CURVE SMOOTH",
"450 513 LINE",
"361 513 LINE",
"361 159 LINE SMOOTH",
"361 109 OFFCURVE",
"345 78 OFFCURVE",
"296 78 CURVE SMOOTH",
"-34 78 LINE",
"-34 16 LINE",
"-23 8 OFFCURVE",
"3 0 OFFCURVE",
"15 0 CURVE SMOOTH"
);
},
{
closed = 1;
nodes = (
"177 0 LINE",
"177 296 LINE SMOOTH",
"177 346 OFFCURVE",
"193 377 OFFCURVE",
"242 377 CURVE SMOOTH",
"365 377 LINE",
"365 455 LINE",
"249 455 LINE SMOOTH",
"140 455 OFFCURVE",
"88 405 OFFCURVE",
"88 303 CURVE SMOOTH",
"88 0 LINE"
);
},
{
closed = 1;
nodes = (
"767 0 LINE",
"767 78 LINE",
"551 78 LINE SMOOTH",
"500 78 OFFCURVE",
"465 97 OFFCURVE",
"448 135 CURVE",
"430 63 LINE",
"467 21 OFFCURVE",
"492 0 OFFCURVE",
"555 0 CURVE SMOOTH"
);
},
{
closed = 1;
nodes = (
"450 156 LINE",
"450 545 LINE SMOOTH",
"450 605 OFFCURVE",
"475 636 OFFCURVE",
"522 636 CURVE SMOOTH",
"568 636 OFFCURVE",
"595 604 OFFCURVE",
"595 552 CURVE SMOOTH",
"595 500 OFFCURVE",
"573 455 OFFCURVE",
"490 455 CURVE SMOOTH",
"330 455 LINE",
"330 377 LINE",
"487 377 LINE SMOOTH",
"622 377 OFFCURVE",
"684 452 OFFCURVE",
"684 550 CURVE SMOOTH",
"684 642 OFFCURVE",
"624 714 OFFCURVE",
"527 714 CURVE SMOOTH",
"420 714 OFFCURVE",
"361 646 OFFCURVE",
"361 537 CURVE SMOOTH",
"361 134 LINE"
);
}
);
width = 733;
}
);
script = nko;
category = Letter;
subCategory = Other;
},
{
glyphname = uni07DD.init;
production = uni07DD.init;
lastChange = "2019-09-06 15:22:42 +0000";
layers = (
{
anchors = (
{
name = Anchor2;
position = "{371, 795}";
},
{
name = Anchor4;
position = "{269, -49}";
}
);
layerId = UUID0;
paths = (
{
closed = 1;
nodes = (
"289 0 LINE SMOOTH",
"398 0 OFFCURVE",
"450 50 OFFCURVE",
"450 152 CURVE SMOOTH",
"450 513 LINE",
"361 513 LINE",
"361 159 LINE SMOOTH",
"361 109 OFFCURVE",
"345 78 OFFCURVE",
"296 78 CURVE SMOOTH",
"-34 78 LINE",
"-34 16 LINE",
"-23 8 OFFCURVE",
"3 0 OFFCURVE",
"15 0 CURVE SMOOTH"
);
},
{
closed = 1;
nodes = (
"177 0 LINE",
"177 296 LINE SMOOTH",
"177 346 OFFCURVE",
"193 377 OFFCURVE",
"242 377 CURVE SMOOTH",
"365 377 LINE",
"365 455 LINE",
"249 455 LINE SMOOTH",
"140 455 OFFCURVE",
"88 405 OFFCURVE",
"88 303 CURVE SMOOTH",
"88 0 LINE"
);
},
{
closed = 1;
nodes = (
"450 156 LINE",
"450 545 LINE SMOOTH",
"450 605 OFFCURVE",
"475 636 OFFCURVE",
"522 636 CURVE SMOOTH",
"568 636 OFFCURVE",
"595 604 OFFCURVE",
"595 552 CURVE SMOOTH",
"595 500 OFFCURVE",
"573 455 OFFCURVE",
"490 455 CURVE SMOOTH",
"330 455 LINE",
"330 377 LINE",
"487 377 LINE SMOOTH",
"622 377 OFFCURVE",
"684 452 OFFCURVE",
"684 550 CURVE SMOOTH",
"684 642 OFFCURVE",
"624 714 OFFCURVE",
"527 714 CURVE SMOOTH",
"420 714 OFFCURVE",
"361 646 OFFCURVE",
"361 537 CURVE SMOOTH",
"361 134 LINE"
);
}
);
width = 733;
}
);
script = nko;
category = Letter;
subCategory = Other;
},
{
glyphname = uni07DE.fina;
production = uni07DE.fina;
lastChange = "2019-09-06 15:22:42 +0000";
layers = (
{
anchors = (
{
name = Anchor2;
position = "{263, 795}";
},
{
name = Anchor4;
position = "{468, -49}";
},
{
name = Anchor6;
position = "{267, -49}";
}
);
layerId = UUID0;
paths = (
{
closed = 1;
nodes = (
"456 0 LINE",
"456 714 LINE",
"367 714 LINE",
"367 0 LINE"
);
},
{
closed = 1;
nodes = (
"578 0 LINE",
"578 78 LINE",
"411 78 LINE",
"411 0 LINE"
);
},
{
closed = 1;
nodes = (
"167 286 LINE",
"167 643 LINE",
"78 643 LINE",
"78 286 LINE"
);
},
{
closed = 1;
nodes = (
"425 435 LINE",
"425 513 LINE",
"122 513 LINE",
"122 435 LINE"
);
}
);
width = 544;
}
);
script = nko;
category = Letter;
subCategory = Other;
},
{
glyphname = uni07DE.medi;
production = uni07DE.medi;
lastChange = "2019-09-06 15:22:42 +0000";
layers = (
{
anchors = (
{
name = Anchor2;
position = "{263, 795}";
},
{
name = Anchor4;
position = "{219, -49}";
},
{
name = Anchor6;
position = "{272, -49}";
}
);
layerId = UUID0;
paths = (
{
closed = 1;
nodes = (
"456 74 LINE",
"456 714 LINE",
"367 714 LINE",
"367 25 LINE"
);
},
{
closed = 1;
nodes = (
"334 0 LINE SMOOTH",
"403 0 OFFCURVE",
"456 36 OFFCURVE",
"456 117 CURVE",
"450 117 LINE",
"435 98 OFFCURVE",
"421 78 OFFCURVE",
"379 78 CURVE SMOOTH",
"-34 78 LINE",
"-34 16 LINE",
"-23 8 OFFCURVE",
"3 0 OFFCURVE",
"15 0 CURVE SMOOTH"
);
},
{
closed = 1;
nodes = (
"578 0 LINE",
"578 78 LINE",
"559 78 LINE SMOOTH",
"508 78 OFFCURVE",
"473 97 OFFCURVE",
"456 135 CURVE",
"438 62 LINE",
"469 21 OFFCURVE",
"491 0 OFFCURVE",
"544 0 CURVE SMOOTH"
);
},
{
closed = 1;
nodes = (
"167 286 LINE",
"167 643 LINE",
"78 643 LINE",
"78 286 LINE"
);
},
{
closed = 1;
nodes = (
"425 435 LINE",
"425 513 LINE",
"122 513 LINE",
"122 435 LINE"
);
}
);
width = 544;
}
);
script = nko;
category = Letter;
subCategory = Other;
},
{
glyphname = uni07DE.init;
production = uni07DE.init;
lastChange = "2019-09-06 15:22:42 +0000";
layers = (
{
anchors = (
{
name = Anchor2;
position = "{263, 795}";
},
{
name = Anchor4;
position = "{229, -49}";
}
);
layerId = UUID0;
paths = (
{
closed = 1;
nodes = (
"456 117 LINE",
"456 714 LINE",
"367 714 LINE",
"367 25 LINE"
);
},
{
closed = 1;
nodes = (
"334 0 LINE SMOOTH",
"403 0 OFFCURVE",
"456 36 OFFCURVE",
"456 117 CURVE",
"450 117 LINE",
"435 98 OFFCURVE",
"421 78 OFFCURVE",
"379 78 CURVE SMOOTH",
"-34 78 LINE",
"-34 16 LINE",
"-23 8 OFFCURVE",
"3 0 OFFCURVE",
"15 0 CURVE SMOOTH"
);
},
{
closed = 1;
nodes = (
"167 286 LINE",
"167 643 LINE",
"78 643 LINE",
"78 286 LINE"
);
},
{
closed = 1;
nodes = (
"425 435 LINE",
"425 513 LINE",
"122 513 LINE",
"122 435 LINE"
);
}
);
width = 544;
}
);
script = nko;
category = Letter;
subCategory = Other;
},
{
glyphname = uni07DF.fina;
production = uni07DF.fina;
lastChange = "2019-09-06 15:22:42 +0000";
layers = (
{
anchors = (
{
name = Anchor2;
position = "{214, 795}";
},
{
name = Anchor4;
position = "{463, -49}";
},
{
name = Anchor6;
position = "{293, -49}";
}
);
layerId = UUID0;
paths = (
{
closed = 1;
nodes = (
"388 0 LINE",
"388 536 LINE SMOOTH",
"388 640 OFFCURVE",
"332 714 OFFCURVE",
"222 714 CURVE SMOOTH",
"122 714 OFFCURVE",
"46 649 OFFCURVE",
"46 537 CURVE SMOOTH",
"46 430 OFFCURVE",
"115 353 OFFCURVE",
"258 353 CURVE SMOOTH",
"539 353 LINE",
"539 431 LINE",
"261 431 LINE SMOOTH",
"173 431 OFFCURVE",
"135 474 OFFCURVE",
"135 541 CURVE SMOOTH",
"135 600 OFFCURVE",
"170 636 OFFCURVE",
"221 636 CURVE SMOOTH",
"273 636 OFFCURVE",
"299 602 OFFCURVE",
"299 543 CURVE SMOOTH",
"299 0 LINE"
);
},
{
closed = 1;
nodes = (
"612 0 LINE",
"612 78 LINE",
"336 78 LINE",
"336 0 LINE"
);
}
);
width = 578;
}
);
script = nko;
category = Letter;
subCategory = Other;
},
{
glyphname = uni07DF.medi;
production = uni07DF.medi;
lastChange = "2019-09-06 15:22:42 +0000";
layers = (
{
anchors = (
{
name = Anchor2;
position = "{214, 795}";
},
{
name = Anchor4;
position = "{346, -49}";
},
{
name = Anchor6;
position = "{293, -49}";
}
);
layerId = UUID0;
paths = (
{
closed = 1;
nodes = (
"388 117 LINE",
"388 536 LINE SMOOTH",
"388 640 OFFCURVE",
"332 714 OFFCURVE",
"222 714 CURVE SMOOTH",
"122 714 OFFCURVE",
"46 649 OFFCURVE",
"46 537 CURVE SMOOTH",
"46 430 OFFCURVE",
"115 353 OFFCURVE",
"258 353 CURVE SMOOTH",
"539 353 LINE",
"539 431 LINE",
"261 431 LINE SMOOTH",
"173 431 OFFCURVE",
"135 474 OFFCURVE",
"135 541 CURVE SMOOTH",
"135 600 OFFCURVE",
"170 636 OFFCURVE",
"221 636 CURVE SMOOTH",
"273 636 OFFCURVE",
"299 602 OFFCURVE",
"299 543 CURVE SMOOTH",
"299 6 LINE"
);
},
{
closed = 1;
nodes = (
"266 0 LINE SMOOTH",
"335 0 OFFCURVE",
"388 36 OFFCURVE",
"388 117 CURVE",
"382 117 LINE",
"367 98 OFFCURVE",
"353 78 OFFCURVE",
"311 78 CURVE SMOOTH",
"-34 78 LINE",
"-34 16 LINE",
"-23 8 OFFCURVE",
"3 0 OFFCURVE",
"15 0 CURVE SMOOTH"
);
},
{
closed = 1;
nodes = (
"612 0 LINE",
"612 78 LINE",
"491 78 LINE SMOOTH",
"440 78 OFFCURVE",
"405 97 OFFCURVE",
"388 135 CURVE",
"370 63 LINE",
"407 21 OFFCURVE",
"432 0 OFFCURVE",
"495 0 CURVE SMOOTH"
);
}
);
width = 578;
}
);
script = nko;
category = Letter;
subCategory = Other;
},
{
glyphname = uni07DF.init;
production = uni07DF.init;
lastChange = "2019-09-06 15:22:42 +0000";
layers = (
{
anchors = (
{
name = Anchor2;
position = "{214, 795}";
},
{
name = Anchor4;
position = "{217, -49}";
}
);
layerId = UUID0;
paths = (
{
closed = 1;
nodes = (
"388 117 LINE",
"388 536 LINE SMOOTH",
"388 640 OFFCURVE",
"332 714 OFFCURVE",
"222 714 CURVE SMOOTH",
"122 714 OFFCURVE",
"46 649 OFFCURVE",
"46 537 CURVE SMOOTH",
"46 430 OFFCURVE",
"115 353 OFFCURVE",
"258 353 CURVE SMOOTH",
"539 353 LINE",
"539 431 LINE",
"261 431 LINE SMOOTH",
"173 431 OFFCURVE",
"135 474 OFFCURVE",
"135 541 CURVE SMOOTH",
"135 600 OFFCURVE",
"170 636 OFFCURVE",
"221 636 CURVE SMOOTH",
"273 636 OFFCURVE",
"299 602 OFFCURVE",
"299 543 CURVE SMOOTH",
"299 6 LINE"
);
},
{
closed = 1;
nodes = (
"266 0 LINE SMOOTH",
"335 0 OFFCURVE",
"388 36 OFFCURVE",
"388 117 CURVE",
"382 117 LINE",
"367 98 OFFCURVE",
"353 78 OFFCURVE",
"311 78 CURVE SMOOTH",
"-34 78 LINE",
"-34 16 LINE",
"-23 8 OFFCURVE",
"3 0 OFFCURVE",
"15 0 CURVE SMOOTH"
);
}
);
width = 578;
}
);
script = nko;
category = Letter;
subCategory = Other;
},
{
glyphname = uni07E0.fina;
production = uni07E0.fina;
lastChange = "2019-09-06 15:22:42 +0000";
layers = (
{
anchors = (
{
name = Anchor2;
position = "{263, 795}";
},
{
name = Anchor4;
position = "{380, -49}";
},
{
name = Anchor6;
position = "{261, -49}";
}
);
layerId = UUID0;
paths = (
{
closed = 1;
nodes = (
"305 0 LINE",
"305 714 LINE",
"216 714 LINE",
"216 0 LINE"
);
},
{
closed = 1;
nodes = (
"555 0 LINE",
"555 78 LINE",
"254 78 LINE",
"254 0 LINE"
);
},
{
closed = 1;
nodes = (
"471 636 LINE",
"471 714 LINE",
"50 714 LINE",
"50 636 LINE"
);
}
);
width = 521;
}
);
script = nko;
category = Letter;
subCategory = Other;
},
{
glyphname = uni07E0.medi;
production = uni07E0.medi;
lastChange = "2019-09-06 15:22:42 +0000";
layers = (
{
anchors = (
{
name = Anchor2;
position = "{263, 795}";
},
{
name = Anchor4;
position = "{258, -49}";
},
{
name = Anchor6;
position = "{261, -49}";
}
);
layerId = UUID0;
paths = (
{
closed = 1;
nodes = (
"305 117 LINE",
"305 714 LINE",
"216 714 LINE",
"216 12 LINE"
);
},
{
closed = 1;
nodes = (
"183 0 LINE SMOOTH",
"252 0 OFFCURVE",
"305 36 OFFCURVE",
"305 117 CURVE",
"299 117 LINE",
"284 98 OFFCURVE",
"270 78 OFFCURVE",
"228 78 CURVE SMOOTH",
"-34 78 LINE",
"-34 16 LINE",
"-23 8 OFFCURVE",
"3 0 OFFCURVE",
"15 0 CURVE SMOOTH"
);
},
{
closed = 1;
nodes = (
"555 0 LINE",
"555 78 LINE",
"408 78 LINE SMOOTH",
"357 78 OFFCURVE",
"322 97 OFFCURVE",
"305 135 CURVE",
"287 63 LINE",
"324 21 OFFCURVE",
"349 0 OFFCURVE",
"412 0 CURVE SMOOTH"
);
},
{
closed = 1;
nodes = (
"471 636 LINE",
"471 714 LINE",
"50 714 LINE",
"50 636 LINE"
);
}
);
width = 521;
}
);
script = nko;
category = Letter;
subCategory = Other;
},
{
glyphname = uni07E0.init;
production = uni07E0.init;
lastChange = "2019-09-06 15:22:42 +0000";
layers = (
{
anchors = (
{
name = Anchor2;
position = "{263, 795}";
},
{
name = Anchor4;
position = "{231, -49}";
}
);
layerId = UUID0;
paths = (
{
closed = 1;
nodes = (
"305 117 LINE",
"305 714 LINE",
"216 714 LINE",
"216 12 LINE"
);
},
{
closed = 1;
nodes = (
"183 0 LINE SMOOTH",
"252 0 OFFCURVE",
"305 36 OFFCURVE",
"305 117 CURVE",
"299 117 LINE",
"284 98 OFFCURVE",
"270 78 OFFCURVE",
"228 78 CURVE SMOOTH",
"-34 78 LINE",
"-34 16 LINE",
"-23 8 OFFCURVE",
"3 0 OFFCURVE",
"15 0 CURVE SMOOTH"
);
},
{
closed = 1;
nodes = (
"471 636 LINE",
"471 714 LINE",
"50 714 LINE",
"50 636 LINE"
);
}
);
width = 521;
}
);
script = nko;
category = Letter;
subCategory = Other;
},
{
glyphname = uni07E1.fina;
production = uni07E1.fina;
lastChange = "2019-09-06 15:22:42 +0000";
layers = (
{
anchors = (
{
name = Anchor2;
position = "{283, 795}";
},
{
name = Anchor4;
position = "{283, -49}";
},
{
name = Anchor6;
position = "{288, -49}";
}
);
layerId = UUID0;
paths = (
{
closed = 1;
nodes = (
"130 44 LINE",
"254 457 LINE SMOOTH",
"270 509 OFFCURVE",
"277 545 OFFCURVE",
"286 591 CURVE",
"294 546 OFFCURVE",
"303 515 OFFCURVE",
"321 455 CURVE SMOOTH",
"444 44 LINE",
"537 44 LINE",
"332 714 LINE",
"243 714 LINE",
"39 44 LINE"
);
},
{
closed = 1;
nodes = (
"537 0 LINE",
"537 44 LINE",
"476 78 LINE",
"95 78 LINE",
"39 44 LINE",
"39 0 LINE"
);
},
{
closed = 1;
nodes = (
"610 0 LINE",
"610 78 LINE",
"168 78 LINE",
"168 0 LINE"
);
}
);
width = 576;
}
);
script = nko;
category = Letter;
subCategory = Other;
},
{
glyphname = uni07E1.medi;
production = uni07E1.medi;
lastChange = "2019-09-06 15:22:42 +0000";
layers = (
{
anchors = (
{
name = Anchor2;
position = "{283, 795}";
},
{
name = Anchor4;
position = "{283, -49}";
},
{
name = Anchor6;
position = "{288, -49}";
}
);
layerId = UUID0;
paths = (
{
closed = 1;
nodes = (
"130 44 LINE",
"254 457 LINE SMOOTH",
"270 509 OFFCURVE",
"277 545 OFFCURVE",
"286 591 CURVE",
"294 545 OFFCURVE",
"303 515 OFFCURVE",
"321 455 CURVE SMOOTH",
"444 44 LINE",
"537 44 LINE",
"332 714 LINE",
"243 714 LINE",
"39 44 LINE"
);
},
{
closed = 1;
nodes = (
"610 0 LINE",
"610 78 LINE",
"-34 78 LINE",
"-34 0 LINE"
);
}
);
width = 576;
}
);
script = nko;
category = Letter;
subCategory = Other;
},
{
glyphname = uni07E1.init;
production = uni07E1.init;
lastChange = "2019-09-06 15:22:42 +0000";
layers = (
{
anchors = (
{
name = Anchor2;
position = "{283, 795}";
},
{
name = Anchor4;
position = "{283, -49}";
}
);
layerId = UUID0;
paths = (
{
closed = 1;
nodes = (
"130 44 LINE",
"254 457 LINE SMOOTH",
"270 509 OFFCURVE",
"277 545 OFFCURVE",
"286 591 CURVE",
"294 545 OFFCURVE",
"303 515 OFFCURVE",
"321 455 CURVE SMOOTH",
"444 44 LINE",
"537 44 LINE",
"332 714 LINE",
"243 714 LINE",
"39 44 LINE"
);
},
{
closed = 1;
nodes = (
"55 0 LINE",
"100 78 LINE",
"-34 78 LINE",
"-34 16 LINE",
"-23 8 OFFCURVE",
"3 0 OFFCURVE",
"15 0 CURVE SMOOTH"
);
},
{
closed = 1;
nodes = (
"537 0 LINE",
"537 44 LINE",
"476 78 LINE",
"95 78 LINE",
"39 44 LINE",
"39 0 LINE"
);
}
);
width = 576;
}
);
script = nko;
category = Letter;
subCategory = Other;
},
{
glyphname = uni07E2.fina;
production = uni07E2.fina;
lastChange = "2019-09-06 15:22:42 +0000";
layers = (
{
anchors = (
{
name = Anchor2;
position = "{253, 795}";
},
{
name = Anchor4;
position = "{280, -49}";
},
{
name = Anchor6;
position = "{280, -49}";
}
);
layerId = UUID0;
paths = (
{
closed = 1;
nodes = (
"412 200 OFFCURVE",
"472 272 OFFCURVE",
"472 363 CURVE SMOOTH",
"472 458 OFFCURVE",
"412 526 OFFCURVE",
"279 526 CURVE SMOOTH",
"151 526 OFFCURVE",
"87 459 OFFCURVE",
"87 364 CURVE SMOOTH",
"87 271 OFFCURVE",
"146 200 OFFCURVE",
"283 200 CURVE SMOOTH"
);
},
{
closed = 1;
nodes = (
"324 0 LINE",
"324 252 LINE",
"235 252 LINE",
"235 0 LINE"
);
},
{
closed = 1;
nodes = (
"575 0 LINE",
"575 78 LINE",
"282 78 LINE",
"282 0 LINE"
);
},
{
closed = 1;
nodes = (
"210 278 OFFCURVE",
"177 313 OFFCURVE",
"177 363 CURVE SMOOTH",
"177 413 OFFCURVE",
"211 448 OFFCURVE",
"279 448 CURVE SMOOTH",
"345 448 OFFCURVE",
"382 416 OFFCURVE",
"382 363 CURVE SMOOTH",
"382 310 OFFCURVE",
"346 278 OFFCURVE",
"281 278 CURVE SMOOTH"
);
},
{
closed = 1;
nodes = (
"284 636 LINE",
"284 714 LINE",
"49 714 LINE",
"49 636 LINE"
);
},
{
closed = 1;
nodes = (
"324 468 LINE",
"324 714 LINE",
"235 714 LINE",
"235 468 LINE"
);
}
);
width = 541;
}
);
script = nko;
category = Letter;
subCategory = Other;
},
{
glyphname = uni07E2.medi;
production = uni07E2.medi;
lastChange = "2019-09-06 15:22:42 +0000";
layers = (
{
anchors = (
{
name = Anchor2;
position = "{253, 795}";
},
{
name = Anchor4;
position = "{283, -49}";
},
{
name = Anchor6;
position = "{280, -49}";
}
);
layerId = UUID0;
paths = (
{
closed = 1;
nodes = (
"412 200 OFFCURVE",
"472 272 OFFCURVE",
"472 363 CURVE SMOOTH",
"472 458 OFFCURVE",
"412 526 OFFCURVE",
"279 526 CURVE SMOOTH",
"151 526 OFFCURVE",
"87 459 OFFCURVE",
"87 364 CURVE SMOOTH",
"87 271 OFFCURVE",
"146 200 OFFCURVE",
"283 200 CURVE SMOOTH"
);
},
{
closed = 1;
nodes = (
"202 0 LINE SMOOTH",
"271 0 OFFCURVE",
"324 36 OFFCURVE",
"324 117 CURVE",
"318 117 LINE",
"303 98 OFFCURVE",
"289 78 OFFCURVE",
"247 78 CURVE SMOOTH",
"-34 78 LINE",
"-34 16 LINE",
"-23 8 OFFCURVE",
"3 0 OFFCURVE",
"15 0 CURVE SMOOTH"
);
},
{
closed = 1;
nodes = (
"324 117 LINE",
"324 252 LINE",
"235 252 LINE",
"235 11 LINE"
);
},
{
closed = 1;
nodes = (
"575 0 LINE",
"575 78 LINE",
"427 78 LINE SMOOTH",
"376 78 OFFCURVE",
"341 97 OFFCURVE",
"324 135 CURVE",
"306 63 LINE",
"343 21 OFFCURVE",
"368 0 OFFCURVE",
"431 0 CURVE SMOOTH"
);
},
{
closed = 1;
nodes = (
"210 278 OFFCURVE",
"177 313 OFFCURVE",
"177 363 CURVE SMOOTH",
"177 413 OFFCURVE",
"211 448 OFFCURVE",
"279 448 CURVE SMOOTH",
"345 448 OFFCURVE",
"382 416 OFFCURVE",
"382 363 CURVE SMOOTH",
"382 310 OFFCURVE",
"346 278 OFFCURVE",
"281 278 CURVE SMOOTH"
);
},
{
closed = 1;
nodes = (
"284 636 LINE",
"284 714 LINE",
"49 714 LINE",
"49 636 LINE"
);
},
{
closed = 1;
nodes = (
"324 468 LINE",
"324 714 LINE",
"235 714 LINE",
"235 468 LINE"
);
}
);
width = 541;
}
);
script = nko;
category = Letter;
subCategory = Other;
},
{
glyphname = uni07E2.init;
production = uni07E2.init;
lastChange = "2019-09-06 15:22:42 +0000";
layers = (
{
anchors = (
{
name = Anchor2;
position = "{253, 795}";
},
{
name = Anchor4;
position = "{260, -49}";
}
);
layerId = UUID0;
paths = (
{
closed = 1;
nodes = (
"412 200 OFFCURVE",
"472 272 OFFCURVE",
"472 363 CURVE SMOOTH",
"472 458 OFFCURVE",
"412 526 OFFCURVE",
"279 526 CURVE SMOOTH",
"151 526 OFFCURVE",
"87 459 OFFCURVE",
"87 364 CURVE SMOOTH",
"87 271 OFFCURVE",
"146 200 OFFCURVE",
"283 200 CURVE SMOOTH"
);
},
{
closed = 1;
nodes = (
"202 0 LINE SMOOTH",
"271 0 OFFCURVE",
"324 36 OFFCURVE",
"324 117 CURVE",
"318 117 LINE",
"303 98 OFFCURVE",
"289 78 OFFCURVE",
"247 78 CURVE SMOOTH",
"-34 78 LINE",
"-34 16 LINE",
"-23 8 OFFCURVE",
"3 0 OFFCURVE",
"15 0 CURVE SMOOTH"
);
},
{
closed = 1;
nodes = (
"324 117 LINE",
"324 252 LINE",
"235 252 LINE",
"235 11 LINE"
);
},
{
closed = 1;
nodes = (
"210 278 OFFCURVE",
"177 313 OFFCURVE",
"177 363 CURVE SMOOTH",
"177 413 OFFCURVE",
"211 448 OFFCURVE",
"279 448 CURVE SMOOTH",
"345 448 OFFCURVE",
"382 416 OFFCURVE",
"382 363 CURVE SMOOTH",
"382 310 OFFCURVE",
"346 278 OFFCURVE",
"281 278 CURVE SMOOTH"
);
},
{
closed = 1;
nodes = (
"284 636 LINE",
"284 714 LINE",
"49 714 LINE",
"49 636 LINE"
);
},
{
closed = 1;
nodes = (
"324 468 LINE",
"324 714 LINE",
"235 714 LINE",
"235 468 LINE"
);
}
);
width = 541;
}
);
script = nko;
category = Letter;
subCategory = Other;
},
{
glyphname = uni07E3.fina;
production = uni07E3.fina;
lastChange = "2019-09-06 15:22:42 +0000";
layers = (
{
anchors = (
{
name = Anchor2;
position = "{263, 795}";
},
{
name = Anchor4;
position = "{267, -49}";
},
{
name = Anchor6;
position = "{267, -49}";
}
);
layerId = UUID0;
paths = (
{
closed = 1;
nodes = (
"167 405 LINE",
"167 555 LINE SMOOTH",
"167 605 OFFCURVE",
"183 636 OFFCURVE",
"232 636 CURVE SMOOTH",
"385 636 LINE",
"385 714 LINE",
"239 714 LINE SMOOTH",
"130 714 OFFCURVE",
"78 664 OFFCURVE",
"78 562 CURVE SMOOTH",
"78 405 LINE"
);
},
{
closed = 1;
nodes = (
"578 0 LINE",
"578 78 LINE",
"407 78 LINE",
"407 0 LINE"
);
},
{
closed = 1;
nodes = (
"456 0 LINE",
"456 714 LINE",
"367 714 LINE",
"367 0 LINE"
);
}
);
width = 544;
}
);
script = nko;
category = Letter;
subCategory = Other;
},
{
glyphname = uni07E3.medi;
production = uni07E3.medi;
lastChange = "2019-09-06 15:22:42 +0000";
layers = (
{
anchors = (
{
name = Anchor2;
position = "{263, 795}";
},
{
name = Anchor4;
position = "{239, -49}";
},
{
name = Anchor6;
position = "{267, -49}";
}
);
layerId = UUID0;
paths = (
{
closed = 1;
nodes = (
"167 405 LINE",
"167 555 LINE SMOOTH",
"167 605 OFFCURVE",
"183 636 OFFCURVE",
"232 636 CURVE SMOOTH",
"385 636 LINE",
"385 714 LINE",
"239 714 LINE SMOOTH",
"130 714 OFFCURVE",
"78 664 OFFCURVE",
"78 562 CURVE SMOOTH",
"78 405 LINE"
);
},
{
closed = 1;
nodes = (
"334 0 LINE SMOOTH",
"403 0 OFFCURVE",
"456 36 OFFCURVE",
"456 117 CURVE",
"450 117 LINE",
"435 98 OFFCURVE",
"421 78 OFFCURVE",
"379 78 CURVE SMOOTH",
"-34 78 LINE",
"-34 16 LINE",
"-23 8 OFFCURVE",
"3 0 OFFCURVE",
"15 0 CURVE SMOOTH"
);
},
{
closed = 1;
nodes = (
"578 0 LINE",
"578 78 LINE",
"559 78 LINE SMOOTH",
"508 78 OFFCURVE",
"473 97 OFFCURVE",
"456 135 CURVE",
"438 62 LINE",
"469 21 OFFCURVE",
"491 0 OFFCURVE",
"544 0 CURVE SMOOTH"
);
},
{
closed = 1;
nodes = (
"456 64 LINE",
"456 714 LINE",
"367 714 LINE",
"367 64 LINE"
);
}
);
width = 544;
}
);
script = nko;
category = Letter;
subCategory = Other;
},
{
glyphname = uni07E3.init;
production = uni07E3.init;
lastChange = "2019-09-06 15:22:42 +0000";
layers = (
{
anchors = (
{
name = Anchor2;
position = "{263, 795}";
},
{
name = Anchor4;
position = "{239, -49}";
}
);
layerId = UUID0;
paths = (
{
closed = 1;
nodes = (
"167 405 LINE",
"167 555 LINE SMOOTH",
"167 605 OFFCURVE",
"183 636 OFFCURVE",
"232 636 CURVE SMOOTH",
"385 636 LINE",
"385 714 LINE",
"239 714 LINE SMOOTH",
"130 714 OFFCURVE",
"78 664 OFFCURVE",
"78 562 CURVE SMOOTH",
"78 405 LINE"
);
},
{
closed = 1;
nodes = (
"334 0 LINE SMOOTH",
"403 0 OFFCURVE",
"456 36 OFFCURVE",
"456 117 CURVE",
"450 117 LINE",
"435 98 OFFCURVE",
"421 78 OFFCURVE",
"379 78 CURVE SMOOTH",
"-34 78 LINE",
"-34 16 LINE",
"-23 8 OFFCURVE",
"3 0 OFFCURVE",
"15 0 CURVE SMOOTH"
);
},
{
closed = 1;
nodes = (
"456 117 LINE",
"456 714 LINE",
"367 714 LINE",
"367 23 LINE"
);
}
);
width = 544;
}
);
script = nko;
category = Letter;
subCategory = Other;
},
{
glyphname = uni07E4.fina;
production = uni07E4.fina;
lastChange = "2019-09-06 15:22:42 +0000";
layers = (
{
anchors = (
{
name = Anchor2;
position = "{263, 795}";
},
{
name = Anchor4;
position = "{267, -49}";
},
{
name = Anchor6;
position = "{267, -49}";
}
);
layerId = UUID0;
paths = (
{
closed = 1;
nodes = (
"456 0 LINE",
"456 559 LINE",
"367 559 LINE",
"367 0 LINE"
);
},
{
closed = 1;
nodes = (
"578 0 LINE",
"578 78 LINE",
"407 78 LINE",
"407 0 LINE"
);
},
{
closed = 1;
nodes = (
"167 329 LINE",
"167 714 LINE",
"78 714 LINE",
"78 329 LINE"
);
},
{
closed = 1;
nodes = (
"426 481 LINE",
"426 559 LINE",
"109 559 LINE",
"109 481 LINE"
);
}
);
width = 544;
}
);
script = nko;
category = Letter;
subCategory = Other;
},
{
glyphname = uni07E4.medi;
production = uni07E4.medi;
lastChange = "2019-09-06 15:22:42 +0000";
layers = (
{
anchors = (
{
name = Anchor2;
position = "{263, 795}";
},
{
name = Anchor4;
position = "{234, -49}";
},
{
name = Anchor6;
position = "{275, -49}";
}
);
layerId = UUID0;
paths = (
{
closed = 1;
nodes = (
"334 0 LINE SMOOTH",
"403 0 OFFCURVE",
"456 36 OFFCURVE",
"456 117 CURVE",
"450 117 LINE",
"435 98 OFFCURVE",
"421 78 OFFCURVE",
"379 78 CURVE SMOOTH",
"-34 78 LINE",
"-34 16 LINE",
"-23 8 OFFCURVE",
"3 0 OFFCURVE",
"15 0 CURVE SMOOTH"
);
},
{
closed = 1;
nodes = (
"578 0 LINE",
"578 78 LINE",
"559 78 LINE SMOOTH",
"508 78 OFFCURVE",
"473 97 OFFCURVE",
"456 135 CURVE",
"438 62 LINE",
"469 21 OFFCURVE",
"491 0 OFFCURVE",
"544 0 CURVE SMOOTH"
);
},
{
closed = 1;
nodes = (
"167 329 LINE",
"167 714 LINE",
"78 714 LINE",
"78 329 LINE"
);
},
{
closed = 1;
nodes = (
"456 117 LINE",
"456 559 LINE",
"367 559 LINE",
"367 12 LINE"
);
},
{
closed = 1;
nodes = (
"426 481 LINE",
"426 559 LINE",
"109 559 LINE",
"109 481 LINE"
);
}
);
width = 544;
}
);
script = nko;
category = Letter;
subCategory = Other;
},
{
glyphname = uni07E4.init;
production = uni07E4.init;
lastChange = "2019-09-06 15:22:42 +0000";
layers = (
{
anchors = (
{
name = Anchor2;
position = "{263, 795}";
},
{
name = Anchor4;
position = "{234, -49}";
}
);
layerId = UUID0;
paths = (
{
closed = 1;
nodes = (
"334 0 LINE SMOOTH",
"403 0 OFFCURVE",
"456 36 OFFCURVE",
"456 117 CURVE",
"450 117 LINE",
"435 98 OFFCURVE",
"421 78 OFFCURVE",
"379 78 CURVE SMOOTH",
"-34 78 LINE",
"-34 16 LINE",
"-23 8 OFFCURVE",
"3 0 OFFCURVE",
"15 0 CURVE SMOOTH"
);
},
{
closed = 1;
nodes = (
"167 329 LINE",
"167 714 LINE",
"78 714 LINE",
"78 329 LINE"
);
},
{
closed = 1;
nodes = (
"456 117 LINE",
"456 559 LINE",
"367 559 LINE",
"367 12 LINE"
);
},
{
closed = 1;
nodes = (
"426 481 LINE",
"426 559 LINE",
"109 559 LINE",
"109 481 LINE"
);
}
);
width = 544;
}
);
script = nko;
category = Letter;
subCategory = Other;
},
{
glyphname = uni07E5.fina;
production = uni07E5.fina;
lastChange = "2019-09-06 15:22:42 +0000";
layers = (
{
anchors = (
{
name = Anchor2;
position = "{263, 795}";
},
{
name = Anchor4;
position = "{268, -49}";
},
{
name = Anchor6;
position = "{266, -49}";
}
);
layerId = UUID0;
paths = (
{
closed = 1;
nodes = (
"177 0 LINE",
"177 272 LINE SMOOTH",
"177 322 OFFCURVE",
"193 353 OFFCURVE",
"242 353 CURVE SMOOTH",
"365 353 LINE",
"365 431 LINE",
"249 431 LINE SMOOTH",
"140 431 OFFCURVE",
"88 381 OFFCURVE",
"88 279 CURVE SMOOTH",
"88 0 LINE"
);
},
{
closed = 1;
nodes = (
"315 0 LINE SMOOTH",
"384 0 OFFCURVE",
"437 36 OFFCURVE",
"437 117 CURVE",
"431 117 LINE",
"416 98 OFFCURVE",
"402 78 OFFCURVE",
"360 78 CURVE SMOOTH",
"125 78 LINE",
"125 16 LINE",
"136 8 OFFCURVE",
"162 0 OFFCURVE",
"174 0 CURVE SMOOTH"
);
},
{
closed = 1;
nodes = (
"559 0 LINE",
"559 78 LINE",
"540 78 LINE SMOOTH",
"489 78 OFFCURVE",
"454 97 OFFCURVE",
"437 135 CURVE",
"419 62 LINE",
"450 21 OFFCURVE",
"472 0 OFFCURVE",
"525 0 CURVE SMOOTH"
);
},
{
closed = 1;
nodes = (
"437 62 LINE",
"437 714 LINE",
"348 714 LINE",
"348 62 LINE"
);
},
{
closed = 1;
nodes = (
"365 636 LINE",
"365 714 LINE",
"98 714 LINE",
"98 636 LINE"
);
}
);
width = 525;
}
);
script = nko;
category = Letter;
subCategory = Other;
},
{
glyphname = uni07E5.medi;
production = uni07E5.medi;
lastChange = "2019-09-06 15:22:42 +0000";
layers = (
{
anchors = (
{
name = Anchor2;
position = "{263, 795}";
},
{
name = Anchor4;
position = "{268, -49}";
},
{
name = Anchor6;
position = "{269, -49}";
}
);
layerId = UUID0;
paths = (
{
closed = 1;
nodes = (
"177 0 LINE",
"177 272 LINE SMOOTH",
"177 322 OFFCURVE",
"193 353 OFFCURVE",
"242 353 CURVE SMOOTH",
"365 353 LINE",
"365 431 LINE",
"249 431 LINE SMOOTH",
"140 431 OFFCURVE",
"88 381 OFFCURVE",
"88 279 CURVE SMOOTH",
"88 0 LINE"
);
},
{
closed = 1;
nodes = (
"315 0 LINE SMOOTH",
"384 0 OFFCURVE",
"437 36 OFFCURVE",
"437 117 CURVE",
"431 117 LINE",
"416 98 OFFCURVE",
"402 78 OFFCURVE",
"360 78 CURVE SMOOTH",
"-34 78 LINE",
"-34 16 LINE",
"-23 8 OFFCURVE",
"3 0 OFFCURVE",
"15 0 CURVE SMOOTH"
);
},
{
closed = 1;
nodes = (
"559 0 LINE",
"559 78 LINE",
"540 78 LINE SMOOTH",
"489 78 OFFCURVE",
"454 97 OFFCURVE",
"437 135 CURVE",
"419 62 LINE",
"450 21 OFFCURVE",
"472 0 OFFCURVE",
"525 0 CURVE SMOOTH"
);
},
{
closed = 1;
nodes = (
"437 62 LINE",
"437 714 LINE",
"348 714 LINE",
"348 62 LINE"
);
},
{
closed = 1;
nodes = (
"365 636 LINE",
"365 714 LINE",
"98 714 LINE",
"98 636 LINE"
);
}
);
width = 525;
}
);
script = nko;
category = Letter;
subCategory = Other;
},
{
glyphname = uni07E5.init;
production = uni07E5.init;
lastChange = "2019-09-06 15:22:42 +0000";
layers = (
{
anchors = (
{
name = Anchor2;
position = "{263, 795}";
},
{
name = Anchor4;
position = "{263, -49}";
}
);
layerId = UUID0;
paths = (
{
closed = 1;
nodes = (
"177 0 LINE",
"177 272 LINE SMOOTH",
"177 322 OFFCURVE",
"193 353 OFFCURVE",
"242 353 CURVE SMOOTH",
"365 353 LINE",
"365 431 LINE",
"249 431 LINE SMOOTH",
"140 431 OFFCURVE",
"88 381 OFFCURVE",
"88 279 CURVE SMOOTH",
"88 0 LINE"
);
},
{
closed = 1;
nodes = (
"315 0 LINE SMOOTH",
"384 0 OFFCURVE",
"437 36 OFFCURVE",
"437 117 CURVE",
"431 117 LINE",
"416 98 OFFCURVE",
"402 78 OFFCURVE",
"360 78 CURVE SMOOTH",
"-34 78 LINE",
"-34 16 LINE",
"-23 8 OFFCURVE",
"3 0 OFFCURVE",
"15 0 CURVE SMOOTH"
);
},
{
closed = 1;
nodes = (
"437 117 LINE",
"437 714 LINE",
"348 714 LINE",
"348 26 LINE"
);
},
{
closed = 1;
nodes = (
"365 636 LINE",
"365 714 LINE",
"98 714 LINE",
"98 636 LINE"
);
}
);
width = 525;
}
);
script = nko;
category = Letter;
subCategory = Other;
},
{
glyphname = uni07E6.fina;
production = uni07E6.fina;
lastChange = "2019-09-06 15:22:42 +0000";
layers = (
{
anchors = (
{
name = Anchor2;
position = "{263, 795}";
},
{
name = Anchor4;
position = "{261, -49}";
},
{
name = Anchor6;
position = "{271, -49}";
}
);
layerId = UUID0;
paths = (
{
closed = 1;
nodes = (
"393 200 OFFCURVE",
"453 272 OFFCURVE",
"453 363 CURVE SMOOTH",
"453 458 OFFCURVE",
"393 526 OFFCURVE",
"260 526 CURVE SMOOTH",
"132 526 OFFCURVE",
"68 459 OFFCURVE",
"68 364 CURVE SMOOTH",
"68 271 OFFCURVE",
"127 200 OFFCURVE",
"264 200 CURVE SMOOTH"
);
},
{
closed = 1;
nodes = (
"305 0 LINE",
"305 252 LINE",
"216 252 LINE",
"216 0 LINE"
);
},
{
closed = 1;
nodes = (
"555 0 LINE",
"555 78 LINE",
"282 78 LINE",
"282 0 LINE"
);
},
{
closed = 1;
nodes = (
"191 278 OFFCURVE",
"158 313 OFFCURVE",
"158 363 CURVE SMOOTH",
"158 413 OFFCURVE",
"192 448 OFFCURVE",
"260 448 CURVE SMOOTH",
"326 448 OFFCURVE",
"363 416 OFFCURVE",
"363 363 CURVE SMOOTH",
"363 310 OFFCURVE",
"327 278 OFFCURVE",
"262 278 CURVE SMOOTH"
);
},
{
closed = 1;
nodes = (
"305 468 LINE",
"305 714 LINE",
"216 714 LINE",
"216 468 LINE"
);
}
);
width = 521;
}
);
script = nko;
category = Letter;
subCategory = Other;
},
{
glyphname = uni07E6.medi;
production = uni07E6.medi;
lastChange = "2019-09-06 15:22:42 +0000";
layers = (
{
anchors = (
{
name = Anchor2;
position = "{263, 795}";
},
{
name = Anchor4;
position = "{263, -49}";
},
{
name = Anchor6;
position = "{271, -49}";
}
);
layerId = UUID0;
paths = (
{
closed = 1;
nodes = (
"393 200 OFFCURVE",
"453 272 OFFCURVE",
"453 363 CURVE SMOOTH",
"453 458 OFFCURVE",
"393 526 OFFCURVE",
"260 526 CURVE SMOOTH",
"132 526 OFFCURVE",
"68 459 OFFCURVE",
"68 364 CURVE SMOOTH",
"68 271 OFFCURVE",
"127 200 OFFCURVE",
"264 200 CURVE SMOOTH"
);
},
{
closed = 1;
nodes = (
"183 0 LINE SMOOTH",
"252 0 OFFCURVE",
"305 36 OFFCURVE",
"305 117 CURVE",
"299 117 LINE",
"284 98 OFFCURVE",
"270 78 OFFCURVE",
"228 78 CURVE SMOOTH",
"-34 78 LINE",
"-34 16 LINE",
"-23 8 OFFCURVE",
"3 0 OFFCURVE",
"15 0 CURVE SMOOTH"
);
},
{
closed = 1;
nodes = (
"305 117 LINE",
"305 252 LINE",
"216 252 LINE",
"216 9 LINE"
);
},
{
closed = 1;
nodes = (
"555 0 LINE",
"555 78 LINE",
"408 78 LINE SMOOTH",
"357 78 OFFCURVE",
"322 97 OFFCURVE",
"305 135 CURVE",
"287 63 LINE",
"324 21 OFFCURVE",
"349 0 OFFCURVE",
"412 0 CURVE SMOOTH"
);
},
{
closed = 1;
nodes = (
"191 278 OFFCURVE",
"158 313 OFFCURVE",
"158 363 CURVE SMOOTH",
"158 413 OFFCURVE",
"192 448 OFFCURVE",
"260 448 CURVE SMOOTH",
"326 448 OFFCURVE",
"363 416 OFFCURVE",
"363 363 CURVE SMOOTH",
"363 310 OFFCURVE",
"327 278 OFFCURVE",
"262 278 CURVE SMOOTH"
);
},
{
closed = 1;
nodes = (
"305 468 LINE",
"305 714 LINE",
"216 714 LINE",
"216 468 LINE"
);
}
);
width = 521;
}
);
script = nko;
category = Letter;
subCategory = Other;
},
{
glyphname = uni07E6.init;
production = uni07E6.init;
lastChange = "2019-09-06 15:22:42 +0000";
layers = (
{
anchors = (
{
name = Anchor2;
position = "{263, 795}";
},
{
name = Anchor4;
position = "{241, -49}";
}
);
layerId = UUID0;
paths = (
{
closed = 1;
nodes = (
"393 200 OFFCURVE",
"453 272 OFFCURVE",
"453 363 CURVE SMOOTH",
"453 458 OFFCURVE",
"393 526 OFFCURVE",
"260 526 CURVE SMOOTH",
"132 526 OFFCURVE",
"68 459 OFFCURVE",
"68 364 CURVE SMOOTH",
"68 271 OFFCURVE",
"127 200 OFFCURVE",
"264 200 CURVE SMOOTH"
);
},
{
closed = 1;
nodes = (
"183 0 LINE SMOOTH",
"252 0 OFFCURVE",
"305 36 OFFCURVE",
"305 117 CURVE",
"299 117 LINE",
"284 98 OFFCURVE",
"270 78 OFFCURVE",
"228 78 CURVE SMOOTH",
"-34 78 LINE",
"-34 16 LINE",
"-23 8 OFFCURVE",
"3 0 OFFCURVE",
"15 0 CURVE SMOOTH"
);
},
{
closed = 1;
nodes = (
"305 117 LINE",
"305 252 LINE",
"216 252 LINE",
"216 9 LINE"
);
},
{
closed = 1;
nodes = (
"191 278 OFFCURVE",
"158 313 OFFCURVE",
"158 363 CURVE SMOOTH",
"158 413 OFFCURVE",
"192 448 OFFCURVE",
"260 448 CURVE SMOOTH",
"326 448 OFFCURVE",
"363 416 OFFCURVE",
"363 363 CURVE SMOOTH",
"363 310 OFFCURVE",
"327 278 OFFCURVE",
"262 278 CURVE SMOOTH"
);
},
{
closed = 1;
nodes = (
"305 468 LINE",
"305 714 LINE",
"216 714 LINE",
"216 468 LINE"
);
}
);
width = 521;
}
);
script = nko;
category = Letter;
subCategory = Other;
},
{
glyphname = uni07E7.fina;
production = uni07E7.fina;
lastChange = "2019-09-06 15:22:42 +0000";
layers = (
{
anchors = (
{
name = Anchor2;
position = "{263, 795}";
},
{
name = Anchor4;
position = "{265, -49}";
},
{
name = Anchor6;
position = "{271, -49}";
}
);
layerId = UUID0;
paths = (
{
closed = 1;
nodes = (
"397 200 OFFCURVE",
"457 272 OFFCURVE",
"457 363 CURVE SMOOTH",
"457 458 OFFCURVE",
"397 526 OFFCURVE",
"264 526 CURVE SMOOTH",
"136 526 OFFCURVE",
"72 459 OFFCURVE",
"72 364 CURVE SMOOTH",
"72 271 OFFCURVE",
"131 200 OFFCURVE",
"268 200 CURVE SMOOTH"
);
},
{
closed = 1;
nodes = (
"309 0 LINE",
"309 252 LINE",
"220 252 LINE",
"220 0 LINE"
);
},
{
closed = 1;
nodes = (
"563 0 LINE",
"563 78 LINE",
"272 78 LINE",
"272 0 LINE"
);
},
{
closed = 1;
nodes = (
"195 278 OFFCURVE",
"162 313 OFFCURVE",
"162 363 CURVE SMOOTH",
"162 413 OFFCURVE",
"196 448 OFFCURVE",
"264 448 CURVE SMOOTH",
"330 448 OFFCURVE",
"367 416 OFFCURVE",
"367 363 CURVE SMOOTH",
"367 310 OFFCURVE",
"331 278 OFFCURVE",
"266 278 CURVE SMOOTH"
);
},
{
closed = 1;
nodes = (
"309 468 LINE",
"309 714 LINE",
"220 714 LINE",
"220 468 LINE"
);
},
{
closed = 1;
nodes = (
"480 636 LINE",
"480 714 LINE",
"49 714 LINE",
"49 636 LINE"
);
}
);
width = 529;
}
);
script = nko;
category = Letter;
subCategory = Other;
},
{
glyphname = uni07E7.medi;
production = uni07E7.medi;
lastChange = "2019-09-06 15:22:42 +0000";
layers = (
{
anchors = (
{
name = Anchor2;
position = "{263, 795}";
},
{
name = Anchor4;
position = "{268, -49}";
},
{
name = Anchor6;
position = "{268, -49}";
}
);
layerId = UUID0;
paths = (
{
closed = 1;
nodes = (
"397 200 OFFCURVE",
"457 272 OFFCURVE",
"457 363 CURVE SMOOTH",
"457 458 OFFCURVE",
"397 526 OFFCURVE",
"264 526 CURVE SMOOTH",
"136 526 OFFCURVE",
"72 459 OFFCURVE",
"72 364 CURVE SMOOTH",
"72 271 OFFCURVE",
"131 200 OFFCURVE",
"268 200 CURVE SMOOTH"
);
},
{
closed = 1;
nodes = (
"187 0 LINE SMOOTH",
"256 0 OFFCURVE",
"309 36 OFFCURVE",
"309 117 CURVE",
"303 117 LINE",
"288 98 OFFCURVE",
"274 78 OFFCURVE",
"232 78 CURVE SMOOTH",
"-34 78 LINE",
"-34 16 LINE",
"-23 8 OFFCURVE",
"3 0 OFFCURVE",
"15 0 CURVE SMOOTH"
);
},
{
closed = 1;
nodes = (
"309 117 LINE",
"309 252 LINE",
"220 252 LINE",
"220 6 LINE"
);
},
{
closed = 1;
nodes = (
"563 0 LINE",
"563 78 LINE",
"412 78 LINE SMOOTH",
"361 78 OFFCURVE",
"326 97 OFFCURVE",
"309 135 CURVE",
"291 63 LINE",
"328 21 OFFCURVE",
"353 0 OFFCURVE",
"416 0 CURVE SMOOTH"
);
},
{
closed = 1;
nodes = (
"195 278 OFFCURVE",
"162 313 OFFCURVE",
"162 363 CURVE SMOOTH",
"162 413 OFFCURVE",
"196 448 OFFCURVE",
"264 448 CURVE SMOOTH",
"330 448 OFFCURVE",
"367 416 OFFCURVE",
"367 363 CURVE SMOOTH",
"367 310 OFFCURVE",
"331 278 OFFCURVE",
"266 278 CURVE SMOOTH"
);
},
{
closed = 1;
nodes = (
"309 468 LINE",
"309 714 LINE",
"220 714 LINE",
"220 468 LINE"
);
},
{
closed = 1;
nodes = (
"480 636 LINE",
"480 714 LINE",
"49 714 LINE",
"49 636 LINE"
);
}
);
width = 529;
}
);
script = nko;
category = Letter;
subCategory = Other;
},
{
glyphname = uni07E7.init;
production = uni07E7.init;
lastChange = "2019-09-06 15:22:42 +0000";
layers = (
{
anchors = (
{
name = Anchor2;
position = "{263, 795}";
},
{
name = Anchor4;
position = "{245, -49}";
}
);
layerId = UUID0;
paths = (
{
closed = 1;
nodes = (
"397 200 OFFCURVE",
"457 272 OFFCURVE",
"457 363 CURVE SMOOTH",
"457 458 OFFCURVE",
"397 526 OFFCURVE",
"264 526 CURVE SMOOTH",
"136 526 OFFCURVE",
"72 459 OFFCURVE",
"72 364 CURVE SMOOTH",
"72 271 OFFCURVE",
"131 200 OFFCURVE",
"268 200 CURVE SMOOTH"
);
},
{
closed = 1;
nodes = (
"187 0 LINE SMOOTH",
"256 0 OFFCURVE",
"309 36 OFFCURVE",
"309 117 CURVE",
"303 117 LINE",
"288 98 OFFCURVE",
"274 78 OFFCURVE",
"232 78 CURVE SMOOTH",
"-34 78 LINE",
"-34 16 LINE",
"-23 8 OFFCURVE",
"3 0 OFFCURVE",
"15 0 CURVE SMOOTH"
);
},
{
closed = 1;
nodes = (
"309 117 LINE",
"309 252 LINE",
"220 252 LINE",
"220 6 LINE"
);
},
{
closed = 1;
nodes = (
"195 278 OFFCURVE",
"162 313 OFFCURVE",
"162 363 CURVE SMOOTH",
"162 413 OFFCURVE",
"196 448 OFFCURVE",
"264 448 CURVE SMOOTH",
"330 448 OFFCURVE",
"367 416 OFFCURVE",
"367 363 CURVE SMOOTH",
"367 310 OFFCURVE",
"331 278 OFFCURVE",
"266 278 CURVE SMOOTH"
);
},
{
closed = 1;
nodes = (
"309 468 LINE",
"309 714 LINE",
"220 714 LINE",
"220 468 LINE"
);
},
{
closed = 1;
nodes = (
"480 636 LINE",
"480 714 LINE",
"49 714 LINE",
"49 636 LINE"
);
}
);
width = 529;
}
);
script = nko;
category = Letter;
subCategory = Other;
},
{
glyphname = uni07E8.fina;
production = uni07E8.fina;
lastChange = "2019-09-06 15:22:42 +0000";
layers = (
{
anchors = (
{
name = Anchor2;
position = "{292, 454}";
},
{
name = Anchor4;
position = "{214, -303}";
},
{
name = Anchor6;
position = "{286, -49}";
}
);
layerId = UUID0;
paths = (
{
closed = 1;
nodes = (
"305 -272 OFFCURVE",
"396 -197 OFFCURVE",
"432 -44 CURVE",
"366 -44 LINE",
"346 -110 OFFCURVE",
"284 -195 OFFCURVE",
"210 -195 CURVE SMOOTH",
"200 -195 OFFCURVE",
"193 -194 OFFCURVE",
"187 -192 CURVE",
"218 -132 OFFCURVE",
"268 -44 OFFCURVE",
"283 -13 CURVE SMOOTH",
"342 109 OFFCURVE",
"387 192 OFFCURVE",
"422 280 CURVE",
"330 280 LINE",
"298 204 OFFCURVE",
"243 91 OFFCURVE",
"196 -1 CURVE SMOOTH",
"160 -72 OFFCURVE",
"86 -195 OFFCURVE",
"86 -212 CURVE SMOOTH",
"86 -242 OFFCURVE",
"122 -272 OFFCURVE",
"189 -272 CURVE SMOOTH"
);
},
{
closed = 1;
nodes = (
"487 0 LINE",
"487 78 LINE",
"435 78 LINE SMOOTH",
"384 78 OFFCURVE",
"349 97 OFFCURVE",
"332 135 CURVE",
"314 63 LINE",
"351 21 OFFCURVE",
"376 0 OFFCURVE",
"439 0 CURVE SMOOTH"
);
}
);
width = 453;
}
);
script = nko;
category = Letter;
subCategory = Other;
},
{
glyphname = uni07E8.medi;
production = uni07E8.medi;
lastChange = "2019-09-06 15:22:42 +0000";
layers = (
{
anchors = (
{
name = Anchor2;
position = "{292, 454}";
},
{
name = Anchor4;
position = "{214, -303}";
},
{
name = Anchor6;
position = "{284, -49}";
}
);
layerId = UUID0;
paths = (
{
closed = 1;
nodes = (
"305 -272 OFFCURVE",
"396 -197 OFFCURVE",
"432 -44 CURVE",
"366 -44 LINE",
"353 -87 OFFCURVE",
"320 -137 OFFCURVE",
"289 -163 CURVE SMOOTH",
"258 -189 OFFCURVE",
"228 -195 OFFCURVE",
"210 -195 CURVE SMOOTH",
"200 -195 OFFCURVE",
"193 -194 OFFCURVE",
"187 -192 CURVE",
"218 -132 OFFCURVE",
"268 -44 OFFCURVE",
"283 -13 CURVE SMOOTH",
"342 109 OFFCURVE",
"387 192 OFFCURVE",
"422 280 CURVE",
"330 280 LINE",
"298 204 OFFCURVE",
"240 85 OFFCURVE",
"193 -7 CURVE SMOOTH",
"157 -78 OFFCURVE",
"86 -195 OFFCURVE",
"86 -212 CURVE SMOOTH",
"86 -242 OFFCURVE",
"122 -272 OFFCURVE",
"189 -272 CURVE SMOOTH"
);
},
{
closed = 1;
nodes = (
"250 0 LINE",
"250 78 LINE",
"-34 78 LINE",
"-34 16 LINE",
"-23 8 OFFCURVE",
"3 0 OFFCURVE",
"15 0 CURVE SMOOTH"
);
},
{
closed = 1;
nodes = (
"487 0 LINE",
"487 78 LINE",
"435 78 LINE SMOOTH",
"384 78 OFFCURVE",
"349 97 OFFCURVE",
"332 135 CURVE",
"314 63 LINE",
"351 21 OFFCURVE",
"376 0 OFFCURVE",
"439 0 CURVE SMOOTH"
);
}
);
width = 453;
}
);
script = nko;
category = Letter;
subCategory = Other;
},
{
glyphname = uni07E8.init;
production = uni07E8.init;
lastChange = "2019-09-06 15:22:42 +0000";
layers = (
{
anchors = (
{
name = Anchor2;
position = "{292, 454}";
},
{
name = Anchor4;
position = "{214, -303}";
}
);
layerId = UUID0;
paths = (
{
closed = 1;
nodes = (
"305 -272 OFFCURVE",
"396 -197 OFFCURVE",
"432 -44 CURVE",
"366 -44 LINE",
"353 -87 OFFCURVE",
"320 -137 OFFCURVE",
"289 -163 CURVE SMOOTH",
"258 -189 OFFCURVE",
"228 -195 OFFCURVE",
"210 -195 CURVE SMOOTH",
"200 -195 OFFCURVE",
"193 -194 OFFCURVE",
"187 -192 CURVE",
"218 -132 OFFCURVE",
"268 -44 OFFCURVE",
"283 -13 CURVE SMOOTH",
"342 109 OFFCURVE",
"387 192 OFFCURVE",
"422 280 CURVE",
"330 280 LINE",
"298 204 OFFCURVE",
"242 89 OFFCURVE",
"195 -3 CURVE SMOOTH",
"159 -74 OFFCURVE",
"86 -195 OFFCURVE",
"86 -212 CURVE SMOOTH",
"86 -242 OFFCURVE",
"122 -272 OFFCURVE",
"189 -272 CURVE SMOOTH"
);
},
{
closed = 1;
nodes = (
"250 0 LINE",
"250 78 LINE",
"-34 78 LINE",
"-34 16 LINE",
"-23 8 OFFCURVE",
"3 0 OFFCURVE",
"15 0 CURVE SMOOTH"
);
}
);
width = 453;
}
);
script = nko;
category = Letter;
subCategory = Other;
},
{
glyphname = uni07E9.fina;
production = uni07E9.fina;
lastChange = "2019-09-06 15:22:42 +0000";
layers = (
{
anchors = (
{
name = Anchor2;
position = "{292, 454}";
},
{
name = Anchor4;
position = "{214, -303}";
},
{
name = Anchor6;
position = "{286, -49}";
}
);
layerId = UUID0;
paths = (
{
closed = 1;
nodes = (
"321 -272 OFFCURVE",
"415 -175 OFFCURVE",
"415 -103 CURVE SMOOTH",
"415 -32 OFFCURVE",
"350 -14 OFFCURVE",
"300 -14 CURVE SMOOTH",
"282 -14 LINE",
"334 88 OFFCURVE",
"387 192 OFFCURVE",
"422 280 CURVE",
"330 280 LINE",
"318 244 OFFCURVE",
"256 113 OFFCURVE",
"196 -1 CURVE SMOOTH",
"141 -106 OFFCURVE",
"86 -194 OFFCURVE",
"86 -212 CURVE SMOOTH",
"86 -247 OFFCURVE",
"129 -272 OFFCURVE",
"195 -272 CURVE SMOOTH"
);
},
{
closed = 1;
nodes = (
"203 -195 OFFCURVE",
"193 -194 OFFCURVE",
"187 -192 CURVE",
"207 -155 OFFCURVE",
"228 -118 OFFCURVE",
"247 -81 CURVE",
"273 -81 LINE SMOOTH",
"306 -81 OFFCURVE",
"326 -85 OFFCURVE",
"326 -112 CURVE SMOOTH",
"326 -155 OFFCURVE",
"262 -195 OFFCURVE",
"210 -195 CURVE SMOOTH"
);
},
{
closed = 1;
nodes = (
"487 0 LINE",
"487 78 LINE",
"435 78 LINE SMOOTH",
"384 78 OFFCURVE",
"349 97 OFFCURVE",
"332 135 CURVE",
"314 63 LINE",
"351 21 OFFCURVE",
"376 0 OFFCURVE",
"439 0 CURVE SMOOTH"
);
}
);
width = 453;
}
);
script = nko;
category = Letter;
subCategory = Other;
},
{
glyphname = uni07E9.medi;
production = uni07E9.medi;
lastChange = "2019-09-06 15:22:42 +0000";
layers = (
{
anchors = (
{
name = Anchor2;
position = "{292, 454}";
},
{
name = Anchor4;
position = "{214, -303}";
},
{
name = Anchor6;
position = "{279, -49}";
}
);
layerId = UUID0;
paths = (
{
closed = 1;
nodes = (
"321 -272 OFFCURVE",
"415 -175 OFFCURVE",
"415 -103 CURVE SMOOTH",
"415 -32 OFFCURVE",
"350 -14 OFFCURVE",
"300 -14 CURVE SMOOTH",
"282 -14 LINE",
"334 88 OFFCURVE",
"387 192 OFFCURVE",
"422 280 CURVE",
"330 280 LINE",
"318 244 OFFCURVE",
"254 109 OFFCURVE",
"194 -5 CURVE SMOOTH",
"139 -110 OFFCURVE",
"86 -194 OFFCURVE",
"86 -212 CURVE SMOOTH",
"86 -247 OFFCURVE",
"129 -272 OFFCURVE",
"195 -272 CURVE SMOOTH"
);
},
{
closed = 1;
nodes = (
"203 -195 OFFCURVE",
"193 -194 OFFCURVE",
"187 -192 CURVE",
"207 -155 OFFCURVE",
"228 -118 OFFCURVE",
"247 -81 CURVE",
"273 -81 LINE SMOOTH",
"306 -81 OFFCURVE",
"326 -85 OFFCURVE",
"326 -112 CURVE SMOOTH",
"326 -155 OFFCURVE",
"262 -195 OFFCURVE",
"210 -195 CURVE SMOOTH"
);
},
{
closed = 1;
nodes = (
"273 0 LINE",
"273 78 LINE",
"-34 78 LINE",
"-34 16 LINE",
"-23 8 OFFCURVE",
"3 0 OFFCURVE",
"15 0 CURVE SMOOTH"
);
},
{
closed = 1;
nodes = (
"487 0 LINE",
"487 78 LINE",
"435 78 LINE SMOOTH",
"384 78 OFFCURVE",
"349 97 OFFCURVE",
"332 135 CURVE",
"314 63 LINE",
"351 21 OFFCURVE",
"376 0 OFFCURVE",
"439 0 CURVE SMOOTH"
);
}
);
width = 453;
}
);
script = nko;
category = Letter;
subCategory = Other;
},
{
glyphname = uni07E9.init;
production = uni07E9.init;
lastChange = "2019-09-06 15:22:42 +0000";
layers = (
{
anchors = (
{
name = Anchor2;
position = "{292, 454}";
},
{
name = Anchor4;
position = "{214, -303}";
}
);
layerId = UUID0;
paths = (
{
closed = 1;
nodes = (
"321 -272 OFFCURVE",
"415 -175 OFFCURVE",
"415 -103 CURVE SMOOTH",
"415 -32 OFFCURVE",
"350 -14 OFFCURVE",
"300 -14 CURVE SMOOTH",
"282 -14 LINE",
"334 88 OFFCURVE",
"387 192 OFFCURVE",
"422 280 CURVE",
"330 280 LINE",
"318 244 OFFCURVE",
"254 109 OFFCURVE",
"194 -5 CURVE SMOOTH",
"139 -110 OFFCURVE",
"86 -194 OFFCURVE",
"86 -212 CURVE SMOOTH",
"86 -247 OFFCURVE",
"129 -272 OFFCURVE",
"195 -272 CURVE SMOOTH"
);
},
{
closed = 1;
nodes = (
"203 -195 OFFCURVE",
"193 -194 OFFCURVE",
"187 -192 CURVE",
"207 -155 OFFCURVE",
"228 -118 OFFCURVE",
"247 -81 CURVE",
"273 -81 LINE SMOOTH",
"306 -81 OFFCURVE",
"326 -85 OFFCURVE",
"326 -112 CURVE SMOOTH",
"326 -155 OFFCURVE",
"263 -195 OFFCURVE",
"210 -195 CURVE SMOOTH"
);
},
{
closed = 1;
nodes = (
"273 0 LINE",
"273 78 LINE",
"-34 78 LINE",
"-34 16 LINE",
"-23 8 OFFCURVE",
"3 0 OFFCURVE",
"15 0 CURVE SMOOTH"
);
}
);
width = 453;
}
);
script = nko;
category = Letter;
subCategory = Other;
},
{
glyphname = uni07EA.fina;
production = uni07EA.fina;
lastChange = "2019-09-06 15:22:42 +0000";
layers = (
{
anchors = (
{
name = Anchor2;
position = "{195, 454}";
},
{
name = Anchor4;
position = "{195, -303}";
},
{
name = Anchor6;
position = "{188, -49}";
}
);
layerId = UUID0;
paths = (
{
closed = 1;
nodes = (
"240 -272 LINE",
"240 324 LINE",
"151 324 LINE",
"151 -272 LINE"
);
},
{
closed = 1;
nodes = (
"425 0 LINE",
"425 78 LINE",
"39 78 LINE",
"39 0 LINE"
);
}
);
width = 391;
}
);
script = nko;
category = Letter;
subCategory = Other;
},
{
glyphname = uni07EA.medi;
production = uni07EA.medi;
lastChange = "2019-09-06 15:22:42 +0000";
layers = (
{
anchors = (
{
name = Anchor2;
position = "{195, 454}";
},
{
name = Anchor4;
position = "{195, -303}";
},
{
name = Anchor6;
position = "{215, -49}";
}
);
layerId = UUID0;
paths = (
{
closed = 1;
nodes = (
"240 -272 LINE",
"240 324 LINE",
"151 324 LINE",
"151 -272 LINE"
);
},
{
closed = 1;
nodes = (
"425 0 LINE",
"425 78 LINE",
"-34 78 LINE",
"-34 16 LINE",
"-23 8 OFFCURVE",
"3 0 OFFCURVE",
"15 0 CURVE SMOOTH"
);
}
);
width = 391;
}
);
script = nko;
category = Letter;
subCategory = Other;
},
{
glyphname = uni07EA.init;
production = uni07EA.init;
lastChange = "2019-09-06 15:22:42 +0000";
layers = (
{
anchors = (
{
name = Anchor2;
position = "{195, 454}";
},
{
name = Anchor4;
position = "{195, -303}";
}
);
layerId = UUID0;
paths = (
{
closed = 1;
nodes = (
"240 -272 LINE",
"240 324 LINE",
"151 324 LINE",
"151 -272 LINE"
);
},
{
closed = 1;
nodes = (
"352 0 LINE",
"352 78 LINE",
"-34 78 LINE",
"-34 16 LINE",
"-23 8 OFFCURVE",
"3 0 OFFCURVE",
"15 0 CURVE SMOOTH"
);
}
);
width = 391;
}
);
script = nko;
category = Letter;
subCategory = Other;
},
{
glyphname = uni25CC;
production = uni25CC;
lastChange = "2019-09-06 15:22:42 +0000";
layers = (
{
anchors = (
{
name = Anchor2;
position = "{297, 645}";
},
{
name = Anchor4;
position = "{297, -49}";
},
{
name = Anchor6;
position = "{297, -49}";
}
);
layerId = UUID0;
paths = (
{
closed = 1;
nodes = (
"469 423 OFFCURVE",
"481 435 OFFCURVE",
"481 449 CURVE SMOOTH",
"481 463 OFFCURVE",
"469 475 OFFCURVE",
"455 475 CURVE SMOOTH",
"441 475 OFFCURVE",
"429 463 OFFCURVE",
"429 449 CURVE SMOOTH",
"429 435 OFFCURVE",
"441 423 OFFCURVE",
"455 423 CURVE SMOOTH"
);
},
{
closed = 1;
nodes = (
"153 107 OFFCURVE",
"165 119 OFFCURVE",
"165 133 CURVE SMOOTH",
"165 147 OFFCURVE",
"153 159 OFFCURVE",
"139 159 CURVE SMOOTH",
"125 159 OFFCURVE",
"113 147 OFFCURVE",
"113 133 CURVE SMOOTH",
"113 119 OFFCURVE",
"125 107 OFFCURVE",
"139 107 CURVE SMOOTH"
);
},
{
closed = 1;
nodes = (
"227 60 OFFCURVE",
"239 72 OFFCURVE",
"239 86 CURVE SMOOTH",
"239 100 OFFCURVE",
"227 112 OFFCURVE",
"213 112 CURVE SMOOTH",
"199 112 OFFCURVE",
"187 100 OFFCURVE",
"187 86 CURVE SMOOTH",
"187 72 OFFCURVE",
"199 60 OFFCURVE",
"213 60 CURVE SMOOTH"
);
},
{
closed = 1;
nodes = (
"106 181 OFFCURVE",
"118 193 OFFCURVE",
"118 207 CURVE SMOOTH",
"118 221 OFFCURVE",
"106 233 OFFCURVE",
"92 233 CURVE SMOOTH",
"78 233 OFFCURVE",
"66 221 OFFCURVE",
"66 207 CURVE SMOOTH",
"66 193 OFFCURVE",
"78 181 OFFCURVE",
"92 181 CURVE SMOOTH"
);
},
{
closed = 1;
nodes = (
"311 42 OFFCURVE",
"323 54 OFFCURVE",
"323 68 CURVE SMOOTH",
"323 82 OFFCURVE",
"311 94 OFFCURVE",
"297 94 CURVE SMOOTH",
"283 94 OFFCURVE",
"271 82 OFFCURVE",
"271 68 CURVE SMOOTH",
"271 54 OFFCURVE",
"283 42 OFFCURVE",
"297 42 CURVE SMOOTH"
);
},
{
closed = 1;
nodes = (
"88 265 OFFCURVE",
"100 277 OFFCURVE",
"100 291 CURVE SMOOTH",
"100 305 OFFCURVE",
"88 317 OFFCURVE",
"74 317 CURVE SMOOTH",
"60 317 OFFCURVE",
"48 305 OFFCURVE",
"48 291 CURVE SMOOTH",
"48 277 OFFCURVE",
"60 265 OFFCURVE",
"74 265 CURVE SMOOTH"
);
},
{
closed = 1;
nodes = (
"395 60 OFFCURVE",
"407 72 OFFCURVE",
"407 86 CURVE SMOOTH",
"407 100 OFFCURVE",
"395 112 OFFCURVE",
"381 112 CURVE SMOOTH",
"367 112 OFFCURVE",
"355 100 OFFCURVE",
"355 86 CURVE SMOOTH",
"355 72 OFFCURVE",
"367 60 OFFCURVE",
"381 60 CURVE SMOOTH"
);
},
{
closed = 1;
nodes = (
"106 349 OFFCURVE",
"118 361 OFFCURVE",
"118 375 CURVE SMOOTH",
"118 389 OFFCURVE",
"106 401 OFFCURVE",
"92 401 CURVE SMOOTH",
"78 401 OFFCURVE",
"66 389 OFFCURVE",
"66 375 CURVE SMOOTH",
"66 361 OFFCURVE",
"78 349 OFFCURVE",
"92 349 CURVE SMOOTH"
);
},
{
closed = 1;
nodes = (
"153 423 OFFCURVE",
"165 435 OFFCURVE",
"165 449 CURVE SMOOTH",
"165 463 OFFCURVE",
"153 475 OFFCURVE",
"139 475 CURVE SMOOTH",
"125 475 OFFCURVE",
"113 463 OFFCURVE",
"113 449 CURVE SMOOTH",
"113 435 OFFCURVE",
"125 423 OFFCURVE",
"139 423 CURVE SMOOTH"
);
},
{
closed = 1;
nodes = (
"469 107 OFFCURVE",
"481 119 OFFCURVE",
"481 133 CURVE SMOOTH",
"481 147 OFFCURVE",
"469 159 OFFCURVE",
"455 159 CURVE SMOOTH",
"441 159 OFFCURVE",
"429 147 OFFCURVE",
"429 133 CURVE SMOOTH",
"429 119 OFFCURVE",
"441 107 OFFCURVE",
"455 107 CURVE SMOOTH"
);
},
{
closed = 1;
nodes = (
"227 470 OFFCURVE",
"239 482 OFFCURVE",
"239 496 CURVE SMOOTH",
"239 510 OFFCURVE",
"227 522 OFFCURVE",
"213 522 CURVE SMOOTH",
"199 522 OFFCURVE",
"187 510 OFFCURVE",
"187 496 CURVE SMOOTH",
"187 482 OFFCURVE",
"199 470 OFFCURVE",
"213 470 CURVE SMOOTH"
);
},
{
closed = 1;
nodes = (
"516 181 OFFCURVE",
"528 193 OFFCURVE",
"528 207 CURVE SMOOTH",
"528 221 OFFCURVE",
"516 233 OFFCURVE",
"502 233 CURVE SMOOTH",
"488 233 OFFCURVE",
"476 221 OFFCURVE",
"476 207 CURVE SMOOTH",
"476 193 OFFCURVE",
"488 181 OFFCURVE",
"502 181 CURVE SMOOTH"
);
},
{
closed = 1;
nodes = (
"311 488 OFFCURVE",
"323 500 OFFCURVE",
"323 514 CURVE SMOOTH",
"323 528 OFFCURVE",
"311 540 OFFCURVE",
"297 540 CURVE SMOOTH",
"283 540 OFFCURVE",
"271 528 OFFCURVE",
"271 514 CURVE SMOOTH",
"271 500 OFFCURVE",
"283 488 OFFCURVE",
"297 488 CURVE SMOOTH"
);
},
{
closed = 1;
nodes = (
"534 265 OFFCURVE",
"546 277 OFFCURVE",
"546 291 CURVE SMOOTH",
"546 305 OFFCURVE",
"534 317 OFFCURVE",
"520 317 CURVE SMOOTH",
"506 317 OFFCURVE",
"494 305 OFFCURVE",
"494 291 CURVE SMOOTH",
"494 277 OFFCURVE",
"506 265 OFFCURVE",
"520 265 CURVE SMOOTH"
);
},
{
closed = 1;
nodes = (
"395 470 OFFCURVE",
"407 482 OFFCURVE",
"407 496 CURVE SMOOTH",
"407 510 OFFCURVE",
"395 522 OFFCURVE",
"381 522 CURVE SMOOTH",
"367 522 OFFCURVE",
"355 510 OFFCURVE",
"355 496 CURVE SMOOTH",
"355 482 OFFCURVE",
"367 470 OFFCURVE",
"381 470 CURVE SMOOTH"
);
},
{
closed = 1;
nodes = (
"516 349 OFFCURVE",
"528 361 OFFCURVE",
"528 375 CURVE SMOOTH",
"528 389 OFFCURVE",
"516 401 OFFCURVE",
"502 401 CURVE SMOOTH",
"488 401 OFFCURVE",
"476 389 OFFCURVE",
"476 375 CURVE SMOOTH",
"476 361 OFFCURVE",
"488 349 OFFCURVE",
"502 349 CURVE SMOOTH"
);
}
);
width = 594;
}
);
unicode = 25CC;
script = "";
category = Letter;
subCategory = Geometry;
},
{
glyphname = uni2E1C;
production = uni2E1C;
lastChange = "2019-09-06 15:18:40 +0000";
layers = (
{
layerId = UUID0;
paths = (
{
closed = 1;
nodes = (
"529 107 LINE",
"119 518 LINE",
"65 464 LINE",
"476 54 LINE"
);
}
);
width = 600;
}
);
note = uni2E1C;
unicode = 2E1C;
script = "";
category = Letter;
subCategory = Other;
},
{
glyphname = uni2E1D;
production = uni2E1D;
lastChange = "2019-09-06 15:18:40 +0000";
layers = (
{
layerId = UUID0;
paths = (
{
closed = 1;
nodes = (
"539 464 LINE",
"485 518 LINE",
"75 107 LINE",
"128 54 LINE"
);
}
);
width = 600;
}
);
note = uni2E1D;
unicode = 2E1D;
script = "";
category = Letter;
subCategory = Other;
},
{
glyphname = uniFD3E;
production = uniFD3E;
lastChange = "2019-09-06 15:18:40 +0000";
layers = (
{
layerId = UUID0;
paths = (
{
closed = 1;
nodes = (
"224 319 OFFCURVE",
"258 336 OFFCURVE",
"290 359 CURVE",
"300 377 LINE SMOOTH",
"320 412 OFFCURVE",
"331 432 OFFCURVE",
"333 450 CURVE",
"357 644 LINE SMOOTH",
"364 703 OFFCURVE",
"377 729 OFFCURVE",
"416 742 CURVE SMOOTH",
"440 750 LINE",
"428 784 LINE",
"375 767 LINE SMOOTH",
"294 741 OFFCURVE",
"275 682 OFFCURVE",
"273 583 CURVE SMOOTH",
"273 565 OFFCURVE",
"273 476 OFFCURVE",
"273 459 CURVE SMOOTH",
"272 409 LINE",
"235 388 OFFCURVE",
"215 379 OFFCURVE",
"157 366 CURVE",
"171 335 OFFCURVE",
"189 319 OFFCURVE",
"211 319 CURVE SMOOTH"
);
},
{
closed = 1;
nodes = (
"438 -142 OFFCURVE",
"448 -131 OFFCURVE",
"458 -118 CURVE",
"428 -88 LINE",
"412 -105 OFFCURVE",
"401 -116 OFFCURVE",
"396 -121 CURVE",
"404 -131 OFFCURVE",
"415 -141 OFFCURVE",
"428 -151 CURVE"
);
},
{
closed = 1;
nodes = (
"107 319 OFFCURVE",
"129 344 OFFCURVE",
"145 366 CURVE",
"121 387 OFFCURVE",
"98 409 OFFCURVE",
"78 432 CURVE",
"57 408 OFFCURVE",
"34 383 OFFCURVE",
"8 358 CURVE",
"27 337 OFFCURVE",
"51 315 OFFCURVE",
"80 293 CURVE"
);
},
{
closed = 1;
nodes = (
"440 -41 LINE",
"416 -33 LINE SMOOTH",
"380 -21 OFFCURVE",
"364 3 OFFCURVE",
"357 65 CURVE SMOOTH",
"338 232 OFFCURVE",
"332 264 OFFCURVE",
"295 328 CURVE",
"264 309 LINE",
"267 290 OFFCURVE",
"270 261 OFFCURVE",
"271 222 CURVE SMOOTH",
"272 148 OFFCURVE",
"276 95 OFFCURVE",
"280 61 CURVE SMOOTH",
"287 0 OFFCURVE",
"318 -38 OFFCURVE",
"375 -57 CURVE SMOOTH",
"428 -75 LINE"
);
},
{
closed = 1;
nodes = (
"438 806 OFFCURVE",
"448 817 OFFCURVE",
"458 830 CURVE",
"428 860 LINE",
"412 843 OFFCURVE",
"401 832 OFFCURVE",
"396 827 CURVE",
"402 819 OFFCURVE",
"415 808 OFFCURVE",
"428 797 CURVE"
);
}
);
width = 500;
}
);
note = uniFD3E;
unicode = FD3E;
script = arabic;
category = Letter;
subCategory = Parenthesis;
},
{
glyphname = uniFD3F;
production = uniFD3F;
lastChange = "2019-09-06 15:18:40 +0000";
layers = (
{
layerId = UUID0;
paths = (
{
closed = 1;
nodes = (
"125 -58 LINE SMOOTH",
"212 -30 OFFCURVE",
"227 29 OFFCURVE",
"228 141 CURVE SMOOTH",
"228 177 OFFCURVE",
"228 222 OFFCURVE",
"228 268 CURVE SMOOTH",
"228 299 LINE",
"270 322 OFFCURVE",
"287 329 OFFCURVE",
"343 342 CURVE",
"330 373 OFFCURVE",
"312 389 OFFCURVE",
"290 389 CURVE SMOOTH",
"276 389 OFFCURVE",
"239 370 OFFCURVE",
"211 349 CURVE",
"201 331 LINE SMOOTH",
"182 298 OFFCURVE",
"171 278 OFFCURVE",
"169 265 CURVE",
"144 64 LINE SMOOTH",
"136 2 OFFCURVE",
"120 -22 OFFCURVE",
"84 -34 CURVE SMOOTH",
"60 -42 LINE",
"72 -76 LINE"
);
},
{
closed = 1;
nodes = (
"104 -118 LINE",
"95 -108 OFFCURVE",
"84 -98 OFFCURVE",
"72 -89 CURVE",
"59 -102 OFFCURVE",
"49 -113 OFFCURVE",
"42 -122 CURVE",
"72 -151 LINE"
);
},
{
closed = 1;
nodes = (
"237 399 LINE",
"233 418 OFFCURVE",
"230 447 OFFCURVE",
"229 487 CURVE SMOOTH",
"226 630 OFFCURVE",
"241 727 OFFCURVE",
"125 766 CURVE SMOOTH",
"72 784 LINE",
"60 750 LINE",
"85 741 LINE SMOOTH",
"121 728 OFFCURVE",
"137 704 OFFCURVE",
"144 643 CURVE SMOOTH",
"154 557 LINE SMOOTH",
"163 476 OFFCURVE",
"179 427 OFFCURVE",
"206 380 CURVE"
);
},
{
closed = 1;
nodes = (
"443 301 OFFCURVE",
"466 325 OFFCURVE",
"492 350 CURVE",
"472 372 OFFCURVE",
"448 394 OFFCURVE",
"421 416 CURVE",
"394 391 OFFCURVE",
"373 366 OFFCURVE",
"356 342 CURVE",
"380 321 OFFCURVE",
"402 299 OFFCURVE",
"422 277 CURVE"
);
},
{
closed = 1;
nodes = (
"104 829 LINE",
"96 839 OFFCURVE",
"85 849 OFFCURVE",
"72 859 CURVE",
"59 846 OFFCURVE",
"49 835 OFFCURVE",
"42 826 CURVE",
"53 816 OFFCURVE",
"62 807 OFFCURVE",
"72 796 CURVE"
);
}
);
width = 500;
}
);
note = uniFD3F;
unicode = FD3F;
script = arabic;
category = Letter;
subCategory = Parenthesis;
},
{
glyphname = uni07FD;
production = uni07FD;
lastChange = "2019-09-06 15:22:32 +0000";
layers = (
{
anchors = (
{
name = _Anchor6;
position = "{0, -49}";
}
);
layerId = UUID0;
paths = (
{
closed = 1;
nodes = (
"-200 0 LINE",
"200 0 LINE",
"200 78 LINE",
"-200 78 LINE"
);
},
{
closed = 1;
nodes = (
"-136 -99 LINE",
"-111 43 LINE",
"-200 43 LINE",
"-200 -99 LINE"
);
},
{
closed = 1;
nodes = (
"200 -99 LINE",
"200 43 LINE",
"111 43 LINE",
"136 -99 LINE"
);
}
);
width = 0;
}
);
unicode = 07FD;
script = "";
category = Mark;
subCategory = Nonspacing;
},
{
glyphname = uni07FE;
production = uni07FE;
lastChange = "2019-09-06 15:18:40 +0000";
layers = (
{
layerId = UUID0;
paths = (
{
closed = 1;
nodes = (
"704 514 LINE",
"704 811 LINE SMOOTH",
"704 963 OFFCURVE",
"635 1034 OFFCURVE",
"520 1034 CURVE SMOOTH",
"440 1034 OFFCURVE",
"385 987 OFFCURVE",
"364 920 CURVE",
"345 954 OFFCURVE",
"302 979 OFFCURVE",
"247 979 CURVE SMOOTH",
"147 979 OFFCURVE",
"88 907 OFFCURVE",
"88 753 CURVE SMOOTH",
"88 514 LINE"
);
},
{
closed = 1;
nodes = (
"177 759 LINE SMOOTH",
"177 840 OFFCURVE",
"190 901 OFFCURVE",
"254 901 CURVE SMOOTH",
"313 901 OFFCURVE",
"331 849 OFFCURVE",
"331 766 CURVE SMOOTH",
"331 592 LINE",
"177 592 LINE"
);
},
{
closed = 1;
nodes = (
"420 815 LINE SMOOTH",
"420 900 OFFCURVE",
"451 956 OFFCURVE",
"519 956 CURVE SMOOTH",
"587 956 OFFCURVE",
"615 906 OFFCURVE",
"615 822 CURVE SMOOTH",
"615 592 LINE",
"420 592 LINE"
);
},
{
closed = 1;
nodes = (
"419 0 LINE",
"419 514 LINE",
"330 514 LINE",
"330 0 LINE"
);
},
{
closed = 1;
nodes = (
"531 237 LINE",
"531 315 LINE",
"218 315 LINE",
"218 237 LINE"
);
}
);
width = 792;
}
);
unicode = 07FE;
script = "";
category = Letter;
subCategory = Other;
},
{
glyphname = uni07FF;
production = uni07FF;
lastChange = "2019-09-06 15:22:42 +0000";
layers = (
{
anchors = (
{
name = Anchor2;
position = "{136, 795}";
},
{
name = Anchor4;
position = "{263, -49}";
}
);
layerId = UUID0;
paths = (
{
closed = 1;
nodes = (
"270 0 LINE SMOOTH",
"422 0 OFFCURVE",
"493 109 OFFCURVE",
"493 215 CURVE SMOOTH",
"493 347 OFFCURVE",
"422 431 OFFCURVE",
"267 431 CURVE SMOOTH",
"88 431 LINE",
"88 353 LINE",
"266 353 LINE SMOOTH",
"354 353 OFFCURVE",
"402 301 OFFCURVE",
"402 215 CURVE SMOOTH",
"402 150 OFFCURVE",
"371 78 OFFCURVE",
"273 78 CURVE SMOOTH",
"88 78 LINE",
"88 0 LINE"
);
},
{
closed = 1;
nodes = (
"177 0 LINE",
"177 714 LINE",
"88 714 LINE",
"88 0 LINE"
);
},
{
closed = 1;
nodes = (
"352 528 LINE",
"352 606 LINE",
"39 606 LINE",
"39 528 LINE"
);
}
);
width = 564;
}
);
unicode = 07FF;
script = "";
category = Letter;
subCategory = Other;
},
{
glyphname = uni07FD.narrow;
production = uni07FD.narrow;
lastChange = "2019-09-06 15:22:32 +0000";
layers = (
{
anchors = (
{
name = _Anchor6;
position = "{0, -49}";
}
);
layerId = UUID0;
paths = (
{
closed = 1;
nodes = (
"-150 0 LINE",
"150 0 LINE",
"150 78 LINE",
"-150 78 LINE"
);
},
{
closed = 1;
nodes = (
"-86 -99 LINE",
"-61 43 LINE",
"-150 43 LINE",
"-150 -99 LINE"
);
},
{
closed = 1;
nodes = (
"150 -99 LINE",
"150 43 LINE",
"61 43 LINE",
"86 -99 LINE"
);
}
);
width = 0;
}
);
script = "";
category = Mark;
subCategory = Nonspacing;
},
{
glyphname = uni07FD.wide;
production = uni07FD.wide;
lastChange = "2019-09-06 15:22:32 +0000";
layers = (
{
anchors = (
{
name = _Anchor6;
position = "{0, -49}";
}
);
layerId = UUID0;
paths = (
{
closed = 1;
nodes = (
"-195 -97 LINE",
"-170 35 LINE",
"-259 35 LINE",
"-259 -97 LINE"
);
},
{
closed = 1;
nodes = (
"259 -97 LINE",
"259 35 LINE",
"170 35 LINE",
"195 -97 LINE"
);
},
{
closed = 1;
nodes = (
"-259 0 LINE",
"259 0 LINE",
"259 78 LINE",
"-259 78 LINE"
);
}
);
width = 0;
}
);
script = "";
category = Mark;
subCategory = Nonspacing;
},
{
glyphname = uni07FD.wideopen;
production = uni07FD.wideopen;
lastChange = "2019-09-06 15:22:32 +0000";
layers = (
{
anchors = (
{
name = _Anchor6;
position = "{0, -49}";
}
);
layerId = UUID0;
paths = (
{
closed = 1;
nodes = (
"278 -97 LINE",
"278 0 LINE",
"271 15 LINE",
"184 15 LINE",
"182 0 LINE",
"210 -97 LINE"
);
},
{
closed = 1;
nodes = (
"-182 0 LINE",
"-184 15 LINE",
"-271 15 LINE",
"-278 0 LINE",
"-278 -97 LINE",
"-210 -97 LINE"
);
}
);
width = 0;
}
);
script = "";
category = Mark;
subCategory = Nonspacing;
},
{
glyphname = uni07FD.wider;
production = uni07FD.wider;
lastChange = "2019-09-06 15:22:32 +0000";
layers = (
{
anchors = (
{
name = _Anchor6;
position = "{0, -49}";
}
);
layerId = UUID0;
paths = (
{
closed = 1;
nodes = (
"-310 0 LINE",
"310 0 LINE",
"310 78 LINE",
"-310 78 LINE"
);
},
{
closed = 1;
nodes = (
"-246 -99 LINE",
"-221 43 LINE",
"-310 43 LINE",
"-310 -99 LINE"
);
},
{
closed = 1;
nodes = (
"310 -99 LINE",
"310 43 LINE",
"221 43 LINE",
"246 -99 LINE"
);
}
);
width = 0;
}
);
script = "";
category = Mark;
subCategory = Nonspacing;
},
